{"glyphs":{"0":{"ha":774,"x_min":53,"x_max":719,"o":"m 719 681 q 638 294 719 419 q 383 167 556 169 q 139 293 222 167 q 53 681 54 422 q 135 1071 53 946 q 383 1193 214 1192 q 629 1093 553 1193 q 719 681 719 975 l 719 681 m 565 681 q 515 988 565 896 q 383 1064 472 1064 q 249 976 293 1064 q 203 681 203 883 q 253 375 203 467 q 383 296 294 297 q 514 374 472 296 q 565 681 564 465 l 565 681 z "},"1":{"ha":774,"x_min":192,"x_max":582,"o":"m 582 158 l 432 158 l 432 904 q 321 831 386 867 q 192 771 257 794 l 192 915 q 371 1031 293 964 q 479 1165 446 1097 l 582 1165 l 582 158 z "},"2":{"ha":774,"x_min":47,"x_max":726,"o":"m 721 165 l 47 165 q 240 484 44 319 q 514 754 435 649 q 551 953 592 860 q 397 1044 514 1043 q 271 994 317 1044 q 222 849 222 943 l 69 865 q 167 1094 82 1017 q 399 1172 250 1171 q 704 1011 628 1172 q 613 646 785 844 q 428 471 567 593 q 256 310 289 347 l 721 310 l 721 165 z "},"3":{"ha":774,"x_min":51,"x_max":722,"o":"m 722 454 q 625 229 722 321 q 376 135 526 136 q 156 215 244 135 q 51 438 67 297 l 200 457 q 265 308 219 356 q 379 263 308 264 q 511 315 457 263 q 568 451 565 369 q 507 597 568 553 q 290 607 433 649 l 290 740 q 463 776 407 740 q 522 896 522 814 q 482 993 522 956 q 375 1032 442 1032 q 268 990 308 1032 q 211 856 225 946 l 63 881 q 169 1088 88 1015 q 374 1160 249 1157 q 586 1081 499 1160 q 674 893 674 1001 q 646 785 674 833 q 564 700 618 733 q 681 610 639 672 q 722 454 722 546 l 722 454 z "},"4":{"ha":774,"x_min":35,"x_max":739,"o":"m 739 388 l 608 388 l 608 154 l 458 154 l 458 388 l 35 388 l 36 518 l 488 1160 l 608 1160 l 608 528 l 739 528 l 739 388 m 458 528 l 458 906 l 194 528 l 458 528 z "},"5":{"ha":774,"x_min":47,"x_max":726,"o":"m 726 499 q 629 243 726 346 q 378 138 531 139 q 150 217 238 138 q 47 438 61 297 l 203 451 q 263 311 217 360 q 378 265 307 265 q 514 326 460 265 q 569 490 569 389 q 424 682 569 638 q 206 611 281 724 l 68 618 l 169 1146 l 681 1146 l 681 1003 l 288 1003 l 243 786 q 567 785 407 878 q 726 499 726 692 l 726 499 z "},"6":{"ha":774,"x_min":50,"x_max":724,"o":"m 724 485 q 635 239 724 339 q 401 136 543 136 q 150 249 239 136 q 50 624 51 372 q 146 1029 50 893 q 414 1161 239 1161 q 613 1092 535 1161 q 710 892 692 1021 l 561 881 q 500 1003 543 967 q 406 1033 465 1033 q 263 961 313 1033 q 200 718 208 883 q 300 792 243 767 q 419 815 356 815 q 635 724 549 815 q 724 485 722 631 l 724 485 m 574 478 q 524 625 574 569 q 396 681 475 678 q 271 626 321 681 q 215 485 217 572 q 271 332 215 399 q 400 264 325 265 q 522 321 474 264 q 574 478 572 381 l 574 478 z "},"7":{"ha":774,"x_min":56,"x_max":717,"o":"m 717 1135 l 714 1015 q 476 661 574 868 q 343 143 361 413 l 192 143 q 289 574 194 325 q 518 990 386 831 l 56 990 l 56 1135 l 717 1135 z "},"8":{"ha":774,"x_min":50,"x_max":724,"o":"m 724 444 q 632 225 724 311 q 386 135 538 136 q 146 224 239 135 q 50 446 53 311 q 92 601 50 536 q 211 699 133 665 q 121 776 151 726 q 92 894 92 825 q 169 1081 92 1007 q 385 1158 250 1157 q 601 1081 517 1158 q 683 890 683 1004 q 656 778 683 825 q 564 697 625 726 q 683 597 642 663 q 724 444 724 532 l 724 444 m 531 890 q 489 990 531 950 q 386 1031 447 1031 q 283 992 325 1031 q 242 897 243 954 q 282 794 242 835 q 388 754 322 754 q 489 793 447 754 q 531 890 531 833 l 531 890 m 572 442 q 519 575 572 521 q 385 629 465 629 q 256 578 307 629 q 204 446 204 525 q 257 319 204 375 q 388 261 311 261 q 521 313 468 261 q 572 442 572 363 l 572 442 z "},"9":{"ha":774,"x_min":51,"x_max":722,"o":"m 722 690 q 681 386 722 503 q 556 213 640 275 q 463 167 514 182 q 357 151 413 151 q 163 219 236 151 q 68 421 86 289 l 213 436 q 264 317 226 354 q 361 278 299 281 q 449 301 408 278 q 514 364 488 324 q 558 439 558 438 q 575 600 579 492 q 479 526 535 553 q 356 499 421 500 q 140 590 226 499 q 51 832 51 683 q 142 1079 51 983 q 371 1175 231 1174 q 556 1124 475 1175 q 681 971 640 1069 q 713 853 701 922 q 722 690 722 783 l 722 690 m 561 838 q 499 988 561 929 q 364 1043 442 1042 q 242 985 289 1043 q 194 829 194 926 q 250 688 194 743 q 383 632 303 632 q 511 688 463 632 q 561 838 561 743 l 561 838 z "},"\u0000":{"ha":1389,"x_min":0,"x_max":0,"o":""}," ":{"ha":694,"x_min":0,"x_max":0,"o":""},"!":{"ha":482,"x_min":144,"x_max":338,"o":"m 338 1197 l 319 443 l 163 443 l 144 1197 l 338 1197 m 333 188 l 150 188 l 150 363 l 333 363 l 333 188 z "},"\"":{"ha":665,"x_min":75,"x_max":590,"o":"m 590 1286 l 311 958 l 374 1286 l 590 1286 m 304 1286 l 75 958 l 121 1286 l 304 1286 z "},"#":{"ha":988,"x_min":35,"x_max":953,"o":"m 953 840 l 738 840 l 690 596 q 856 596 690 596 q 944 596 907 596 l 944 485 l 658 485 l 603 197 l 458 199 l 519 489 l 325 489 l 261 194 l 124 196 l 181 485 l 86 485 q 61 493 74 486 q 36 543 36 508 l 35 596 l 213 594 l 261 840 l 92 840 q 65 844 79 839 q 39 899 39 857 l 39 949 l 292 949 l 343 1188 l 488 1188 l 432 946 l 624 946 l 675 1179 l 817 1179 l 765 949 l 953 949 l 953 840 m 600 850 l 403 850 l 351 596 l 550 596 l 600 850 z "},"$":{"ha":824,"x_min":35,"x_max":789,"o":"m 789 954 q 751 914 761 926 q 710 861 769 936 q 643 914 667 897 q 590 940 614 933 q 590 822 590 940 q 590 711 590 711 q 732 649 679 700 q 788 513 788 594 q 726 367 788 422 q 590 308 675 321 l 590 153 l 468 153 q 469 176 469 157 q 471 292 472 214 q 421 286 442 289 q 382 285 397 285 l 383 150 l 267 151 q 265 204 267 175 q 263 290 264 264 q 136 324 188 294 q 35 414 89 350 q 80 449 68 440 q 122 488 92 457 q 188 426 151 449 q 263 401 224 404 q 263 531 263 401 q 263 647 263 647 q 113 719 163 665 q 64 865 63 774 q 131 1000 65 944 q 261 1060 186 1047 q 260 1154 258 1107 q 263 1192 261 1178 l 382 1192 q 381 1160 382 1181 q 381 1068 379 1118 q 428 1069 401 1069 q 471 1067 450 1069 q 469 1156 472 1111 q 468 1190 469 1178 l 586 1190 q 589 1158 588 1181 q 590 1056 590 1114 q 694 1022 651 1043 q 789 954 743 999 l 789 954 m 471 726 q 471 849 471 726 q 471 954 471 954 q 426 958 451 957 q 382 956 400 958 q 382 842 382 956 q 382 739 382 739 q 426 732 400 735 q 471 726 457 729 l 471 726 m 658 515 q 642 571 658 551 q 590 601 625 589 q 590 508 592 564 q 589 428 590 463 q 643 458 626 438 q 658 515 658 478 l 658 515 m 263 758 q 263 857 263 758 q 263 940 263 940 q 210 913 231 935 q 186 854 186 888 q 206 786 186 808 q 263 758 224 767 l 263 758 m 471 407 q 471 507 471 407 q 471 621 471 621 q 419 628 454 624 q 382 633 394 632 q 382 528 382 633 q 382 399 382 399 q 422 401 415 400 q 471 407 449 403 l 471 407 z "},"%":{"ha":944,"x_min":35,"x_max":910,"o":"m 460 990 q 406 853 460 910 q 256 789 347 789 q 103 853 161 789 q 49 990 49 910 q 103 1129 49 1072 q 256 1192 160 1192 q 406 1129 349 1192 q 460 990 460 1072 l 460 990 m 856 1025 l 121 225 l 35 303 l 765 1099 l 856 1025 m 910 394 q 856 257 910 314 q 706 193 797 193 q 553 257 611 193 q 499 394 499 314 q 553 535 499 478 q 706 596 610 596 q 856 535 799 596 q 910 394 910 476 l 910 394 m 329 917 q 356 988 363 947 q 313 1057 349 1024 q 250 1092 283 1088 q 186 1072 215 1097 q 160 1014 158 1050 q 186 943 161 981 q 256 897 215 907 q 329 917 299 888 l 329 917 m 782 311 q 806 381 813 339 q 764 454 800 421 q 701 489 735 483 q 639 474 667 496 q 611 413 611 450 q 636 340 611 375 q 706 293 665 303 q 782 311 749 282 l 782 311 z "},"&":{"ha":925,"x_min":35,"x_max":890,"o":"m 890 279 q 851 238 875 256 q 800 190 819 213 q 722 271 764 224 q 660 335 685 313 q 514 243 572 272 q 358 196 438 204 q 133 243 226 182 q 36 389 47 300 q 83 553 25 482 q 278 726 111 588 q 171 856 121 928 q 135 1000 125 921 q 211 1143 143 1090 q 378 1197 278 1194 q 557 1147 478 1200 q 650 976 650 1085 q 583 825 650 903 q 458 713 543 778 q 574 589 521 640 q 668 493 626 538 q 722 557 686 515 q 754 596 740 579 l 847 519 q 814 483 833 504 q 750 413 775 440 q 824 342 786 378 q 890 279 842 325 l 890 279 m 510 964 q 479 1047 510 1017 q 379 1081 446 1081 q 292 1056 324 1079 q 260 990 260 1031 q 292 890 260 938 q 376 799 314 860 q 463 874 432 840 q 510 964 510 925 l 510 964 m 583 413 q 463 540 536 461 q 363 644 393 614 q 235 549 306 593 q 163 436 165 506 q 201 351 163 386 q 322 313 246 311 q 456 342 390 315 q 583 413 514 364 l 583 413 z "},"'":{"ha":599,"x_min":174,"x_max":425,"o":"m 425 1194 l 285 864 l 174 1194 l 425 1194 z "},"(":{"ha":643,"x_min":129,"x_max":535,"o":"m 535 160 q 485 114 507 136 q 432 60 432 60 q 204 353 283 181 q 129 696 131 515 q 196 1040 128 874 q 379 1310 264 1203 q 425 1265 404 1282 q 486 1219 446 1247 q 318 981 376 1119 q 267 696 263 844 q 340 401 271 543 q 535 160 413 258 l 535 160 z "},")":{"ha":574,"x_min":108,"x_max":444,"o":"m 444 675 q 389 361 442 511 q 240 67 340 224 q 182 106 210 88 q 118 143 186 101 q 254 378 204 233 q 307 671 304 517 q 260 990 311 844 q 108 1214 206 1140 q 153 1258 142 1247 q 196 1310 172 1279 q 383 1040 318 1207 q 444 675 447 876 l 444 675 z "},"*":{"ha":747,"x_min":106,"x_max":643,"o":"m 624 1114 q 535 1068 583 1092 q 456 1031 493 1047 q 546 979 476 1017 q 618 932 590 953 q 628 850 668 901 q 540 835 586 799 q 483 888 518 853 q 418 953 418 953 q 426 896 422 924 q 436 811 431 868 q 372 757 442 757 q 311 815 304 756 q 321 881 315 849 q 332 946 326 914 q 265 879 272 886 q 215 835 229 844 q 125 846 167 796 q 126 926 83 894 q 213 974 147 942 q 303 1024 279 1007 q 207 1064 258 1042 q 132 1100 156 1088 q 113 1183 82 1126 q 197 1201 143 1239 q 271 1150 242 1171 q 336 1106 307 1125 q 321 1186 332 1139 q 308 1249 310 1232 q 375 1294 304 1294 q 444 1257 447 1296 q 433 1178 444 1225 q 414 1100 421 1132 q 492 1168 444 1126 q 549 1219 539 1211 q 626 1194 586 1251 q 624 1114 665 1138 l 624 1114 z "},"+":{"ha":1165,"x_min":104,"x_max":1061,"o":"m 1061 686 l 667 686 q 668 490 667 592 q 668 260 668 289 q 642 201 668 218 q 593 189 624 189 l 510 189 l 510 686 l 190 686 q 147 696 169 686 q 104 758 104 714 l 104 789 l 510 789 q 510 922 510 853 q 510 1088 510 1088 q 500 1122 510 1117 q 460 1125 493 1125 l 426 1125 l 426 1153 q 496 1174 457 1163 q 621 1208 574 1196 q 664 1168 654 1215 q 667 1118 668 1143 l 667 789 l 1061 789 l 1061 686 z "},",":{"ha":378,"x_min":76,"x_max":301,"o":"m 301 228 q 231 93 300 142 q 76 53 167 49 q 82 103 82 76 q 83 151 83 146 q 154 169 129 153 q 185 213 178 183 l 79 213 l 79 403 l 301 403 l 301 228 z "},"-":{"ha":1068,"x_min":104,"x_max":964,"o":"m 964 549 l 203 550 q 154 553 178 546 q 104 619 104 567 q 104 660 104 619 q 104 692 104 676 l 964 692 l 964 549 z "},".":{"ha":393,"x_min":94,"x_max":299,"o":"m 299 157 l 94 157 l 94 361 l 299 361 l 299 157 z "},"/":{"ha":706,"x_min":35,"x_max":671,"o":"m 671 1135 l 144 214 l 35 279 l 547 1188 l 671 1135 z "},":":{"ha":428,"x_min":115,"x_max":313,"o":"m 313 675 l 115 675 l 115 900 l 313 900 l 313 675 m 313 242 l 115 242 l 115 467 l 313 467 l 313 242 z "},";":{"ha":438,"x_min":115,"x_max":322,"o":"m 313 675 l 115 675 l 115 900 l 313 900 l 313 675 m 322 456 l 321 290 q 276 186 315 218 q 150 142 240 157 q 149 194 150 168 q 147 235 147 222 q 197 253 179 242 q 218 276 213 263 q 156 275 190 275 q 125 274 138 274 l 125 456 l 322 456 z "},"<":{"ha":1011,"x_min":86,"x_max":925,"o":"m 925 247 q 881 194 894 208 q 832 139 868 179 q 457 403 692 228 q 86 688 242 561 q 493 968 182 756 q 803 1183 757 1149 q 852 1135 833 1157 q 893 1088 871 1113 q 622 899 854 1061 q 303 678 406 746 q 608 457 425 585 q 925 247 801 324 l 925 247 z "},"=":{"ha":1140,"x_min":104,"x_max":1036,"o":"m 1036 790 l 185 790 q 146 800 165 790 q 107 867 107 819 q 106 911 107 882 q 104 936 106 925 l 1036 936 l 1036 790 m 1036 317 l 200 319 q 154 333 176 324 q 107 392 107 356 q 106 439 107 411 q 104 464 106 454 l 1036 464 l 1036 317 z "},">":{"ha":1036,"x_min":86,"x_max":950,"o":"m 950 667 q 494 368 751 526 q 150 149 240 213 q 117 217 90 268 q 86 281 103 243 q 394 464 256 379 q 706 667 572 575 q 363 912 536 788 q 94 1096 189 1036 q 139 1149 90 1092 q 174 1196 156 1167 q 547 943 260 1142 q 950 667 864 724 l 950 667 z "},"?":{"ha":785,"x_min":64,"x_max":721,"o":"m 719 878 q 649 715 706 778 q 503 592 631 694 q 404 496 435 539 q 367 374 367 442 q 300 374 347 374 q 240 375 265 372 q 275 538 238 465 q 379 661 308 604 q 531 783 497 750 q 586 894 575 832 q 532 1031 597 972 q 372 1083 465 1089 q 247 1033 288 1078 q 192 901 211 994 q 132 904 158 904 q 64 904 93 903 q 142 1107 68 1025 q 360 1203 222 1197 q 632 1118 526 1210 q 719 878 740 1022 l 719 878 m 397 117 l 200 118 l 200 319 l 397 319 l 397 117 z "},"@":{"ha":1142,"x_min":35,"x_max":1107,"o":"m 1104 881 q 1090 672 1113 764 q 975 472 1061 543 q 818 401 892 408 q 713 436 751 396 q 604 367 656 382 q 490 364 558 353 q 317 482 374 383 q 279 703 263 574 q 428 944 300 883 q 713 956 538 996 q 722 989 717 971 q 726 1006 725 999 l 858 1006 q 821 756 828 800 q 786 543 799 614 q 801 531 786 526 q 829 536 815 535 q 940 632 900 550 q 978 824 981 710 q 868 1063 972 976 q 619 1144 771 1142 q 318 1017 456 1151 q 160 668 172 875 q 275 358 150 489 q 578 228 399 231 q 851 301 740 226 q 975 436 924 351 q 1029 401 994 425 q 1092 365 1058 381 q 851 144 1014 213 q 497 110 690 75 q 161 275 274 154 q 35 653 35 410 q 232 1106 46 933 q 614 1257 397 1257 q 958 1143 817 1257 q 1104 881 1094 1033 l 1104 881 m 686 654 q 682 796 700 746 q 572 868 658 863 q 454 821 494 869 q 410 701 422 781 q 424 547 396 606 q 518 478 451 488 q 636 525 593 469 q 686 654 672 569 l 686 654 z "},"A":{"ha":1076,"x_min":35,"x_max":1042,"o":"m 1032 265 q 1017 197 1060 218 q 967 185 994 186 q 850 185 939 185 q 767 183 806 183 l 767 250 q 836 256 821 250 q 843 269 847 260 q 800 376 833 293 q 753 490 769 453 q 549 490 753 490 q 401 490 401 490 q 333 354 375 436 q 281 251 288 265 q 246 203 254 210 q 190 183 226 183 q 118 183 172 183 q 35 182 64 182 l 35 249 q 100 276 79 257 q 119 307 110 286 q 364 804 267 596 q 489 1100 465 1021 q 489 1115 493 1110 q 472 1121 483 1119 q 428 1119 454 1118 q 404 1121 414 1119 l 404 1194 q 521 1197 460 1196 q 675 1194 643 1199 q 725 1176 711 1194 q 722 1122 740 1157 l 679 1042 q 819 733 692 1014 q 1032 265 963 421 l 1032 265 m 713 599 q 650 775 686 683 q 594 921 611 871 q 518 754 593 919 q 447 600 479 672 l 713 599 z "},"B":{"ha":910,"x_min":35,"x_max":875,"o":"m 875 458 q 875 439 875 444 q 872 419 874 428 q 776 249 860 319 q 635 188 704 188 q 451 189 614 188 q 214 189 289 189 q 144 213 176 189 q 104 288 104 240 q 104 672 104 288 q 104 1097 104 1097 q 108 1126 104 1104 q 88 1147 111 1149 q 57 1147 88 1147 q 35 1147 44 1147 l 35 1197 q 104 1194 68 1196 q 194 1197 178 1193 q 244 1182 229 1197 q 261 1131 261 1167 l 261 764 q 412 763 308 764 q 518 764 515 763 q 601 824 568 765 q 628 947 632 879 q 590 1044 624 1006 q 501 1088 556 1088 l 292 1088 q 303 1139 293 1113 q 374 1197 324 1190 q 474 1197 422 1197 q 592 1196 576 1197 q 743 1124 686 1188 q 803 981 793 1067 q 792 833 813 907 q 731 724 771 763 q 856 589 824 678 q 875 458 874 542 l 875 458 m 697 458 q 661 592 700 533 q 553 654 618 654 l 263 654 q 263 475 263 654 q 263 335 263 335 q 279 304 263 311 q 314 299 290 299 l 581 299 q 660 349 625 300 q 697 458 694 397 l 697 458 z "},"C":{"ha":865,"x_min":35,"x_max":831,"o":"m 831 539 q 718 276 814 365 q 488 185 635 199 q 197 288 329 172 q 35 653 43 419 q 142 1076 25 940 q 467 1201 249 1201 q 735 1082 632 1201 q 822 864 819 982 q 732 864 713 864 q 668 867 707 864 q 588 1017 649 967 q 457 1064 536 1061 q 258 976 332 1067 q 188 744 188 889 q 283 414 188 521 q 490 335 364 325 q 619 388 572 344 q 679 536 675 439 q 751 538 708 536 q 831 539 794 539 l 831 539 z "},"D":{"ha":924,"x_min":35,"x_max":889,"o":"m 889 688 q 886 646 889 669 q 879 606 886 653 q 731 293 856 415 q 513 189 622 189 l 217 189 q 136 197 151 189 q 108 274 108 211 q 108 644 108 449 q 108 1133 108 1133 q 106 1150 108 1144 q 85 1157 100 1158 q 56 1157 76 1156 q 35 1157 44 1157 l 35 1210 q 104 1208 68 1208 q 194 1210 178 1207 q 246 1193 229 1210 q 261 1139 261 1175 l 261 357 q 274 322 261 332 q 311 313 286 313 q 396 311 354 310 q 475 313 467 313 q 656 428 589 318 q 722 717 722 538 q 664 946 717 840 q 503 1074 600 1072 q 399 1076 374 1076 q 303 1074 344 1076 q 333 1158 299 1119 q 397 1193 365 1193 q 481 1193 461 1193 q 538 1197 501 1194 q 768 1076 669 1190 q 889 688 889 935 l 889 688 z "},"E":{"ha":1000,"x_min":35,"x_max":965,"o":"m 878 1083 l 303 1083 q 328 1179 303 1160 q 390 1193 339 1188 l 878 1193 l 878 1083 m 965 413 q 903 301 938 357 q 803 189 835 190 q 518 189 663 189 q 206 188 228 188 q 138 213 163 188 q 113 279 113 236 q 113 765 113 279 q 113 1121 113 1121 q 108 1135 113 1132 q 92 1136 106 1136 l 35 1136 l 35 1192 q 106 1193 67 1193 q 217 1194 183 1194 q 282 1181 272 1194 q 285 1146 285 1178 q 288 938 286 1088 q 288 749 288 858 l 817 749 l 817 629 l 289 629 q 290 474 289 599 q 290 340 290 349 q 303 315 290 324 q 331 310 313 310 q 526 311 424 311 q 772 310 729 311 q 886 363 801 313 q 965 413 929 388 l 965 413 z "},"F":{"ha":903,"x_min":35,"x_max":868,"o":"m 868 1076 l 307 1076 q 333 1171 307 1151 q 396 1186 342 1179 l 868 1186 l 868 1076 m 807 650 l 293 650 q 294 447 293 613 q 294 268 294 282 q 279 197 294 218 q 218 174 261 174 l 119 174 q 119 718 119 174 q 119 1121 119 1121 q 114 1135 119 1133 q 96 1136 111 1136 l 35 1136 l 35 1189 q 106 1186 67 1188 q 215 1189 183 1185 q 283 1176 269 1194 q 289 1135 289 1168 q 292 942 290 1078 q 292 769 292 869 l 807 769 l 807 650 z "},"G":{"ha":913,"x_min":35,"x_max":878,"o":"m 878 533 l 811 533 q 813 394 811 506 q 813 264 813 283 q 789 201 813 218 q 739 188 772 188 l 668 188 l 667 253 q 572 203 615 218 q 472 186 528 189 q 188 275 308 179 q 35 622 42 392 q 142 1058 25 913 q 467 1197 251 1197 q 735 1078 632 1197 q 822 861 818 979 q 732 861 751 861 q 668 865 713 863 q 588 1014 649 964 q 457 1060 535 1057 q 258 960 333 1064 q 188 714 188 863 q 274 394 188 490 q 471 325 344 314 q 597 379 547 333 q 660 535 660 435 q 638 531 650 529 q 613 535 625 533 q 582 542 596 535 q 554 590 556 556 l 553 631 l 878 628 l 878 533 z "},"H":{"ha":988,"x_min":35,"x_max":953,"o":"m 953 283 q 936 208 953 229 q 882 189 921 189 l 779 188 l 779 678 l 290 678 q 290 467 290 678 q 290 278 290 278 q 271 210 290 232 q 208 188 250 188 l 114 188 q 114 617 114 400 q 114 1079 114 1079 q 111 1097 114 1089 q 94 1114 104 1115 l 35 1113 l 35 1149 q 103 1167 65 1157 q 215 1197 178 1188 q 272 1186 256 1206 q 288 1128 288 1169 l 288 799 l 776 799 l 776 1075 q 776 1096 778 1085 q 765 1115 775 1115 l 696 1115 l 694 1156 q 758 1168 722 1161 q 865 1193 829 1183 q 931 1196 910 1210 q 953 1131 953 1181 q 953 731 953 935 q 953 283 953 283 l 953 283 z "},"I":{"ha":314,"x_min":35,"x_max":279,"o":"m 279 1131 q 279 704 279 919 q 278 258 279 274 q 260 208 278 225 q 203 189 240 190 l 119 189 q 121 565 121 368 q 118 1061 121 963 q 117 1085 115 1086 q 96 1096 113 1096 l 35 1097 l 35 1132 q 108 1158 71 1144 q 199 1192 185 1186 q 256 1193 233 1207 q 279 1131 279 1178 l 279 1131 z "},"J":{"ha":757,"x_min":35,"x_max":722,"o":"m 557 1044 q 556 1068 554 1069 q 535 1079 551 1079 l 474 1081 l 474 1115 q 547 1142 510 1128 q 638 1175 624 1169 q 694 1176 672 1190 q 719 1114 718 1161 q 721 832 721 975 q 722 521 722 544 q 621 265 722 358 q 392 175 532 185 q 186 226 281 168 q 35 507 51 311 l 169 507 q 254 340 181 397 q 396 297 317 290 q 504 361 458 304 q 556 522 556 425 q 560 803 560 675 q 557 1044 560 922 l 557 1044 z "},"K":{"ha":939,"x_min":35,"x_max":904,"o":"m 904 193 l 701 193 q 558 406 665 249 q 389 663 469 536 q 307 593 346 628 q 267 557 349 629 q 268 397 268 507 q 265 260 268 274 q 246 210 265 226 q 186 192 225 192 l 104 190 q 104 560 104 365 q 103 1047 104 949 q 102 1075 101 1058 q 83 1093 103 1092 l 35 1094 l 35 1132 q 100 1158 67 1144 q 182 1192 169 1186 q 238 1192 217 1206 q 261 1129 261 1178 l 261 749 q 472 953 389 857 q 649 1147 556 1050 l 853 1147 q 656 935 844 1138 q 494 757 550 821 q 721 443 579 633 q 904 193 865 251 l 904 193 z "},"L":{"ha":1064,"x_min":35,"x_max":1029,"o":"m 1029 397 q 989 276 1010 318 q 918 211 958 217 q 585 210 754 210 q 218 207 246 207 q 153 231 176 207 q 125 311 125 257 q 126 765 125 474 q 126 1064 126 1056 q 118 1085 126 1078 q 96 1089 110 1089 l 35 1089 l 35 1129 q 115 1156 74 1142 q 211 1188 199 1182 q 268 1189 246 1203 q 292 1126 292 1174 q 292 753 292 942 q 292 361 292 361 q 303 328 292 338 q 332 319 313 319 q 656 319 332 319 q 886 319 886 319 q 971 358 907 319 q 1029 397 1001 378 l 1029 397 z "},"M":{"ha":1049,"x_min":35,"x_max":1014,"o":"m 1014 285 q 994 215 1014 239 q 932 190 974 190 l 858 190 l 858 943 q 731 553 807 786 q 610 199 654 321 q 546 199 583 199 q 419 199 419 199 q 308 537 375 310 q 189 928 240 764 q 188 529 189 769 q 188 274 188 289 q 168 210 188 233 q 118 186 149 186 l 35 186 l 35 1194 q 88 1194 60 1194 q 164 1196 144 1194 q 221 1188 201 1200 q 268 1115 247 1169 q 389 771 313 1003 q 517 381 513 394 q 669 817 574 531 q 793 1192 710 935 l 942 1192 q 999 1169 981 1192 q 1014 1104 1014 1149 q 1014 644 1014 1104 q 1014 285 1014 285 l 1014 285 z "},"N":{"ha":853,"x_min":35,"x_max":819,"o":"m 815 260 q 785 194 814 213 q 731 183 765 183 q 667 183 731 183 q 629 183 646 183 q 375 597 519 335 q 186 938 203 911 q 188 608 186 868 q 188 275 188 349 q 172 214 188 238 q 125 189 156 189 l 35 189 l 35 1188 q 93 1190 54 1189 q 128 1192 113 1192 q 186 1181 161 1192 q 239 1129 218 1165 q 414 815 269 1082 q 661 417 538 586 q 661 779 661 889 q 658 1065 661 964 q 657 1089 656 1090 q 636 1100 653 1100 l 575 1101 l 575 1136 q 649 1163 611 1149 q 739 1196 725 1190 q 793 1197 774 1211 q 815 1135 815 1182 q 818 818 817 997 q 815 260 819 461 l 815 260 z "},"O":{"ha":1038,"x_min":35,"x_max":1003,"o":"m 1003 710 q 883 326 1010 465 q 501 182 753 182 q 172 338 313 182 q 35 697 35 490 q 186 1058 36 910 q 501 1197 326 1197 q 860 1046 714 1197 q 1003 710 997 901 l 1003 710 m 832 693 q 740 967 828 856 q 515 1083 650 1083 q 293 967 381 1083 q 208 693 208 854 q 286 414 208 519 q 515 303 368 303 q 749 414 658 303 q 832 693 836 524 l 832 693 z "},"P":{"ha":951,"x_min":35,"x_max":917,"o":"m 915 925 q 917 906 917 918 q 917 886 917 893 q 839 671 918 743 q 649 603 771 610 q 517 601 592 601 q 271 600 365 599 q 271 433 271 600 q 271 246 271 246 q 249 183 271 203 q 200 169 232 169 q 157 169 203 169 q 110 169 129 168 q 113 696 113 282 q 113 1121 113 486 q 113 1151 113 1149 q 97 1167 110 1167 l 35 1165 l 35 1207 q 96 1208 63 1207 q 200 1210 164 1208 q 249 1199 235 1210 q 271 1129 271 1182 l 271 707 q 460 706 344 704 q 617 704 574 706 q 725 765 686 706 q 756 926 763 826 q 704 1038 750 993 q 515 1099 642 1100 q 408 1097 456 1097 q 329 1100 468 1097 q 335 1153 308 1100 q 410 1206 361 1206 q 483 1203 463 1204 q 507 1204 500 1203 q 833 1115 733 1208 q 915 925 904 1049 l 915 925 z "},"Q":{"ha":1053,"x_min":35,"x_max":1018,"o":"m 1018 272 q 978 213 999 242 q 936 160 938 153 q 871 196 908 175 q 750 263 796 238 q 622 201 699 226 q 492 176 547 176 q 149 340 275 176 q 35 697 35 486 q 143 1046 35 910 q 481 1197 263 1197 q 829 1054 701 1197 q 951 710 949 921 q 917 511 953 614 q 842 358 886 425 q 960 300 890 332 q 1018 272 993 283 l 1018 272 m 796 710 q 715 953 792 857 q 485 1057 631 1057 q 258 946 339 1057 q 185 697 185 847 q 263 443 185 550 q 494 322 350 322 q 546 326 524 322 q 596 343 569 331 q 536 374 578 351 q 497 393 515 385 l 563 508 q 625 474 592 492 q 717 429 692 438 q 772 531 753 469 q 796 710 797 607 l 796 710 z "},"R":{"ha":956,"x_min":35,"x_max":921,"o":"m 921 186 q 785 186 860 186 q 722 185 747 185 q 640 372 704 213 q 528 650 576 531 q 376 651 488 650 q 274 653 321 653 q 274 471 272 603 q 275 274 275 306 q 263 207 275 226 q 204 183 246 183 q 146 183 204 183 q 115 183 129 183 q 115 610 115 394 q 114 1072 114 1043 q 114 1108 114 1107 q 86 1131 110 1131 l 35 1131 l 35 1186 q 100 1188 64 1186 q 207 1189 171 1188 q 253 1174 238 1189 q 274 1103 272 1153 q 275 924 274 1063 q 275 761 275 785 q 428 760 347 760 q 636 758 589 757 q 724 819 688 760 q 754 925 754 871 q 707 1046 750 1000 q 615 1086 668 1085 q 488 1085 556 1086 q 318 1085 354 1083 q 325 1138 299 1085 q 399 1189 350 1189 q 564 1186 446 1186 q 674 1188 624 1188 q 836 1131 771 1188 q 915 933 915 1063 q 847 735 915 811 q 688 651 785 663 q 812 388 740 546 q 921 186 883 231 l 921 186 z "},"S":{"ha":800,"x_min":35,"x_max":765,"o":"m 765 1006 l 642 915 q 533 1022 592 986 q 421 1064 482 1056 q 293 1047 340 1075 q 229 957 249 1021 q 258 821 203 868 q 471 764 317 769 q 729 615 657 754 q 744 382 792 497 q 592 214 697 264 q 371 182 499 168 q 163 254 254 189 q 35 371 132 275 l 151 478 q 306 347 232 375 q 485 342 372 321 q 606 500 621 368 q 431 631 590 632 q 98 777 142 629 q 72 981 54 925 q 224 1172 118 1118 q 433 1207 310 1217 q 617 1140 525 1200 q 765 1006 699 1088 l 765 1006 z "},"T":{"ha":971,"x_min":35,"x_max":936,"o":"m 936 1076 q 807 1076 882 1076 q 561 1076 660 1078 q 564 588 564 935 q 563 269 564 414 q 551 206 564 226 q 511 186 538 186 q 471 185 494 185 q 400 182 426 182 q 401 775 403 426 q 400 1075 401 950 q 238 1076 364 1075 q 113 1076 113 1076 q 60 1090 76 1076 q 35 1153 35 1107 q 35 1169 35 1165 q 38 1197 38 1197 l 936 1197 l 936 1076 z "},"U":{"ha":933,"x_min":35,"x_max":899,"o":"m 899 1126 l 897 504 q 782 258 897 356 q 525 165 675 168 q 256 247 368 161 q 119 540 119 349 q 118 808 118 674 q 115 1089 115 1079 q 111 1099 115 1094 q 94 1107 106 1108 l 35 1107 q 35 1117 35 1111 q 35 1144 35 1144 q 97 1163 63 1153 q 204 1192 167 1182 q 261 1183 244 1201 q 276 1122 276 1167 l 275 499 q 356 333 275 396 q 510 282 424 281 q 660 343 588 285 q 733 476 735 406 l 735 1085 q 735 1097 736 1090 q 724 1108 733 1108 l 653 1108 l 653 1150 q 711 1164 678 1156 q 813 1189 776 1179 q 879 1190 858 1204 q 899 1126 900 1175 l 899 1126 z "},"V":{"ha":906,"x_min":35,"x_max":872,"o":"m 869 1106 l 572 192 l 407 192 l 104 1113 q 99 1121 103 1117 q 76 1129 92 1131 l 35 1128 l 35 1179 q 104 1181 69 1181 q 185 1182 176 1182 q 232 1157 210 1182 q 249 1132 243 1144 l 489 410 l 701 1126 q 701 1133 703 1129 q 693 1139 700 1139 l 632 1138 l 632 1182 q 713 1182 671 1182 q 817 1182 817 1182 q 860 1161 844 1182 q 869 1106 875 1140 l 869 1106 z "},"W":{"ha":1229,"x_min":35,"x_max":1196,"o":"m 1193 1117 l 1088 278 q 1068 231 1082 254 q 1001 189 1042 185 l 867 188 q 761 551 844 256 q 635 982 675 851 q 529 599 490 464 q 422 256 465 375 q 397 211 410 226 q 342 186 374 183 l 208 185 l 104 1131 q 99 1139 103 1135 q 75 1146 90 1147 l 35 1144 l 35 1196 q 108 1197 71 1196 q 193 1197 185 1197 q 239 1172 218 1197 q 256 1146 250 1158 l 326 425 q 438 828 364 543 q 533 1188 517 1132 q 658 1186 583 1186 q 724 1188 696 1188 q 840 811 756 1096 q 960 414 931 501 l 1036 1132 q 1036 1140 1038 1136 q 1028 1147 1036 1147 l 969 1146 l 969 1192 q 1043 1192 1004 1192 q 1140 1192 1140 1192 q 1185 1172 1169 1192 q 1193 1117 1199 1153 l 1193 1117 z "},"X":{"ha":1050,"x_min":35,"x_max":1015,"o":"m 1015 189 l 803 189 q 693 357 779 221 q 540 579 617 478 q 367 350 499 525 q 242 188 300 264 q 113 186 199 186 q 35 188 69 188 q 201 383 113 276 q 447 692 382 597 q 271 942 376 789 q 115 1171 183 1068 q 188 1174 149 1172 q 296 1172 267 1176 q 400 1017 321 1131 q 542 806 496 875 q 657 1006 601 900 q 747 1175 713 1111 l 942 1176 q 807 956 911 1131 q 639 688 707 785 q 832 428 669 649 q 1015 189 939 281 l 1015 189 z "},"Y":{"ha":951,"x_min":35,"x_max":917,"o":"m 917 1190 q 733 923 825 1067 q 567 665 642 779 q 568 472 567 571 q 568 256 568 275 q 535 194 568 213 q 501 186 518 186 l 418 185 q 417 406 418 293 q 417 653 415 631 q 240 907 378 701 q 35 1196 107 1107 l 217 1196 q 331 1028 243 1161 q 486 800 428 882 q 650 1051 554 893 q 732 1190 699 1131 q 849 1193 772 1196 q 917 1190 888 1193 l 917 1190 z "},"Z":{"ha":906,"x_min":35,"x_max":871,"o":"m 871 392 q 842 292 860 342 q 769 189 804 190 l 115 189 q 75 203 96 192 q 35 261 35 224 q 36 310 35 276 q 36 358 36 342 q 310 701 153 483 q 581 1069 467 918 q 364 1070 503 1071 q 143 1069 225 1069 q 86 1078 100 1069 q 63 1139 63 1090 q 64 1169 64 1150 q 64 1186 64 1179 q 388 1185 133 1183 q 743 1183 667 1185 q 808 1143 801 1181 q 765 1032 814 1104 q 503 681 678 917 q 228 313 321 436 q 586 312 476 310 q 717 314 696 314 q 806 353 736 314 q 871 392 840 372 l 871 392 z "},"[":{"ha":807,"x_min":129,"x_max":699,"o":"m 699 1176 q 515 1178 661 1178 q 378 1178 443 1178 q 386 1272 367 1240 q 444 1300 404 1300 l 694 1300 q 699 1231 697 1257 q 699 1176 699 1172 l 699 1176 m 679 49 q 482 49 582 49 q 260 49 260 49 q 200 71 219 49 q 181 140 181 93 l 181 1210 q 184 1236 181 1224 q 175 1247 188 1249 l 129 1247 l 129 1310 q 182 1310 153 1310 q 274 1310 274 1310 q 335 1292 324 1308 q 340 1249 340 1285 q 340 719 340 1249 q 340 204 340 204 q 349 176 340 183 q 369 172 354 172 l 679 172 l 679 49 z "},"\\":{"ha":1232,"x_min":35,"x_max":1197,"o":"m 1197 772 q 1139 772 1172 772 q 1029 772 1029 772 q 1026 750 1028 760 q 1024 728 1025 739 l 1190 728 q 1192 650 1193 699 q 1190 608 1192 626 l 1003 608 q 974 408 992 536 q 935 185 956 279 q 838 186 894 185 q 789 188 810 188 q 736 390 771 242 q 682 608 696 560 q 626 608 682 608 q 563 608 563 608 q 517 389 539 501 q 478 185 494 275 q 415 185 478 185 q 344 186 385 185 q 294 413 332 244 q 251 608 261 560 l 110 610 q 72 615 92 608 q 35 669 35 629 l 35 722 l 226 722 q 221 749 224 735 q 217 778 219 761 q 163 779 200 778 q 108 779 125 779 q 72 779 90 774 q 35 842 35 789 l 35 896 q 99 896 64 896 q 192 896 167 894 q 168 1053 183 947 q 140 1197 153 1158 q 204 1196 171 1196 q 285 1200 269 1196 q 308 1047 294 1136 q 332 896 325 942 l 486 896 q 521 1044 500 940 q 549 1193 497 924 q 594 1194 568 1194 q 682 1193 649 1196 q 711 1038 697 1108 q 746 890 731 942 q 846 890 746 890 q 917 890 917 890 q 942 1047 928 949 q 960 1193 956 1143 q 1044 1192 989 1192 q 1094 1193 1072 1193 q 1072 1042 1088 1151 q 1049 890 1054 926 q 1143 892 1082 890 q 1197 893 1174 893 q 1197 842 1197 868 q 1197 772 1197 772 l 1197 772 m 900 776 q 840 776 900 776 q 774 776 774 776 q 782 749 778 763 q 789 722 786 735 q 844 724 814 722 q 892 725 872 724 q 896 753 893 739 q 900 776 897 764 l 900 776 m 633 890 q 636 917 638 904 q 631 950 638 900 l 597 949 q 594 913 594 926 q 594 894 593 900 q 622 893 606 894 q 633 890 639 890 l 633 890 m 868 608 q 843 608 868 608 q 817 608 817 608 q 833 536 846 483 q 851 465 843 494 q 861 542 856 499 q 868 608 863 563 l 868 608 m 654 722 q 649 747 653 729 q 642 776 644 765 q 615 776 642 776 q 592 776 592 776 q 589 749 590 767 q 585 721 586 731 q 622 721 610 721 q 654 722 642 721 l 654 722 m 464 776 q 403 776 464 776 q 354 776 354 776 q 358 749 356 771 q 363 722 361 732 q 412 722 386 721 q 451 722 438 722 q 458 751 456 735 q 464 776 463 772 l 464 776 m 432 608 q 410 608 432 608 q 388 608 388 608 q 399 547 392 588 q 411 481 407 501 q 424 551 419 529 q 432 608 429 588 l 432 608 z "},"]":{"ha":758,"x_min":108,"x_max":629,"o":"m 419 1188 q 338 1186 383 1186 q 189 1186 243 1185 q 121 1200 136 1186 q 108 1250 106 1211 q 111 1275 108 1258 q 114 1301 113 1292 l 418 1301 q 421 1256 422 1210 q 419 1188 421 1244 l 419 1188 m 629 139 q 608 69 629 93 q 549 47 589 47 q 328 47 549 47 q 131 47 228 47 l 131 169 l 439 169 q 461 174 454 169 q 469 201 469 181 q 469 736 469 201 q 469 1296 469 1296 q 497 1300 481 1299 q 568 1306 532 1304 q 624 1289 615 1306 q 629 1201 629 1278 l 629 139 z "},"^":{"ha":588,"x_min":35,"x_max":553,"o":"m 553 1014 l 453 961 l 285 1156 l 114 960 l 35 1008 q 93 1101 60 1047 q 210 1290 161 1210 q 286 1292 215 1290 q 357 1290 328 1293 l 553 1014 z "},"_":{"ha":976,"x_min":35,"x_max":942,"o":"m 942 72 l 143 72 q 83 79 103 72 q 35 144 35 96 l 35 226 l 942 226 l 942 72 z "},"`":{"ha":628,"x_min":164,"x_max":464,"o":"m 464 982 l 164 1313 l 411 1313 l 464 982 z "},"a":{"ha":725,"x_min":35,"x_max":690,"o":"m 689 190 q 568 194 608 186 q 493 244 515 206 q 201 167 299 160 q 43 329 74 174 q 164 631 0 553 q 479 685 246 669 q 438 790 481 761 q 354 811 413 807 q 271 796 303 813 q 217 729 233 776 l 35 731 q 233 932 101 886 q 460 943 322 963 q 618 756 590 925 q 628 386 628 699 q 640 344 626 353 q 688 351 654 335 q 690 243 692 304 q 689 190 690 213 l 689 190 m 478 585 q 251 535 326 582 q 188 389 171 485 q 249 304 207 322 q 475 357 319 275 q 478 475 478 396 q 478 585 478 432 l 478 585 z "},"b":{"ha":733,"x_min":35,"x_max":699,"o":"m 699 557 q 697 539 699 550 q 694 519 694 519 q 589 283 685 364 q 415 218 514 221 q 325 222 358 217 q 242 251 282 231 q 242 233 242 251 q 242 217 242 217 q 225 186 242 196 q 179 175 208 175 l 83 175 l 83 1007 q 83 1021 85 1014 q 63 1033 81 1033 l 35 1033 l 35 1075 q 99 1089 64 1082 q 194 1108 168 1103 q 231 1108 222 1114 q 246 1060 246 1100 q 246 932 246 1021 q 244 818 244 843 q 313 850 290 844 q 418 861 343 858 q 613 779 529 867 q 699 557 697 690 l 699 557 m 564 546 q 526 706 565 653 q 414 757 490 754 q 306 739 353 760 q 246 675 251 717 l 246 375 q 321 333 285 343 q 393 325 339 328 q 510 371 464 322 q 564 546 565 429 l 564 546 z "},"c":{"ha":779,"x_min":35,"x_max":744,"o":"m 744 671 q 656 669 713 671 q 590 671 625 668 q 518 811 571 769 q 394 850 474 847 q 246 797 301 854 q 185 614 185 733 q 249 389 185 461 q 406 329 306 326 q 528 363 483 332 q 593 472 578 397 q 661 472 593 472 q 740 472 740 472 q 644 268 721 344 q 429 185 561 186 q 151 278 260 183 q 35 553 33 379 q 124 878 38 775 q 404 985 213 982 q 664 878 569 988 q 744 671 742 789 l 744 671 z "},"d":{"ha":683,"x_min":35,"x_max":649,"o":"m 649 232 q 624 181 649 196 q 579 169 606 169 l 488 169 l 488 243 q 408 219 440 226 q 315 211 363 210 q 128 281 200 214 q 35 550 35 367 q 119 771 35 682 q 314 854 201 856 q 414 843 374 853 q 488 813 444 835 l 488 1024 q 479 1040 486 1032 q 442 1057 467 1057 q 440 1072 442 1063 q 439 1103 439 1089 q 528 1114 472 1106 q 600 1124 585 1121 q 644 1104 633 1132 q 649 1075 650 1090 l 649 232 m 488 378 l 488 678 q 400 719 460 706 q 308 729 357 729 q 206 669 239 726 q 176 542 178 621 q 221 378 175 426 q 340 333 258 338 q 414 339 385 331 q 488 378 451 347 l 488 378 z "},"e":{"ha":776,"x_min":35,"x_max":742,"o":"m 742 453 q 613 249 689 310 q 417 181 539 189 q 131 303 238 181 q 35 569 35 413 q 125 839 35 728 q 386 963 224 963 q 679 792 592 963 q 739 513 736 682 q 497 515 703 515 q 186 514 332 515 q 250 386 194 444 q 410 317 315 317 q 528 360 482 317 q 578 453 567 396 l 742 453 m 578 621 q 529 760 572 696 q 393 836 476 836 q 260 781 311 836 q 196 624 206 724 q 350 622 239 622 q 578 621 465 621 l 578 621 z "},"f":{"ha":629,"x_min":35,"x_max":594,"o":"m 594 724 l 360 724 q 360 465 360 724 q 360 260 360 260 q 335 200 360 218 q 293 189 319 189 l 206 189 l 206 724 q 142 724 210 724 q 93 724 100 725 q 47 733 58 724 q 35 778 35 744 l 35 846 q 103 846 65 846 q 206 846 176 847 q 204 907 206 854 q 206 960 204 936 q 328 1124 213 1086 q 553 1140 394 1144 q 551 1078 551 1100 q 550 1007 550 1013 q 426 1006 483 1019 q 360 953 364 990 q 360 901 360 917 q 358 846 360 876 q 510 847 415 846 q 594 847 558 847 l 594 724 z "},"g":{"ha":701,"x_min":35,"x_max":667,"o":"m 667 885 q 664 593 667 693 q 643 346 658 415 q 568 149 624 224 q 400 58 503 64 q 178 93 253 49 q 35 272 104 136 q 96 271 63 271 q 164 272 136 271 q 242 181 199 204 q 354 163 281 160 q 474 236 426 165 q 531 413 517 301 q 453 360 493 376 q 354 343 411 343 q 110 425 186 343 q 40 642 40 499 q 131 847 40 774 q 354 917 215 917 q 453 903 400 917 q 553 868 485 893 q 551 903 553 893 q 549 919 551 906 q 579 919 549 919 q 608 919 608 919 q 649 921 657 919 q 667 885 667 918 l 667 885 m 522 629 q 469 758 522 713 q 353 799 422 797 q 229 756 278 799 q 175 629 175 708 q 231 503 175 549 q 354 463 281 463 q 483 507 442 463 q 522 629 522 549 l 522 629 z "},"h":{"ha":686,"x_min":35,"x_max":651,"o":"m 651 601 q 651 450 651 529 q 650 268 650 294 q 621 192 651 207 q 589 189 606 185 l 508 189 q 510 271 508 215 q 510 524 510 382 q 471 638 510 593 q 378 686 435 681 q 267 668 315 693 q 215 606 217 644 q 215 442 215 606 q 215 261 215 261 q 183 199 215 218 q 150 189 167 190 l 74 189 l 74 1011 q 78 1028 76 1019 q 64 1044 78 1044 l 35 1044 l 35 1079 q 104 1096 61 1085 q 163 1113 144 1107 q 204 1110 192 1121 q 215 1061 215 1097 l 215 764 q 308 808 267 796 q 401 819 353 822 q 576 747 503 811 q 651 601 651 683 l 651 601 z "},"i":{"ha":281,"x_min":35,"x_max":246,"o":"m 246 928 l 78 928 l 78 1104 l 246 1104 l 246 928 m 246 263 q 225 200 246 221 q 182 183 208 183 l 78 183 l 78 736 q 81 758 81 747 q 71 781 82 781 l 35 781 l 35 824 q 106 838 68 831 q 192 854 178 853 q 238 842 224 863 q 246 818 246 831 q 246 510 246 818 q 246 263 246 263 l 246 263 z "},"j":{"ha":454,"x_min":35,"x_max":419,"o":"m 411 993 l 240 993 l 240 1169 l 411 1169 l 411 993 m 419 894 q 418 594 419 821 q 417 382 418 481 q 292 150 417 218 q 35 151 172 85 l 35 292 q 185 272 121 253 q 253 372 253 293 q 254 575 254 469 q 253 822 254 785 q 244 850 254 840 q 232 857 239 857 l 206 857 l 206 901 q 272 918 238 910 q 364 943 343 936 q 410 938 397 951 q 419 894 419 926 l 419 894 z "},"k":{"ha":729,"x_min":35,"x_max":694,"o":"m 694 189 l 482 189 q 331 392 382 325 q 240 507 288 449 q 240 374 240 507 q 240 244 240 244 q 219 204 240 221 q 169 188 199 186 l 78 188 l 78 994 q 81 1015 81 1006 q 65 1036 81 1036 l 35 1036 l 35 1081 q 101 1094 67 1088 q 185 1111 172 1110 q 231 1097 217 1119 q 238 1074 238 1086 q 238 889 236 997 q 238 697 238 707 q 382 840 315 765 q 481 950 479 949 l 678 950 q 508 776 625 897 q 343 604 376 638 q 565 333 490 411 q 694 189 640 254 l 694 189 z "},"l":{"ha":281,"x_min":35,"x_max":246,"o":"m 246 269 q 226 207 246 226 q 182 190 211 190 l 78 190 l 78 1003 q 83 1019 82 1011 q 69 1038 86 1036 l 35 1039 l 35 1083 q 106 1097 69 1090 q 193 1114 179 1113 q 239 1100 225 1122 q 246 1076 246 1089 q 246 642 246 1076 q 246 269 246 269 l 246 269 z "},"m":{"ha":1106,"x_min":35,"x_max":1071,"o":"m 1071 671 q 1071 497 1071 643 q 1069 286 1069 353 q 1054 208 1069 232 q 1001 185 1039 185 l 915 186 l 915 681 q 792 796 904 792 q 668 710 679 800 q 668 414 668 710 q 668 188 668 296 l 513 188 l 513 690 q 404 789 494 769 q 261 728 310 807 q 261 522 260 672 q 263 281 261 392 q 242 215 263 240 q 183 190 219 190 l 104 190 q 106 410 106 285 q 106 811 107 658 q 107 826 106 815 q 97 836 108 836 l 42 836 q 39 849 40 842 q 35 881 35 865 q 94 899 63 889 q 183 925 160 917 q 226 928 210 933 q 254 882 251 919 q 413 911 326 919 q 581 835 511 903 q 863 907 676 942 q 1071 671 1064 869 l 1071 671 z "},"n":{"ha":776,"x_min":35,"x_max":742,"o":"m 742 306 q 731 217 742 242 q 683 188 718 188 l 586 188 q 586 446 586 315 q 583 722 585 707 q 436 831 565 818 q 249 750 306 842 q 249 521 249 750 q 249 275 249 275 q 228 199 249 215 q 175 189 215 189 l 94 189 l 94 815 q 100 829 99 822 q 96 842 104 842 l 42 842 q 39 854 40 847 q 35 886 35 871 q 100 901 65 893 q 194 928 171 919 q 221 919 210 932 q 238 890 232 910 q 551 933 381 982 q 739 719 731 882 q 740 532 740 629 q 742 306 742 338 l 742 306 z "},"o":{"ha":817,"x_min":35,"x_max":782,"o":"m 782 572 q 689 297 788 413 q 413 176 583 176 q 135 301 242 176 q 35 572 38 414 q 126 846 32 729 q 401 969 232 975 q 694 843 596 964 q 782 572 778 742 l 782 572 m 650 575 q 583 781 646 696 q 411 872 515 872 q 235 789 300 872 q 169 575 169 708 q 229 365 169 444 q 411 278 293 278 q 594 365 529 278 q 650 575 654 446 l 650 575 z "},"p":{"ha":746,"x_min":35,"x_max":711,"o":"m 711 633 q 710 611 711 624 q 708 588 710 603 q 606 376 694 453 q 419 299 529 311 q 329 300 375 294 q 250 319 283 306 q 250 240 250 319 q 250 136 250 136 q 240 68 250 90 q 183 36 225 36 q 129 35 161 33 q 101 38 113 36 l 101 917 q 103 935 104 925 q 88 951 101 951 l 39 951 q 38 967 38 957 q 35 1000 35 985 q 96 1015 63 1007 q 186 1040 161 1032 q 226 1032 206 1047 q 251 976 250 1015 q 331 1006 304 999 q 400 1015 365 1015 q 636 914 556 1017 q 711 633 713 814 l 711 633 m 565 663 q 526 825 564 761 q 396 901 482 901 q 310 882 346 901 q 253 831 279 865 q 253 681 253 831 q 253 496 253 496 q 301 438 257 458 q 410 428 347 417 q 525 492 489 442 q 565 663 567 547 l 565 663 z "},"q":{"ha":678,"x_min":35,"x_max":643,"o":"m 643 124 q 624 61 643 78 q 586 50 611 50 q 549 50 578 50 q 496 49 519 50 q 496 207 496 49 q 496 335 496 335 q 424 319 465 324 q 343 314 390 315 q 139 392 222 311 q 35 647 43 482 q 107 933 26 829 q 346 1032 190 1042 q 415 1021 383 1029 q 492 993 444 1013 q 492 1038 490 1022 q 492 1060 492 1051 q 524 1061 506 1061 q 576 1063 558 1063 q 628 1047 613 1063 q 642 1004 642 1033 q 643 564 643 893 q 643 124 643 388 l 643 124 m 493 844 q 419 899 467 882 q 344 913 386 911 q 218 846 264 915 q 176 682 176 781 q 218 494 176 560 q 335 426 258 429 q 439 442 397 425 q 492 486 475 457 q 493 682 492 572 q 493 844 493 790 l 493 844 z "},"r":{"ha":547,"x_min":35,"x_max":513,"o":"m 513 744 q 343 790 404 792 q 232 703 260 788 q 231 493 231 600 q 232 263 229 281 q 210 203 232 225 q 164 183 190 185 l 85 183 q 86 493 86 338 q 85 815 86 804 q 88 832 88 824 q 69 849 86 849 l 35 849 l 35 893 q 103 894 68 894 q 186 897 174 896 q 218 890 206 901 q 231 864 226 882 q 349 911 288 906 q 513 878 414 915 l 513 744 z "},"s":{"ha":661,"x_min":35,"x_max":626,"o":"m 626 432 q 547 254 626 331 q 342 174 464 174 q 164 224 240 174 q 35 344 113 257 l 151 426 q 293 314 225 331 q 417 335 347 300 q 465 451 492 381 q 326 526 438 526 q 99 603 175 526 q 46 782 26 674 q 157 957 69 904 q 336 993 228 999 q 475 956 406 992 q 606 863 538 924 l 496 753 q 413 822 451 797 q 303 858 354 858 q 206 765 211 858 q 307 671 199 671 q 549 592 460 671 q 626 432 626 524 l 626 432 z "},"t":{"ha":731,"x_min":35,"x_max":696,"o":"m 696 268 q 576 194 628 217 q 460 175 519 171 q 307 236 361 182 q 257 364 257 286 q 254 633 254 475 q 256 822 254 763 q 188 820 228 822 q 111 822 149 818 q 54 839 69 825 q 38 893 38 853 q 36 907 38 899 q 35 932 36 914 q 154 932 35 932 q 256 932 256 932 q 254 975 254 953 q 256 1028 254 997 q 250 1038 256 1033 q 229 1043 243 1044 l 188 1044 q 183 1064 185 1053 q 185 1108 181 1089 q 271 1128 218 1114 q 347 1146 322 1142 q 397 1131 379 1154 q 414 1068 414 1110 q 414 997 413 1042 q 417 933 415 975 q 542 933 454 932 q 622 935 586 935 q 626 856 624 901 q 628 818 628 833 q 553 819 596 819 q 418 818 468 821 q 418 644 418 818 q 418 431 418 431 q 429 344 421 365 q 461 324 438 324 q 544 342 510 322 q 611 392 563 351 l 696 268 z "},"u":{"ha":786,"x_min":35,"x_max":751,"o":"m 751 249 q 740 207 750 228 q 675 165 719 165 q 638 165 667 165 q 589 164 608 164 l 588 235 q 506 192 558 207 q 381 175 450 175 q 190 247 264 175 q 117 432 117 319 q 115 632 117 531 q 114 844 114 835 q 111 853 114 849 q 94 861 104 863 l 35 860 q 35 869 35 864 q 35 894 35 894 q 100 914 64 903 q 211 944 172 933 q 265 935 249 953 q 282 875 282 918 l 282 411 q 326 343 282 374 q 425 311 369 314 q 535 339 485 310 q 586 404 585 367 l 586 846 q 588 858 588 853 q 575 871 586 871 l 506 871 l 504 908 q 563 922 529 915 q 664 947 628 939 q 729 950 707 964 q 751 886 751 935 l 751 249 z "},"v":{"ha":839,"x_min":35,"x_max":806,"o":"m 803 901 l 542 189 l 376 189 l 104 904 q 99 914 103 910 q 76 922 90 924 l 35 924 l 35 976 q 108 978 71 976 q 192 978 183 978 q 239 953 217 978 q 256 928 250 940 l 458 379 q 551 649 506 515 q 639 892 644 913 q 639 913 640 903 q 631 933 638 933 l 569 933 l 569 978 q 649 978 607 978 q 750 978 750 978 q 793 957 779 978 q 803 901 808 936 l 803 901 z "},"w":{"ha":1035,"x_min":35,"x_max":1001,"o":"m 999 883 l 903 278 q 885 231 899 254 q 818 188 858 185 l 688 188 q 621 443 663 264 q 543 746 575 640 q 482 492 513 631 q 426 254 447 338 q 399 207 414 224 q 344 183 375 179 l 210 183 l 104 881 q 99 897 103 889 q 76 913 90 913 l 35 913 l 35 963 q 104 964 69 963 q 185 964 176 964 q 232 939 210 964 q 249 913 243 925 l 322 424 q 386 696 399 749 q 443 951 425 860 q 567 951 443 951 q 628 951 603 951 q 706 674 657 854 q 779 406 769 440 l 849 863 q 853 889 854 875 q 824 914 851 914 l 786 914 l 786 957 q 854 957 818 957 q 944 957 944 957 q 989 938 975 957 q 999 883 1004 918 l 999 883 z "},"x":{"ha":857,"x_min":35,"x_max":822,"o":"m 822 189 l 622 189 q 533 315 579 251 q 431 457 481 386 q 303 289 388 401 q 228 186 261 232 q 106 183 185 185 q 35 183 67 183 q 150 319 86 243 q 340 557 278 472 q 193 753 300 611 q 61 932 107 868 q 132 935 93 933 q 238 932 208 936 q 315 824 256 901 q 426 671 388 728 q 519 800 464 719 q 611 935 579 885 l 790 935 q 674 769 747 872 q 522 558 565 619 q 671 367 606 447 q 822 189 688 346 l 822 189 z "},"y":{"ha":722,"x_min":35,"x_max":688,"o":"m 688 964 q 532 596 589 736 q 389 233 454 407 q 282 111 358 154 q 121 68 215 75 q 97 113 111 86 q 50 200 69 164 q 175 193 133 182 q 239 246 214 204 q 293 376 282 347 q 326 479 292 374 q 192 711 274 574 q 35 968 147 782 l 206 968 q 285 818 231 911 q 396 633 328 743 q 482 867 442 747 q 513 964 501 926 l 688 964 z "},"z":{"ha":826,"x_min":35,"x_max":792,"o":"m 792 385 q 758 290 779 338 q 678 196 717 196 l 39 194 q 38 224 38 204 q 35 310 35 261 q 283 526 121 376 q 531 750 478 706 q 342 751 457 751 q 149 750 228 750 q 89 758 103 750 q 65 819 65 771 q 67 851 67 831 q 67 869 67 861 q 358 867 138 865 q 679 865 606 867 q 764 810 753 865 q 733 722 775 758 q 536 551 650 646 q 244 313 615 617 q 554 311 411 310 q 658 310 647 311 q 744 350 692 315 q 792 385 772 368 l 792 385 z "},"{":{"ha":617,"x_min":129,"x_max":508,"o":"m 508 1272 q 413 1192 435 1236 q 396 1061 392 1150 q 376 810 396 903 q 313 679 356 713 q 369 565 353 649 q 379 351 382 490 q 401 196 379 238 q 486 139 422 154 q 481 94 485 113 q 465 44 476 79 q 324 108 382 58 q 264 217 264 158 q 257 439 257 442 q 203 622 244 597 q 172 626 194 628 q 132 631 146 626 q 129 643 131 631 q 132 724 128 667 q 176 725 160 722 q 207 729 200 729 q 258 892 243 733 q 267 1115 267 988 q 317 1251 267 1196 q 447 1343 354 1293 q 478 1310 467 1324 q 508 1272 496 1286 l 508 1272 z "},"|":{"ha":539,"x_min":158,"x_max":381,"o":"m 381 264 q 363 206 381 225 q 321 190 347 190 l 225 190 l 225 1050 q 225 1074 228 1061 q 194 1100 219 1097 l 158 1099 l 158 1154 q 236 1167 196 1161 q 329 1182 317 1181 q 374 1169 360 1190 q 381 1147 381 1160 q 381 678 381 1147 q 381 264 381 264 l 381 264 z "},"}":{"ha":617,"x_min":108,"x_max":488,"o":"m 485 731 q 486 649 489 674 q 483 636 485 638 q 443 632 469 632 q 413 628 421 633 q 358 444 371 603 q 351 222 358 447 q 293 114 351 164 q 151 50 235 64 q 136 100 139 85 q 131 144 132 118 q 215 201 194 160 q 236 357 236 243 q 247 571 233 494 q 303 685 263 654 q 239 815 260 718 q 219 1067 219 908 q 203 1197 224 1156 q 108 1278 181 1242 q 139 1315 110 1281 q 169 1349 147 1328 q 300 1257 263 1297 q 350 1121 350 1201 q 358 897 350 990 q 408 735 372 739 q 439 731 413 735 q 485 731 456 729 l 485 731 z "},"~":{"ha":976,"x_min":35,"x_max":942,"o":"m 942 933 l 143 933 q 83 940 104 933 q 35 1006 35 957 l 35 1088 l 942 1088 l 942 933 z "},"　":{"ha":1389,"x_min":0,"x_max":0,"o":""},"、":{"ha":1389,"x_min":0,"x_max":1389,"o":"m 853 1015 q 811 982 838 1000 q 758 947 761 950 q 690 1036 725 994 q 608 1119 650 1082 q 638 1153 611 1122 q 665 1181 654 1171 q 760 1104 703 1156 q 853 1015 785 1082 l 853 1015 z "},"。":{"ha":1389,"x_min":0,"x_max":1389,"o":"m 442 1051 q 406 956 442 994 q 294 913 364 913 q 188 956 229 913 q 150 1051 150 996 q 188 1146 150 1106 q 294 1189 229 1189 q 401 1146 358 1189 q 442 1051 442 1106 l 442 1051 m 363 975 q 390 1038 396 999 q 358 1106 386 1068 q 294 1146 333 1138 q 226 1129 253 1154 q 201 1071 201 1106 q 222 1008 201 1039 q 289 963 246 974 q 363 975 332 951 l 363 975 z "},"·":{"ha":1389,"x_min":0,"x_max":1389,"o":"m 772 751 q 729 689 772 707 q 661 696 688 672 q 635 756 635 724 q 679 814 636 794 q 743 810 713 831 q 772 751 772 788 l 772 751 z "},"‥":{"ha":1389,"x_min":0,"x_max":1389,"o":"m 1063 750 q 1022 685 1064 703 q 953 692 982 667 q 925 757 922 717 q 971 814 929 801 q 1033 804 1006 825 q 1063 750 1060 785 l 1063 750 m 471 750 q 431 689 471 708 q 363 692 390 669 q 331 756 326 718 q 378 814 333 793 q 442 806 410 829 q 471 750 471 783 l 471 750 z "},"…":{"ha":1389,"x_min":0,"x_max":1389,"o":"m 1193 760 q 1153 694 1194 713 q 1085 701 1113 676 q 1057 767 1054 726 q 1103 824 1061 811 q 1165 814 1138 835 q 1193 760 1190 794 l 1193 760 m 781 760 q 740 694 782 713 q 669 701 699 676 q 643 767 639 726 q 689 824 647 811 q 751 815 724 835 q 781 760 778 794 l 781 760 m 388 757 q 347 694 388 715 q 278 699 307 676 q 246 763 243 725 q 293 821 250 800 q 357 813 325 836 q 388 757 388 790 l 388 757 z "},"¨":{"ha":1389,"x_min":0,"x_max":1389,"o":"m 963 1106 q 922 1039 964 1058 q 853 1046 882 1021 q 825 1113 822 1071 q 872 1168 829 1156 q 933 1160 906 1181 q 963 1106 960 1140 l 963 1106 m 576 1115 q 538 1050 579 1069 q 468 1057 496 1032 q 440 1124 436 1081 q 486 1181 443 1167 q 549 1169 521 1190 q 576 1115 574 1150 l 576 1115 z "},"〃":{"ha":1389,"x_min":0,"x_max":1389,"o":"m 925 719 q 847 571 889 646 q 765 439 794 478 q 729 451 751 446 q 697 461 704 458 q 757 600 736 549 q 810 756 799 706 q 868 738 828 749 q 925 719 911 724 l 925 719 m 717 764 q 638 618 668 672 q 558 483 586 522 q 521 496 544 490 q 489 506 496 503 q 549 644 542 628 q 601 800 590 750 q 660 782 618 794 q 717 764 700 771 l 717 764 z "},"­":{"ha":1389,"x_min":0,"x_max":1389,"o":"m 943 607 q 717 607 943 607 q 518 607 518 607 q 489 611 497 607 q 475 638 475 618 l 475 700 l 943 700 l 943 607 z "},"―":{"ha":1389,"x_min":0,"x_max":1389,"o":"m 1049 586 q 689 586 1049 586 q 371 586 371 586 q 342 590 350 586 q 329 618 329 597 l 329 704 l 1049 704 l 1049 586 z "},"∥":{"ha":1389,"x_min":0,"x_max":1389,"o":"m 897 333 q 890 282 897 294 q 843 264 881 264 l 781 264 q 781 671 781 264 q 781 1088 781 1088 q 847 1086 808 1086 q 897 1088 878 1086 q 897 683 897 1088 q 897 333 897 333 l 897 333 m 628 333 q 621 282 628 294 q 574 264 611 264 l 513 264 q 513 671 513 264 q 513 1088 513 1088 q 578 1086 538 1086 q 628 1086 628 1086 q 628 685 628 1086 q 628 333 628 333 l 628 333 z "},"＼":{"ha":1389,"x_min":0,"x_max":1389,"o":"m 975 329 q 928 301 958 319 q 888 276 908 289 l 397 1051 l 471 1101 q 718 711 621 858 q 975 329 811 568 l 975 329 z "},"∼":{"ha":1389,"x_min":0,"x_max":1389,"o":"m 1119 678 q 1049 625 1090 646 q 953 588 1015 607 q 811 597 894 572 q 636 644 674 639 q 464 629 565 657 q 317 575 403 613 q 299 618 308 592 q 281 665 289 647 q 526 736 418 722 q 715 725 629 750 q 904 685 847 688 q 1054 738 1000 681 q 1089 706 1068 725 q 1119 678 1111 685 l 1119 678 z "},"‘":{"ha":1389,"x_min":0,"x_max":1389,"o":"m 1256 922 q 1154 908 1204 888 q 1100 1003 1100 932 q 1131 1132 1100 1061 q 1197 1233 1160 1200 q 1221 1215 1206 1228 q 1247 1194 1242 1199 q 1208 1118 1224 1154 q 1203 1075 1190 1075 q 1289 1015 1276 1075 q 1256 922 1300 960 l 1256 922 z "},"’":{"ha":1389,"x_min":0,"x_max":1389,"o":"m 279 1171 q 264 1057 294 1117 q 149 954 229 988 q 133 976 138 969 q 122 999 126 989 q 178 1056 158 1021 q 183 1088 196 1088 q 115 1129 128 1093 q 138 1208 101 1165 q 217 1228 165 1240 q 279 1171 269 1215 l 279 1171 z "},"“":{"ha":1389,"x_min":0,"x_max":1389,"o":"m 1281 963 q 1200 928 1254 924 q 1125 983 1143 932 q 1131 1106 1110 1032 q 1193 1224 1150 1178 q 1217 1207 1203 1218 q 1243 1186 1233 1193 q 1213 1119 1225 1158 q 1210 1083 1199 1081 q 1286 1046 1264 1092 q 1281 963 1307 1001 l 1281 963 m 1042 963 q 974 933 1019 928 q 900 985 925 940 q 910 1114 876 1028 q 986 1243 939 1189 q 1008 1224 1000 1231 q 1035 1204 1021 1214 q 996 1133 1015 1178 q 985 1089 976 1089 q 1057 1051 1040 1093 q 1042 963 1074 1010 l 1042 963 z "},"”":{"ha":1389,"x_min":0,"x_max":1389,"o":"m 443 1197 q 468 1088 476 1160 q 396 951 458 1006 q 364 951 383 951 q 329 950 344 950 q 374 1028 356 988 q 383 1068 390 1065 q 311 1092 336 1060 q 304 1181 285 1126 q 368 1224 321 1218 q 443 1197 414 1229 l 443 1197 m 235 1197 q 260 1088 268 1160 q 188 951 250 1006 q 156 951 175 951 q 119 950 135 950 q 164 1028 146 986 q 175 1068 181 1065 q 103 1092 128 1060 q 96 1181 76 1126 q 160 1224 113 1218 q 235 1197 206 1229 l 235 1197 z "},"〔":{"ha":1389,"x_min":0,"x_max":1389,"o":"m 1247 138 q 1233 93 1246 133 q 1218 57 1225 69 q 1093 89 1183 64 q 954 124 993 115 q 908 160 921 129 q 900 233 900 182 q 901 693 903 335 q 903 1143 901 1067 q 911 1217 906 1204 q 968 1256 922 1251 q 1081 1274 1008 1258 q 1224 1308 1150 1288 q 1238 1267 1222 1313 q 1246 1224 1244 1243 q 1143 1201 1211 1215 q 1050 1179 1085 1189 q 1001 1151 1014 1168 q 992 1106 992 1136 q 992 721 992 1022 q 990 293 990 419 q 992 224 988 238 q 1021 200 996 208 q 1135 165 1071 183 q 1247 138 1185 153 l 1247 138 z "},"〕":{"ha":1389,"x_min":0,"x_max":1389,"o":"m 444 242 q 436 182 444 200 q 383 142 424 157 q 285 99 332 119 q 181 57 239 78 q 164 96 172 74 q 149 143 157 115 q 236 178 189 156 q 314 215 283 201 q 347 243 342 233 q 353 283 353 253 q 353 686 353 283 q 353 1060 353 1060 q 346 1122 353 1103 q 322 1154 340 1142 q 243 1197 285 1181 q 163 1231 201 1214 q 182 1272 183 1272 q 206 1313 190 1289 q 310 1266 260 1288 q 400 1228 361 1244 q 440 1182 433 1210 q 442 1106 446 1161 q 444 682 444 965 q 444 242 444 840 l 444 242 z "},"〈":{"ha":1389,"x_min":0,"x_max":1389,"o":"m 1249 125 q 1214 85 1232 106 q 1178 47 1200 71 q 922 361 1124 118 q 708 626 740 582 q 672 721 679 669 q 707 818 665 785 q 958 1069 815 908 q 1164 1296 1100 1229 q 1198 1261 1183 1276 q 1229 1225 1213 1246 q 1011 997 1167 1163 q 815 792 861 838 q 785 721 783 758 q 811 650 785 689 q 1025 381 868 565 q 1249 125 1075 322 l 1249 125 z "},"〉":{"ha":1389,"x_min":0,"x_max":1389,"o":"m 726 607 q 522 372 681 544 q 242 67 364 200 q 210 104 226 83 q 179 140 182 136 q 415 374 282 228 q 615 621 550 521 q 642 693 642 661 q 611 763 643 729 q 415 982 567 807 q 197 1225 260 1161 q 228 1251 208 1239 q 263 1278 251 1268 q 476 1047 285 1256 q 718 792 647 861 q 756 696 757 754 q 726 607 753 646 l 726 607 z "},"《":{"ha":1389,"x_min":0,"x_max":1389,"o":"m 1257 1253 q 1040 1015 1217 1211 q 810 768 881 836 q 775 731 778 739 q 786 690 768 715 q 1019 396 875 572 q 1247 128 1178 201 q 1219 96 1236 113 q 1186 65 1218 96 q 931 379 1182 71 q 694 654 765 581 q 663 726 658 690 q 708 794 667 760 q 972 1061 819 890 q 1199 1314 1124 1232 q 1226 1285 1210 1304 q 1257 1253 1243 1265 l 1257 1253 m 1050 1279 q 815 1028 1008 1238 q 568 768 639 836 q 535 731 538 739 q 546 690 528 715 q 788 392 626 583 q 1024 119 947 199 q 992 81 1006 97 q 957 44 974 61 q 694 369 906 106 q 454 656 521 585 q 422 729 414 690 q 468 794 428 763 q 747 1073 579 890 q 992 1335 915 1256 q 1019 1310 1006 1324 q 1050 1279 1011 1318 l 1050 1279 z "},"》":{"ha":1389,"x_min":0,"x_max":1389,"o":"m 925 772 q 950 708 957 746 q 906 633 943 675 q 653 351 793 508 q 376 60 513 193 q 340 86 350 78 q 308 117 336 90 q 618 439 464 263 q 804 664 735 571 q 832 717 831 700 q 811 753 832 732 q 551 1013 740 818 q 315 1247 371 1197 q 344 1278 329 1264 q 376 1306 357 1290 q 660 1031 457 1228 q 925 772 703 988 l 925 772 m 685 772 q 708 708 717 746 q 665 633 701 676 q 451 401 586 543 q 203 140 361 304 q 171 175 189 154 q 139 210 157 193 q 406 479 296 364 q 567 664 518 600 q 601 715 599 706 q 588 749 607 731 q 354 978 521 811 q 144 1179 201 1129 q 174 1210 160 1196 q 206 1238 188 1222 q 453 998 300 1147 q 685 772 607 849 l 685 772 z "},"「":{"ha":1389,"x_min":0,"x_max":1389,"o":"m 1288 1188 q 1094 1190 1219 1189 q 847 1189 929 1192 q 806 1176 815 1189 q 796 1133 800 1168 q 796 901 796 1133 q 796 721 796 721 l 696 721 q 695 1026 697 894 q 693 1179 693 1157 q 704 1257 693 1239 q 778 1282 721 1282 q 1026 1279 811 1281 q 1288 1278 1196 1278 l 1288 1188 z "},"」":{"ha":1389,"x_min":0,"x_max":1389,"o":"m 672 157 q 658 113 672 126 q 594 93 639 93 l 75 93 l 75 190 q 294 193 139 192 q 497 192 471 193 q 540 199 533 194 q 556 243 556 208 l 556 642 l 671 642 q 674 390 672 574 q 672 157 674 188 l 672 157 z "},"『":{"ha":1389,"x_min":0,"x_max":1389,"o":"m 1288 1065 q 1126 1065 1288 1065 q 985 1065 985 1065 q 925 1050 939 1065 q 915 1006 915 1039 q 915 908 915 949 q 914 782 915 833 q 900 731 914 750 q 846 707 882 707 q 761 706 814 706 q 692 706 732 706 q 692 935 692 735 q 690 1174 690 1135 q 708 1251 686 1224 q 774 1279 729 1276 q 1038 1279 818 1279 q 1288 1278 1257 1278 l 1288 1065 m 1215 1129 q 1215 1167 1215 1179 q 1213 1213 1215 1186 q 1024 1213 1213 1213 q 833 1213 833 1213 q 781 1193 793 1213 q 771 1140 771 1179 q 771 964 771 1140 q 771 771 771 771 l 851 771 q 851 906 851 771 q 851 1061 851 1061 q 869 1118 851 1106 q 932 1129 885 1129 q 1082 1129 932 1129 q 1215 1129 1215 1129 l 1215 1129 z "},"』":{"ha":1389,"x_min":0,"x_max":1389,"o":"m 664 189 q 643 110 664 135 q 588 88 625 88 q 338 89 519 88 q 169 90 247 90 q 99 101 121 90 q 69 157 69 117 q 71 236 69 182 q 71 301 71 290 q 265 301 71 301 q 453 301 453 301 q 451 457 453 375 q 449 667 450 621 l 664 667 q 664 444 664 667 q 664 189 664 189 l 664 189 m 601 222 q 600 458 601 338 q 593 611 597 606 l 515 611 q 515 488 515 611 q 515 306 515 306 q 494 250 515 267 q 439 236 476 236 q 285 236 439 236 q 135 236 135 236 l 135 151 q 343 151 135 151 q 551 151 551 151 q 589 171 576 151 q 601 222 601 189 l 601 222 z "},"【":{"ha":1389,"x_min":0,"x_max":1389,"o":"m 1274 50 q 1182 53 1232 51 q 1050 54 1083 54 q 983 67 996 54 q 974 129 974 78 q 974 679 974 129 q 974 1236 974 1236 q 992 1304 974 1290 q 1054 1313 1003 1313 q 1129 1313 1054 1313 q 1260 1313 1260 1313 q 1133 1013 1192 1229 q 1079 700 1079 815 q 1132 311 1079 504 q 1274 50 1189 97 l 1274 50 z "},"】":{"ha":1389,"x_min":0,"x_max":1389,"o":"m 447 1206 q 446 708 444 1072 q 446 142 447 301 q 436 75 447 92 q 381 57 422 57 q 276 57 381 57 q 146 57 146 57 q 303 388 261 161 q 328 740 328 522 q 260 1047 328 851 q 143 1307 197 1228 q 265 1308 197 1307 q 385 1313 317 1310 q 439 1286 426 1314 q 447 1206 447 1268 l 447 1206 z "},"±":{"ha":1389,"x_min":0,"x_max":1389,"o":"m 1072 776 l 761 776 l 761 503 q 756 446 761 457 q 704 422 744 422 l 636 422 l 636 779 q 456 779 601 779 q 308 778 308 778 q 272 783 282 778 q 257 815 257 790 l 257 871 l 642 871 l 642 1151 q 706 1151 657 1151 q 765 1150 753 1150 l 765 871 l 1072 871 l 1072 776 m 1088 229 q 683 229 1088 229 q 325 229 325 229 q 290 235 301 229 q 275 268 275 244 l 275 324 l 1088 324 l 1088 229 z "},"×":{"ha":1389,"x_min":0,"x_max":1389,"o":"m 1131 357 q 1099 326 1121 349 q 1051 281 1078 306 q 868 458 976 347 q 701 622 750 578 q 547 469 660 578 q 382 303 439 367 q 343 332 367 313 q 301 361 322 349 q 469 518 378 429 q 632 683 533 582 q 488 832 493 826 q 319 983 407 911 q 353 1022 338 1007 q 386 1053 367 1036 q 535 917 394 1044 q 700 758 638 822 q 857 919 775 832 q 996 1067 939 1007 q 1031 1029 1015 1046 q 1064 989 1047 1013 q 944 869 1008 936 q 772 696 879 803 q 951 521 772 696 q 1131 357 1049 426 l 1131 357 z "},"÷":{"ha":1389,"x_min":0,"x_max":1389,"o":"m 793 992 q 767 925 793 954 q 690 894 736 894 q 619 926 647 894 q 593 992 593 954 q 619 1053 593 1028 q 690 1081 646 1081 q 767 1053 738 1081 q 793 992 793 1028 l 793 992 m 1168 597 q 678 597 1168 597 q 242 597 242 597 q 207 603 217 597 q 192 636 192 611 l 192 711 l 1168 711 l 1168 597 m 803 333 q 776 268 803 296 q 706 236 749 236 q 631 268 660 236 q 606 333 606 296 q 631 396 606 371 q 706 424 660 424 q 776 396 749 424 q 803 333 803 371 l 803 333 z "},"≠":{"ha":1389,"x_min":0,"x_max":1389,"o":"m 1114 482 q 996 482 1114 482 q 846 482 846 482 q 911 360 881 413 q 1001 208 892 396 q 947 181 978 196 q 901 160 917 167 l 724 482 q 442 483 613 485 q 263 482 272 482 q 228 488 238 482 q 213 519 213 496 l 213 581 l 685 583 l 557 839 q 371 841 468 843 q 263 839 274 839 q 228 844 238 839 q 213 876 213 853 l 213 936 l 518 935 l 404 1147 l 490 1196 q 589 1011 572 1043 q 628 936 619 953 l 1114 936 l 1114 839 l 665 839 l 796 583 l 1114 581 l 1114 482 z "},"≤":{"ha":1389,"x_min":0,"x_max":1389,"o":"m 1164 386 l 1138 311 q 672 526 1133 313 q 258 715 285 704 q 226 750 226 728 q 256 789 226 771 l 1101 1194 l 1126 1121 l 354 751 l 1164 386 m 1160 183 q 672 185 1075 183 q 253 185 268 188 q 221 186 226 185 q 204 221 204 193 l 204 253 l 1160 253 l 1160 183 z "},"≥":{"ha":1389,"x_min":0,"x_max":1389,"o":"m 1108 715 l 242 311 l 215 385 l 1013 751 l 253 1121 l 278 1194 q 722 981 319 1174 q 1104 794 1089 803 q 1147 753 1146 771 q 1108 715 1150 735 l 1108 715 m 1179 189 q 691 191 1094 189 q 272 190 288 193 q 240 193 247 190 q 224 226 224 200 l 224 258 l 1179 258 l 1179 189 z "},"∞":{"ha":1389,"x_min":0,"x_max":1389,"o":"m 1258 640 q 1131 381 1258 463 q 843 386 999 296 q 771 456 806 411 q 693 579 732 503 q 668 526 668 526 q 654 500 658 507 q 543 385 601 422 q 357 335 467 335 q 175 424 247 335 q 108 619 108 507 q 229 861 108 775 q 525 865 361 957 q 608 806 567 844 q 696 701 654 763 q 797 843 749 800 q 975 904 868 904 q 1157 843 1074 904 q 1258 640 1258 769 l 1258 640 m 1175 642 q 1119 771 1172 714 q 983 828 1063 832 q 844 778 901 825 q 733 639 797 739 q 803 528 775 563 q 890 454 835 489 q 989 425 956 428 q 1090 457 1038 422 q 1149 517 1131 485 q 1175 642 1178 567 l 1175 642 m 651 640 q 503 793 596 739 q 390 833 439 829 q 301 828 317 833 q 197 700 233 804 q 190 572 178 643 q 232 471 201 507 q 371 407 293 401 q 506 450 417 410 q 593 533 550 476 q 651 640 638 590 l 651 640 z "},"∴":{"ha":1389,"x_min":0,"x_max":1389,"o":"m 771 1013 q 750 951 771 976 q 689 924 726 924 q 624 951 647 924 q 603 1013 603 975 q 624 1072 603 1049 q 689 1097 647 1097 q 750 1072 726 1097 q 771 1013 771 1047 l 771 1013 m 1163 340 q 1142 281 1163 306 q 1079 254 1118 254 q 1018 281 1042 254 q 997 340 997 306 q 1018 400 997 375 q 1079 429 1042 429 q 1142 400 1118 429 q 1163 340 1163 375 l 1163 340 m 418 351 q 396 289 418 314 q 335 261 372 261 q 274 289 296 261 q 254 351 254 313 q 274 410 254 386 q 335 436 296 436 q 396 410 372 436 q 418 351 418 386 l 418 351 z "},"°":{"ha":1389,"x_min":0,"x_max":1389,"o":"m 814 1049 q 781 958 814 997 q 686 917 744 917 q 590 958 628 917 q 556 1049 556 997 q 590 1136 556 1099 q 686 1176 628 1176 q 781 1136 744 1176 q 814 1049 814 1099 l 814 1049 m 742 989 q 763 1042 765 1008 q 736 1096 760 1072 q 685 1128 713 1121 q 628 1117 654 1135 q 604 1061 603 1096 q 626 1003 606 1029 q 681 971 651 976 q 742 989 713 964 l 742 989 z "},"′":{"ha":1389,"x_min":0,"x_max":1389,"o":"m 361 1124 q 267 1039 297 1065 q 167 963 218 999 q 146 986 154 975 q 129 1011 136 997 q 206 1092 168 1049 q 274 1183 249 1143 q 315 1156 288 1174 q 361 1124 340 1138 l 361 1124 z "},"″":{"ha":1389,"x_min":0,"x_max":1389,"o":"m 540 1088 q 453 1011 485 1038 q 357 940 410 978 q 331 963 344 951 q 306 989 317 975 q 381 1069 344 1028 q 450 1158 425 1119 q 492 1125 464 1149 q 540 1088 519 1103 l 540 1088 m 347 1113 q 260 1035 247 1025 q 165 964 214 997 q 136 988 151 976 q 113 1013 121 999 q 188 1093 151 1050 q 257 1183 231 1143 q 299 1150 336 1119 q 347 1113 322 1131 l 347 1113 z "},"℃":{"ha":1389,"x_min":0,"x_max":1389,"o":"m 1144 471 q 996 250 1082 314 q 743 186 904 181 q 488 314 590 192 q 385 613 385 436 q 397 796 383 725 q 454 944 413 881 q 613 1085 517 1043 q 815 1121 694 1121 q 1033 1036 944 1122 q 1142 835 1111 961 q 1074 836 1117 833 q 1013 836 1031 836 q 957 971 1000 931 q 782 1021 904 1019 q 554 915 629 1024 q 490 665 490 822 q 563 394 490 490 q 782 301 639 296 q 940 349 889 306 q 1015 474 979 382 q 1072 471 1039 472 q 1144 471 1117 469 l 1144 471 m 451 1085 q 414 1000 451 1035 q 304 960 371 960 q 194 1000 235 960 q 160 1085 160 1035 q 194 1172 160 1139 q 304 1211 233 1211 q 414 1172 372 1211 q 451 1085 451 1136 l 451 1085 m 356 1033 q 378 1085 379 1053 q 351 1136 376 1117 q 293 1160 324 1158 q 244 1140 264 1161 q 225 1096 224 1121 q 244 1051 226 1075 q 297 1014 263 1021 q 356 1033 333 1008 l 356 1033 z "},"Å":{"ha":1389,"x_min":0,"x_max":1389,"o":"m 833 1189 q 797 1106 833 1139 q 690 1068 757 1068 q 589 1106 625 1068 q 557 1189 557 1139 q 589 1269 557 1238 q 690 1307 626 1307 q 797 1269 757 1307 q 833 1189 833 1236 l 833 1189 m 1147 224 q 1135 178 1165 190 q 1100 171 1119 171 q 1007 171 1100 171 q 915 171 915 171 l 915 197 q 985 217 974 199 q 982 244 990 226 q 940 345 965 292 q 889 457 915 399 q 671 457 889 457 q 514 457 514 457 q 419 311 451 357 q 365 239 407 292 q 325 194 344 207 q 271 183 304 183 q 222 181 250 183 q 174 176 190 176 l 174 221 q 238 247 217 229 q 267 288 246 256 q 493 651 375 443 q 636 926 601 842 q 636 958 647 947 q 599 969 626 968 q 575 968 588 968 q 558 969 567 968 l 558 1001 q 679 1003 593 1003 q 800 1003 768 1004 q 832 993 822 1003 q 829 961 842 981 l 782 876 q 913 643 789 864 q 1147 224 1057 388 l 1147 224 m 743 1128 q 767 1182 767 1149 q 743 1236 767 1215 q 683 1265 713 1263 q 635 1246 656 1268 q 614 1199 615 1224 q 631 1151 614 1172 q 686 1115 656 1122 q 743 1128 718 1108 l 743 1128 m 867 532 q 782 708 797 676 q 725 824 767 740 q 647 683 688 750 q 556 528 590 592 l 867 532 z "},"￠":{"ha":1389,"x_min":0,"x_max":1389,"o":"m 1058 846 q 992 844 1043 846 q 926 842 940 843 q 885 954 921 913 q 790 1008 850 997 q 711 744 760 901 q 599 371 621 446 q 819 368 739 338 q 924 474 885 394 q 989 471 944 472 q 1049 468 1046 468 q 868 281 990 329 q 564 282 742 231 q 535 183 553 233 q 503 111 517 132 q 460 126 481 118 q 410 147 432 138 q 439 225 422 172 q 472 332 449 254 q 324 472 382 379 q 257 703 257 578 q 422 1039 257 919 q 724 1129 557 1136 q 742 1194 736 1168 q 754 1254 747 1218 q 810 1233 754 1254 q 860 1217 840 1222 q 843 1165 853 1196 q 826 1107 833 1135 q 968 1011 908 1075 q 1058 846 1032 942 l 1058 846 m 699 1038 q 471 951 563 1026 q 368 757 376 874 q 392 549 357 626 q 511 417 424 476 q 618 767 549 546 q 699 1038 676 956 l 699 1038 z "},"￡":{"ha":1389,"x_min":0,"x_max":1389,"o":"m 1171 276 q 1050 222 1085 232 q 867 204 985 204 q 671 244 782 204 q 501 318 614 265 q 381 161 454 204 q 210 160 301 114 q 142 278 142 194 q 190 396 142 354 q 290 442 231 429 q 421 444 343 451 q 421 549 421 444 q 421 644 421 644 q 339 645 372 646 q 282 644 306 644 q 247 665 261 646 q 235 706 236 682 l 236 744 q 308 744 236 744 q 419 744 419 744 q 446 956 417 856 q 546 1121 479 1068 q 721 1200 625 1185 q 881 1190 803 1214 q 1032 1090 958 1165 q 1144 924 1104 1017 q 1097 907 1129 919 q 1042 886 1063 893 q 889 1072 997 1008 q 656 1089 772 1142 q 547 967 576 1042 q 519 744 517 890 q 849 746 658 744 q 1093 747 1049 746 l 1093 644 l 519 644 q 519 538 519 644 q 519 417 519 417 q 701 343 614 369 q 882 310 794 315 q 1004 318 947 304 q 1115 363 1063 331 q 1142 321 1125 347 q 1171 276 1160 293 l 1171 276 m 411 354 q 308 364 357 371 q 235 326 258 356 q 243 260 215 285 q 322 251 271 235 q 374 286 349 258 q 411 354 397 315 l 411 354 z "},"￥":{"ha":1389,"x_min":0,"x_max":1389,"o":"m 1182 481 q 992 481 1182 481 q 747 481 747 481 q 749 336 749 440 q 749 182 749 279 q 736 150 749 163 q 701 139 724 139 l 625 139 q 625 301 625 139 q 625 481 625 481 q 438 481 625 481 q 274 481 274 481 q 239 490 254 481 q 218 528 218 503 l 218 558 q 406 558 242 558 q 625 557 569 557 q 625 622 625 557 q 625 685 625 685 q 417 683 533 683 q 260 682 294 682 q 231 693 243 682 q 215 725 215 706 l 215 765 q 390 768 272 767 q 607 767 533 768 q 431 947 575 799 q 267 1108 335 1044 q 308 1157 279 1122 q 338 1189 325 1175 q 503 1013 407 1108 q 688 835 593 921 q 874 1024 774 924 q 1022 1181 974 1124 q 1061 1143 1031 1174 q 1106 1101 1085 1122 q 951 951 1049 1050 q 765 768 829 831 q 1005 766 868 764 q 1179 768 1142 768 l 1179 683 q 986 683 1179 683 q 747 685 818 683 q 747 619 747 685 q 747 557 747 557 q 983 558 807 557 q 1182 558 1161 558 l 1182 481 z "},"♂":{"ha":1389,"x_min":0,"x_max":1389,"o":"m 1092 881 q 1060 843 1082 868 q 1024 799 1039 819 q 885 928 990 828 q 736 1061 799 1010 q 736 875 736 1061 q 736 663 736 663 q 900 586 828 651 q 981 410 981 511 q 904 231 979 296 q 672 160 824 160 q 479 232 553 160 q 404 424 403 304 q 468 581 404 519 q 642 663 528 639 q 642 858 642 663 q 642 1057 642 1057 q 513 935 611 1029 q 379 810 426 851 q 342 843 358 829 q 300 872 325 856 q 458 1014 357 917 q 607 1156 558 1111 q 685 1189 646 1190 q 750 1160 719 1188 q 913 1028 829 1097 q 1092 881 1008 950 l 1092 881 m 807 490 q 696 572 764 553 q 572 550 625 593 q 522 446 524 508 q 557 331 519 388 q 665 250 599 268 q 794 274 735 232 q 849 378 850 314 q 807 490 847 433 l 807 490 z "},"♀":{"ha":1389,"x_min":0,"x_max":1389,"o":"m 1163 522 q 969 522 1139 522 q 749 521 800 521 q 749 365 749 521 q 749 233 749 233 q 724 188 749 197 q 697 185 710 183 l 635 185 q 635 324 635 260 q 633 521 635 443 q 441 522 546 522 q 265 521 336 521 q 228 531 239 521 q 213 568 214 542 l 214 611 q 407 611 236 611 q 636 610 578 610 q 635 660 636 642 q 633 708 635 678 q 463 796 526 725 q 400 965 400 865 q 471 1114 400 1044 q 686 1196 554 1197 q 893 1119 808 1197 q 974 946 974 1046 q 910 790 974 858 q 749 707 846 721 q 749 664 749 707 q 749 613 749 613 q 988 614 828 613 q 1163 614 1149 614 l 1163 522 m 794 1047 q 679 1114 743 1103 q 558 1079 611 1125 q 515 981 511 1038 q 560 872 518 928 q 668 794 607 811 q 788 813 732 776 q 853 926 857 856 q 794 1047 849 988 l 794 1047 z "},"∠":{"ha":1389,"x_min":0,"x_max":1389,"o":"m 1150 196 q 678 196 885 196 q 263 197 275 196 q 243 217 246 197 q 257 254 239 236 l 971 1143 l 1038 1086 l 385 268 l 1150 268 l 1150 196 z "},"⊥":{"ha":1389,"x_min":0,"x_max":1389,"o":"m 1163 211 q 679 211 1163 211 q 258 211 258 211 q 229 217 239 211 q 211 251 211 226 l 211 285 l 654 285 l 654 1053 l 754 1053 l 754 285 l 1163 285 l 1163 211 z "},"⌒":{"ha":1389,"x_min":0,"x_max":1389,"o":"m 1156 538 l 1060 538 q 908 706 1015 649 q 696 754 815 754 q 444 700 551 754 q 315 538 328 639 l 226 538 q 378 742 247 658 q 696 829 513 829 q 996 743 863 829 q 1156 538 1126 658 l 1156 538 z "},"∂":{"ha":1389,"x_min":0,"x_max":1389,"o":"m 1058 985 q 1046 764 1064 878 q 978 510 1025 644 q 815 239 914 331 q 551 150 703 132 q 419 278 460 164 q 415 508 381 388 q 544 700 465 636 q 754 771 629 771 q 867 739 815 772 q 944 611 929 696 q 896 1076 1029 953 q 578 1015 768 1194 l 563 1032 q 861 1190 676 1211 q 1058 985 1046 1169 l 1058 985 m 804 367 q 853 603 872 500 q 747 704 835 701 q 608 642 672 703 q 515 511 561 596 q 481 361 478 429 q 571 228 485 268 q 703 247 636 203 q 804 367 763 288 l 804 367 z "},"∇":{"ha":1389,"x_min":0,"x_max":1389,"o":"m 1261 1104 l 671 194 l 119 1104 l 1261 1104 m 1143 1036 l 233 1036 l 671 317 l 1143 1036 z "},"≡":{"ha":1389,"x_min":0,"x_max":1389,"o":"m 1111 982 q 706 982 1111 982 q 344 982 344 982 q 315 989 326 982 q 303 1017 303 997 l 303 1069 l 1111 1069 l 1111 982 m 1111 610 q 706 610 1111 610 q 344 610 344 610 q 315 617 326 610 q 303 646 303 625 l 303 699 l 1111 699 l 1111 610 m 1111 238 q 706 238 1111 238 q 344 238 344 238 q 315 244 325 238 q 303 274 303 253 l 303 326 l 1111 326 l 1111 238 z "},"≒":{"ha":1389,"x_min":0,"x_max":1389,"o":"m 1181 771 q 714 771 1181 771 q 300 771 300 771 q 271 778 281 771 q 257 807 257 786 l 257 864 l 1181 864 l 1181 771 m 481 1088 q 457 1029 481 1054 q 388 1001 429 1001 q 324 1031 349 1001 q 301 1088 301 1056 q 324 1149 301 1125 q 388 1174 347 1174 q 457 1149 431 1174 q 481 1088 481 1125 l 481 1088 m 1110 278 q 1083 215 1110 240 q 1010 188 1054 188 q 940 215 965 188 q 915 278 915 240 q 940 336 915 311 q 1010 363 967 363 q 1083 338 1054 363 q 1110 278 1110 313 l 1110 278 m 1181 474 q 714 474 1181 474 q 300 474 300 474 q 271 481 281 474 q 257 508 257 489 l 257 567 l 1181 567 l 1181 474 z "},"§":{"ha":1389,"x_min":0,"x_max":1389,"o":"m 1018 1033 q 993 992 1008 1019 q 971 957 978 965 q 842 1040 900 1008 q 713 1096 776 1076 q 574 1113 629 1119 q 479 1054 510 1104 q 508 981 457 1018 q 631 924 553 947 q 826 854 811 860 q 983 750 936 807 q 994 622 1026 699 q 879 532 960 543 q 976 419 954 485 q 969 289 999 357 q 883 190 940 219 q 739 163 829 161 q 540 229 635 161 q 403 385 453 290 q 443 403 442 403 q 472 414 453 407 q 585 296 522 343 q 706 239 649 250 q 833 258 776 225 q 897 344 888 292 q 846 449 907 397 q 697 528 793 492 q 501 610 549 586 q 388 696 417 653 q 386 808 351 749 q 513 900 421 868 q 390 1001 413 928 q 418 1119 372 1067 q 536 1188 465 1172 q 715 1178 611 1203 q 882 1115 800 1156 q 1018 1033 960 1078 l 1018 1033 m 864 739 q 733 811 808 782 q 590 846 661 839 q 481 793 513 853 q 510 699 447 732 q 650 635 636 640 q 790 582 725 601 q 901 644 882 588 q 864 739 921 699 l 864 739 z "},"※":{"ha":1389,"x_min":0,"x_max":1389,"o":"m 1206 689 q 1179 625 1206 651 q 1106 594 1151 594 q 1028 624 1057 594 q 1001 689 1001 651 q 1028 753 1001 726 q 1106 782 1057 782 q 1179 753 1151 782 q 1206 689 1206 725 l 1206 689 m 782 1093 q 758 1031 782 1057 q 686 1000 731 1000 q 617 1031 642 1000 q 593 1093 593 1057 q 617 1158 593 1132 q 686 1188 642 1188 q 758 1158 732 1188 q 782 1093 782 1132 l 782 1093 m 1163 332 q 1128 294 1143 311 q 1086 257 1114 276 q 890 444 1010 325 q 710 619 757 576 q 539 454 660 567 q 350 275 404 331 q 314 303 339 285 q 276 333 292 319 q 461 506 353 400 q 640 686 515 558 q 468 857 560 763 q 303 1022 338 988 q 340 1058 322 1043 q 378 1086 350 1067 q 532 932 422 1039 q 706 760 663 804 q 882 922 732 785 q 1042 1074 996 1026 q 1075 1039 1050 1065 q 1108 1003 1096 1019 q 974 874 1075 965 q 781 692 851 763 q 974 509 886 590 q 1163 332 1061 428 l 1163 332 m 803 271 q 774 206 803 233 q 693 176 742 176 q 615 206 644 176 q 589 271 589 232 q 615 336 589 308 q 693 367 644 367 q 774 336 740 367 q 803 271 803 307 l 803 271 m 363 682 q 336 615 363 646 q 264 582 307 582 q 199 615 224 582 q 176 682 176 646 q 199 743 176 718 q 264 771 224 771 q 336 743 308 771 q 363 682 363 718 l 363 682 z "},"☆":{"ha":1389,"x_min":0,"x_max":1389,"o":"m 1236 828 l 904 583 l 1050 161 l 693 422 l 340 161 l 479 583 l 151 828 l 554 828 l 681 1222 l 817 828 l 1236 828 m 1147 799 l 783 799 l 681 1131 l 582 799 l 232 799 l 519 593 l 390 238 l 694 461 l 997 236 l 857 593 l 1147 799 z "},"★":{"ha":1389,"x_min":0,"x_max":1389,"o":"m 1236 813 l 904 569 l 1050 147 l 693 408 l 340 147 l 479 569 l 151 813 l 554 813 l 681 1208 l 817 813 l 1236 813 z "},"○":{"ha":1389,"x_min":0,"x_max":1389,"o":"m 1282 682 q 1150 269 1282 424 q 699 92 999 92 q 242 269 397 92 q 104 682 104 426 q 242 1092 104 938 q 699 1267 397 1267 q 1125 1092 960 1267 q 1282 682 1282 925 l 1282 682 m 1240 682 q 1093 1069 1240 914 q 699 1232 940 1232 q 272 1069 415 1232 q 144 682 144 926 q 272 294 144 439 q 699 132 415 132 q 1121 294 982 132 q 1240 682 1240 436 l 1240 682 z "},"●":{"ha":1389,"x_min":0,"x_max":1389,"o":"m 1283 681 q 1151 268 1283 422 q 700 90 1000 90 q 243 268 399 90 q 106 681 106 425 q 243 1090 106 936 q 700 1265 399 1265 q 1126 1090 961 1265 q 1283 681 1283 924 l 1283 681 z "},"◎":{"ha":1389,"x_min":0,"x_max":1389,"o":"m 1267 669 q 1119 269 1267 436 q 681 86 954 86 q 244 269 406 86 q 100 669 100 435 q 244 1069 100 907 q 681 1250 406 1250 q 1119 1069 956 1250 q 1267 669 1267 906 l 1267 669 m 1240 669 q 1100 1051 1240 897 q 681 1219 946 1219 q 264 1051 417 1219 q 126 669 126 899 q 264 288 126 444 q 681 114 418 114 q 1100 288 944 114 q 1240 669 1240 444 l 1240 669 m 1058 674 q 965 419 1058 524 q 688 301 863 301 q 411 419 514 301 q 319 674 319 524 q 411 928 319 824 q 688 1043 514 1043 q 965 928 863 1043 q 1058 674 1058 824 l 1058 674 m 1032 676 q 944 918 1032 821 q 685 1026 849 1026 q 428 918 521 1026 q 346 676 346 822 q 428 436 346 531 q 685 329 521 329 q 944 436 849 329 q 1032 676 1032 532 l 1032 676 z "},"◇":{"ha":1389,"x_min":0,"x_max":1389,"o":"m 1294 651 l 694 50 l 79 651 l 694 1256 l 1294 651 m 1231 651 l 694 1196 l 139 651 l 693 114 l 1231 651 z "},"◆":{"ha":1389,"x_min":0,"x_max":1389,"o":"m 1310 650 l 697 36 l 71 651 l 697 1264 l 1310 650 z "},"□":{"ha":1389,"x_min":0,"x_max":1389,"o":"m 1300 56 l 75 56 l 75 1276 l 1300 1276 l 1300 56 m 1250 108 l 1250 1236 l 119 1236 l 119 108 l 1250 108 z "},"■":{"ha":1389,"x_min":0,"x_max":1389,"o":"m 1289 53 l 65 53 l 65 1274 l 1289 1274 l 1289 53 z "},"△":{"ha":1389,"x_min":0,"x_max":1389,"o":"m 1250 167 l 136 167 l 722 1068 l 1250 167 m 1153 213 l 722 990 l 222 213 l 1153 213 z "},"▲":{"ha":1389,"x_min":0,"x_max":1389,"o":"m 1236 175 q 688 175 1236 175 q 139 175 414 175 l 710 1067 l 1236 175 z "},"▽":{"ha":1389,"x_min":0,"x_max":1389,"o":"m 1264 1093 l 694 190 l 128 1093 l 1264 1093 m 1181 1054 l 204 1054 l 696 281 l 1181 1054 z "},"▼":{"ha":1389,"x_min":0,"x_max":1389,"o":"m 1260 1079 l 689 175 l 122 1079 l 1260 1079 z "},"→":{"ha":1389,"x_min":0,"x_max":1389,"o":"m 1354 661 l 981 446 l 1126 631 l 24 631 l 24 686 l 1126 686 l 981 869 l 1354 661 z "},"←":{"ha":1389,"x_min":0,"x_max":1389,"o":"m 1354 636 l 253 636 l 392 417 l 42 661 l 397 897 l 250 692 l 1354 692 l 1354 636 z "},"↑":{"ha":1389,"x_min":0,"x_max":1389,"o":"m 913 840 l 728 981 l 728 189 l 667 189 l 667 982 l 467 838 l 694 1176 l 913 840 z "},"↓":{"ha":1389,"x_min":0,"x_max":1389,"o":"m 936 554 l 701 192 l 457 556 l 669 399 l 669 1181 l 732 1181 l 732 400 l 936 554 z "},"↔":{"ha":1389,"x_min":0,"x_max":1389,"o":"m 1356 667 l 1040 431 l 1163 631 l 210 631 l 314 428 l 14 667 l 321 890 l 207 690 l 1161 690 l 1038 890 l 1356 667 z "},"〓":{"ha":1389,"x_min":0,"x_max":1389,"o":"m 1294 776 q 658 778 1225 776 q 96 779 92 779 q 57 785 71 779 q 38 811 38 793 l 38 850 l 1294 850 l 1294 776 m 1294 360 q 658 361 1225 360 q 96 361 92 361 q 57 368 72 361 q 38 396 38 376 l 38 433 l 1294 433 l 1294 360 z "},"≪":{"ha":1389,"x_min":0,"x_max":1389,"o":"m 1247 1260 l 524 647 l 1239 118 l 1185 76 q 832 346 1157 97 q 494 603 521 583 q 465 643 469 619 q 492 690 458 672 l 1203 1292 l 1247 1260 m 926 1264 l 211 656 l 906 122 l 857 82 q 489 368 832 101 q 164 621 172 614 q 140 649 147 628 q 158 690 133 674 l 881 1300 l 926 1264 z "},"≫":{"ha":1389,"x_min":0,"x_max":1389,"o":"m 1181 631 q 846 353 1157 613 q 474 44 535 94 l 443 93 l 1132 664 l 444 1228 l 475 1268 q 844 969 532 1222 q 1174 703 1154 718 q 1204 663 1206 679 q 1181 631 1204 649 l 1181 631 m 846 710 q 869 672 874 693 q 844 642 867 657 l 142 54 l 113 106 l 801 672 l 115 1239 l 143 1282 q 518 976 146 1281 q 846 710 835 717 l 846 710 z "},"√":{"ha":1389,"x_min":0,"x_max":1389,"o":"m 1317 1226 l 797 1226 l 439 335 l 278 742 l 197 667 l 163 696 l 313 826 l 446 526 l 753 1267 l 1317 1267 l 1317 1226 z "},"∽":{"ha":1389,"x_min":0,"x_max":1389,"o":"m 1285 650 q 1164 371 1303 465 q 829 374 1018 272 l 860 426 q 1117 413 997 342 q 1232 626 1232 479 q 1172 783 1232 715 q 1031 861 1114 847 q 890 844 946 874 q 765 710 828 811 q 701 593 751 685 q 647 499 660 515 q 533 378 596 418 q 342 328 454 328 q 158 419 231 328 q 90 619 90 504 q 213 861 90 774 q 524 879 346 956 l 499 831 q 265 836 375 889 q 146 622 146 778 q 199 454 146 522 q 363 378 258 378 q 569 486 483 378 q 683 678 586 507 q 790 835 756 800 q 990 915 869 915 q 1171 856 1089 915 q 1285 650 1272 783 l 1285 650 z "},"∝":{"ha":1389,"x_min":0,"x_max":1389,"o":"m 1197 363 q 903 344 1026 276 q 725 547 813 394 q 606 386 661 438 q 415 310 524 310 q 201 403 282 310 q 128 606 128 488 q 201 808 128 726 q 415 899 281 899 q 599 836 515 899 q 726 668 676 775 q 951 892 822 850 q 1197 875 1050 924 l 1178 814 q 913 810 1017 878 q 761 611 839 761 q 963 390 851 426 q 1179 422 1049 361 l 1197 363 m 692 608 q 586 771 650 710 q 404 846 507 846 q 239 775 299 846 q 185 613 185 710 q 239 449 185 515 q 404 371 299 374 q 590 443 519 371 q 692 608 633 488 l 692 608 z "},"∵":{"ha":1389,"x_min":0,"x_max":1389,"o":"m 1104 911 q 1082 854 1104 878 q 1021 826 1058 826 q 961 854 982 826 q 943 911 943 876 q 961 964 943 943 q 1021 989 982 989 q 1082 964 1058 989 q 1104 911 1104 942 l 1104 911 m 450 911 q 428 854 450 878 q 365 826 404 826 q 306 854 328 826 q 286 911 286 878 q 306 964 286 942 q 365 989 328 989 q 428 964 404 989 q 450 911 450 942 l 450 911 m 776 346 q 756 289 776 313 q 693 261 732 261 q 633 289 654 261 q 614 346 614 313 q 633 400 614 378 q 693 425 654 425 q 756 400 732 425 q 776 346 776 378 l 776 346 z "},"∫":{"ha":1389,"x_min":0,"x_max":1389,"o":"m 988 1157 q 990 1063 1054 1092 q 926 1121 925 1032 q 893 1151 926 1151 q 838 1124 860 1153 q 797 1053 806 1069 q 771 964 785 1022 q 743 784 753 888 q 717 549 733 681 q 665 289 693 360 q 513 160 618 171 q 417 188 449 153 q 390 263 390 215 q 438 310 390 303 q 481 260 485 317 q 514 208 481 215 q 583 239 547 201 q 628 368 613 276 q 647 543 638 424 q 676 772 657 642 q 725 1010 703 949 q 857 1186 775 1153 q 988 1157 926 1213 l 988 1157 z "},"∬":{"ha":1389,"x_min":0,"x_max":1389,"o":"m 1124 1153 q 1119 1060 1181 1090 q 1060 1111 1057 1028 q 1024 1146 1060 1143 q 968 1122 989 1147 q 929 1053 939 1089 q 914 954 921 1026 q 892 735 903 838 q 869 549 883 663 q 817 289 844 360 q 671 158 771 168 q 572 186 601 151 q 550 263 550 213 q 600 307 550 304 q 640 258 649 310 q 668 204 631 211 q 743 238 706 199 q 786 363 771 265 q 800 544 797 436 q 825 821 803 669 q 858 999 842 939 q 985 1178 894 1144 q 1124 1153 1060 1204 l 1124 1153 m 783 1154 q 781 1064 843 1094 q 718 1117 717 1033 q 692 1154 718 1150 q 632 1136 668 1157 q 593 1064 607 1113 q 574 953 589 1044 q 551 767 558 825 q 529 550 538 643 q 485 290 513 367 q 340 158 440 168 q 247 185 279 149 q 217 263 224 213 q 265 306 211 300 q 310 257 318 310 q 339 208 303 215 q 413 239 376 201 q 450 367 440 271 q 458 544 453 397 q 485 808 464 676 q 524 1001 499 894 q 644 1178 553 1143 q 783 1154 721 1206 l 783 1154 z "},"∈":{"ha":1389,"x_min":0,"x_max":1389,"o":"m 1203 185 l 549 185 q 254 311 361 185 q 160 588 160 424 q 256 861 160 750 q 549 986 363 986 l 1203 986 l 1203 926 l 561 926 q 319 839 411 926 q 228 613 231 754 l 1203 613 l 1203 560 l 228 560 q 336 317 232 401 q 583 239 431 239 l 1203 239 l 1203 185 z "},"∋":{"ha":1389,"x_min":0,"x_max":1389,"o":"m 1257 592 q 1174 313 1257 422 q 931 193 1083 193 l 213 193 q 213 219 213 193 q 213 242 213 242 l 915 242 q 1101 328 1025 242 q 1186 571 1185 419 l 214 571 l 214 625 l 1183 625 q 1097 849 1181 760 q 903 935 1017 935 q 594 935 754 935 q 214 935 272 936 l 214 989 l 911 989 q 1168 869 1072 989 q 1257 592 1257 758 l 1257 592 z "},"⊆":{"ha":1389,"x_min":0,"x_max":1389,"o":"m 1165 454 l 553 454 q 326 550 411 454 q 250 754 250 636 q 326 958 250 876 q 553 1050 410 1050 l 1165 1050 l 1165 990 l 544 990 q 375 921 438 990 q 317 754 317 856 q 381 586 317 658 q 547 510 449 510 l 1165 510 l 1165 454 m 1165 193 l 282 193 q 267 196 274 193 q 250 214 250 201 l 250 242 l 1165 242 l 1165 193 z "},"⊇":{"ha":1389,"x_min":0,"x_max":1389,"o":"m 1183 747 q 1111 539 1183 625 q 900 442 1031 442 l 260 442 l 260 500 l 865 500 q 1060 576 992 500 q 1119 747 1119 643 q 1060 919 1119 851 q 865 994 990 994 l 260 994 l 260 1046 l 900 1046 q 1111 953 1032 1046 q 1183 747 1183 868 l 1183 747 m 1163 194 q 700 194 1163 194 q 301 194 301 194 q 275 199 285 194 q 260 221 260 204 l 260 247 l 1163 247 l 1163 194 z "},"⊂":{"ha":1389,"x_min":0,"x_max":1389,"o":"m 1175 225 l 504 225 q 217 349 321 225 q 125 619 125 458 q 224 892 125 779 q 504 1013 331 1013 l 1175 1013 l 1175 956 l 553 956 q 264 853 361 956 q 181 617 181 764 q 275 381 181 475 q 551 278 376 278 l 1175 278 l 1175 225 z "},"⊃":{"ha":1389,"x_min":0,"x_max":1389,"o":"m 1225 619 q 1135 344 1225 456 q 847 219 1032 219 l 181 219 l 181 278 l 847 278 q 1071 369 982 278 q 1164 618 1164 464 q 1074 868 1164 774 q 847 960 986 960 l 181 960 l 181 1017 l 847 1017 q 1135 893 1032 1017 q 1225 619 1225 783 l 1225 619 z "},"∪":{"ha":1389,"x_min":0,"x_max":1389,"o":"m 1100 567 q 999 294 1100 397 q 697 185 890 185 q 400 292 503 185 q 304 567 304 392 l 304 1186 l 361 1186 l 361 561 q 435 356 361 443 q 700 244 526 244 q 963 347 871 244 q 1038 553 1038 433 l 1038 1186 l 1100 1186 l 1100 567 z "},"∩":{"ha":1389,"x_min":0,"x_max":1389,"o":"m 1093 190 l 1031 190 l 1031 814 q 949 1010 1031 918 q 693 1121 850 1121 q 432 1013 526 1121 q 357 814 357 925 l 357 190 l 294 190 l 294 796 q 396 1058 294 950 q 696 1178 507 1178 q 994 1058 885 1178 q 1093 796 1093 951 l 1093 190 z "},"∧":{"ha":1389,"x_min":0,"x_max":1389,"o":"m 1129 240 l 1057 219 l 689 999 l 276 219 l 215 240 l 690 1126 l 1129 240 z "},"∨":{"ha":1389,"x_min":0,"x_max":1389,"o":"m 1165 1093 l 693 210 l 233 1092 l 289 1118 l 697 351 l 1103 1119 l 1165 1093 z "},"￢":{"ha":1389,"x_min":0,"x_max":1389,"o":"m 1257 788 l 1176 788 l 1176 1189 l 190 1189 l 190 1253 l 1257 1253 l 1257 788 z "},"⇒":{"ha":1389,"x_min":0,"x_max":1389,"o":"m 1256 660 l 872 278 l 825 315 l 1001 493 l 163 493 l 163 547 l 1042 547 l 1156 660 l 1046 765 l 163 765 l 163 822 l 1006 822 l 825 1003 l 875 1039 l 1256 660 z "},"⇔":{"ha":1389,"x_min":0,"x_max":1389,"o":"m 1317 679 l 936 296 l 886 335 l 1064 501 l 313 501 l 488 322 l 440 286 l 67 679 l 444 1054 l 482 1018 l 313 849 l 1067 849 l 885 1022 l 935 1056 l 1317 679 m 1221 679 l 1108 790 l 269 790 l 160 678 l 278 557 l 1106 557 l 1221 679 z "},"∀":{"ha":1389,"x_min":0,"x_max":1389,"o":"m 1149 1132 q 932 674 1075 960 q 686 193 828 465 q 432 681 551 443 q 211 1146 285 971 l 306 1181 q 367 1049 321 1143 q 446 878 418 940 q 643 878 496 879 q 925 881 776 876 q 992 1025 954 942 q 1053 1164 1032 1114 q 1089 1153 1053 1164 q 1149 1132 1132 1138 l 1149 1132 m 892 810 q 669 810 892 810 q 475 810 475 810 q 569 600 517 710 q 681 376 546 651 q 794 601 768 546 q 892 810 847 707 l 892 810 z "},"∃":{"ha":1389,"x_min":0,"x_max":1389,"o":"m 1065 1085 q 1065 697 1065 896 q 1065 258 1065 258 q 1032 210 1065 231 q 964 190 1000 190 q 592 190 815 190 q 357 189 368 189 q 321 197 338 189 q 299 235 299 210 l 299 283 q 600 285 351 285 q 838 283 724 285 q 888 299 863 286 q 936 367 936 321 l 936 663 q 661 663 800 663 q 375 663 375 663 q 343 669 357 663 q 324 706 324 681 l 324 753 l 938 753 q 938 851 938 799 q 938 999 938 999 q 918 1065 938 1050 q 857 1076 903 1076 q 544 1079 740 1079 q 339 1076 349 1079 q 311 1082 319 1076 q 299 1117 299 1092 l 299 1163 q 672 1163 350 1163 q 1003 1161 994 1161 q 1054 1142 1042 1161 q 1065 1085 1065 1126 l 1065 1085 z "},"´":{"ha":1389,"x_min":0,"x_max":1389,"o":"m 408 1172 l 163 961 l 215 1172 l 408 1172 z "},"～":{"ha":1389,"x_min":0,"x_max":1389,"o":"m 1086 954 q 881 992 997 947 q 726 1043 750 1042 q 568 1006 681 1049 q 401 922 458 965 q 388 960 396 939 q 369 1001 372 993 q 572 1094 492 1067 q 724 1118 656 1122 q 890 1067 778 1115 q 1074 1046 982 1028 q 1081 1006 1078 1031 q 1086 954 1082 994 l 1086 954 z "},"ˇ":{"ha":1389,"x_min":0,"x_max":1389,"o":"m 929 1150 q 863 1060 894 1104 q 744 896 801 976 q 682 894 742 896 q 622 896 646 893 l 446 1146 l 475 1174 l 686 986 l 888 1188 l 929 1150 z "},"˘":{"ha":1389,"x_min":0,"x_max":1389,"o":"m 949 1076 q 813 996 876 1021 q 686 971 750 971 q 532 1001 608 969 q 404 1067 494 1015 q 431 1108 410 1076 q 453 1144 446 1129 q 561 1086 501 1110 q 682 1063 633 1057 q 803 1094 738 1068 q 910 1153 865 1119 q 929 1113 917 1135 q 949 1076 943 1089 l 949 1076 z "},"˝":{"ha":1389,"x_min":0,"x_max":1389,"o":"m 906 1169 l 696 926 l 739 1169 l 906 1169 m 665 1169 l 460 925 l 497 1169 l 665 1169 z "},"˚":{"ha":1389,"x_min":0,"x_max":1389,"o":"m 847 1099 q 851 935 896 1018 q 700 850 806 850 q 538 940 586 851 q 542 1099 490 1025 q 700 1172 594 1174 q 847 1099 804 1171 l 847 1099 m 761 1065 q 693 1101 733 1097 q 625 1078 654 1106 q 601 1024 601 1056 q 622 965 601 994 q 688 926 647 933 q 756 940 726 918 q 790 1004 790 971 q 761 1065 789 1033 l 761 1065 z "},"˙":{"ha":1389,"x_min":0,"x_max":1389,"o":"m 769 1081 q 746 1022 769 1046 q 686 997 721 997 q 628 1022 651 997 q 604 1081 604 1046 q 628 1139 604 1117 q 686 1163 651 1163 q 746 1139 722 1163 q 769 1081 769 1115 l 769 1081 z "},"¸":{"ha":1389,"x_min":0,"x_max":1389,"o":"m 897 319 q 792 136 896 199 q 585 86 707 86 q 579 131 582 110 q 572 167 574 163 q 718 197 664 172 q 793 301 790 231 q 749 413 796 378 q 594 485 731 426 q 613 532 621 550 q 626 571 619 547 q 817 478 751 531 q 897 319 899 411 l 897 319 z "},"˛":{"ha":1389,"x_min":0,"x_max":1389,"o":"m 810 99 q 586 142 694 88 q 464 300 464 201 q 539 464 464 396 q 697 576 514 442 q 726 536 710 563 q 753 496 744 507 q 624 417 685 449 q 563 314 564 385 q 643 211 561 244 q 813 189 713 183 q 811 146 813 176 q 810 99 811 126 l 810 99 z "},"¡":{"ha":1389,"x_min":0,"x_max":1389,"o":"m 754 1056 l 621 1056 l 621 1194 l 754 1194 l 754 1056 m 757 135 l 615 135 l 626 964 l 744 964 l 757 135 z "},"¿":{"ha":1389,"x_min":0,"x_max":1389,"o":"m 829 1046 l 697 1046 l 697 1186 l 829 1186 l 829 1046 m 889 204 q 606 189 758 147 q 399 331 454 229 q 406 613 317 469 q 700 788 497 761 l 700 951 q 760 953 719 951 q 828 954 799 953 q 831 849 829 924 q 831 756 831 810 q 563 639 674 746 q 490 408 450 528 q 656 282 528 322 q 860 283 779 243 q 876 242 864 271 q 889 204 885 224 l 889 204 z "},"ː":{"ha":1389,"x_min":0,"x_max":1389,"o":"m 817 982 l 686 778 l 557 982 l 817 982 m 808 182 l 565 183 l 686 385 l 808 182 z "},"∮":{"ha":1389,"x_min":0,"x_max":1389,"o":"m 1060 1111 q 1032 1079 1049 1099 q 1001 1046 1015 1060 q 924 1110 951 1096 q 846 1119 890 1128 q 764 1051 789 1108 q 749 911 742 997 q 911 833 847 897 q 975 685 975 769 q 915 528 975 596 q 743 447 850 454 q 678 265 726 328 q 578 199 640 221 q 421 186 506 171 q 250 292 314 204 q 293 322 256 296 q 311 340 306 332 q 428 260 364 272 q 522 264 458 254 q 603 313 575 271 q 649 447 629 351 q 497 517 563 457 q 429 661 429 581 q 481 822 429 758 q 658 911 539 893 q 657 1039 658 1049 q 740 1175 668 1125 q 889 1201 799 1213 q 1060 1111 992 1188 l 1060 1111 m 889 679 q 854 776 890 733 q 747 840 817 817 q 747 700 747 840 q 747 526 747 526 q 854 585 815 538 q 889 679 888 625 l 889 679 m 658 525 q 658 699 658 525 q 658 842 658 842 q 539 772 576 819 q 507 674 504 731 q 547 582 510 621 q 658 525 588 538 l 658 525 z "},"∑":{"ha":1389,"x_min":0,"x_max":1389,"o":"m 1099 922 l 1057 922 l 1000 1132 l 400 1132 l 751 717 l 386 276 l 1033 276 l 1033 406 l 1089 406 l 1089 190 l 232 190 l 643 682 l 292 1103 l 292 1179 l 1099 1179 l 1099 922 z "},"∏":{"ha":1389,"x_min":0,"x_max":1389,"o":"m 1135 1115 l 1025 1115 q 1022 710 1021 1032 q 1026 249 1024 450 q 1007 204 1026 219 q 968 192 992 192 q 933 190 951 192 q 906 189 917 190 l 906 1115 l 492 1115 q 492 707 492 914 q 492 256 492 256 q 474 206 492 224 q 443 192 461 192 q 411 192 433 192 q 378 190 389 190 q 376 657 378 260 q 376 1115 375 1054 l 288 1115 q 276 1118 282 1115 q 264 1142 264 1125 l 264 1167 l 1135 1167 l 1135 1115 z "},"¤":{"ha":1389,"x_min":0,"x_max":1389,"o":"m 1221 1143 l 999 947 q 1101 678 1096 829 q 1008 388 1106 521 l 1214 213 l 1163 164 l 968 357 q 671 246 835 244 q 406 344 515 247 l 197 172 l 161 213 l 361 386 q 271 683 265 503 q 357 943 276 853 l 143 1131 l 183 1172 l 400 982 q 682 1081 511 1079 q 961 989 850 1082 l 1182 1185 l 1221 1143 m 1051 669 q 958 917 1051 817 q 682 1025 857 1025 q 410 917 508 1025 q 322 669 322 818 q 410 418 322 519 q 682 303 508 303 q 958 418 856 303 q 1051 669 1051 521 l 1051 669 z "},"℉":{"ha":1389,"x_min":0,"x_max":1389,"o":"m 1253 1110 l 821 1110 q 839 1169 822 1153 q 882 1186 850 1182 l 1253 1186 l 1253 1110 m 1188 811 l 1188 724 l 763 724 q 764 500 763 614 q 764 246 764 271 q 756 200 764 214 q 717 183 744 183 l 639 183 q 639 717 639 183 q 639 1115 639 1115 q 629 1151 639 1144 q 590 1157 621 1157 l 557 1157 l 557 1189 q 633 1188 594 1188 q 718 1189 689 1186 q 756 1183 747 1192 q 760 1163 760 1179 q 761 950 761 1100 q 761 811 761 874 l 1188 811 m 386 1006 q 349 918 386 956 q 249 878 310 878 q 149 921 188 878 q 115 1011 115 960 q 149 1099 115 1063 q 249 1139 186 1139 q 349 1096 310 1139 q 386 1006 386 1057 l 386 1006 m 307 1050 q 251 1090 279 1082 q 189 1078 219 1100 q 157 1025 158 1057 q 181 968 156 996 q 236 926 208 936 q 299 936 269 915 q 332 990 331 960 q 307 1050 332 1018 l 307 1050 z "},"‰":{"ha":1389,"x_min":0,"x_max":1389,"o":"m 1215 386 q 1111 203 1174 260 q 993 171 1053 149 q 924 257 940 190 q 928 414 907 322 q 1031 635 964 563 q 1163 689 1090 701 q 1240 579 1229 675 q 1215 386 1250 493 l 1215 386 m 538 1165 q 579 988 596 1124 q 472 724 561 844 q 338 636 407 642 q 229 694 272 631 q 235 950 172 782 q 360 1156 289 1099 q 444 1193 403 1189 q 538 1165 492 1197 l 538 1165 m 918 1126 l 244 192 l 193 217 l 874 1157 l 918 1126 m 853 393 q 740 199 807 254 q 622 171 683 149 q 553 258 569 190 q 558 414 538 324 q 660 636 593 563 q 789 689 721 706 q 871 581 854 674 q 853 393 886 494 l 853 393 m 1158 394 q 1188 568 1194 508 q 1136 631 1181 624 q 1054 582 1092 638 q 1006 465 1028 540 q 969 306 969 358 q 1011 233 969 250 q 1107 279 1065 218 q 1158 394 1133 318 l 1158 394 m 524 1076 q 463 1133 504 1124 q 388 1115 424 1143 q 285 936 328 1060 q 256 782 247 825 q 308 694 269 707 q 389 711 339 685 q 493 868 440 736 q 524 1076 547 1006 l 524 1076 m 794 396 q 819 564 829 506 q 768 628 811 614 q 682 583 724 642 q 626 465 653 542 q 599 313 596 360 q 642 239 600 260 q 736 281 692 221 q 794 396 765 319 l 794 396 z "},"◁":{"ha":1389,"x_min":0,"x_max":1389,"o":"m 1046 182 l 131 660 l 1046 1168 l 1046 182 m 988 289 l 988 1074 l 226 658 l 988 289 z "},"◀":{"ha":1389,"x_min":0,"x_max":1389,"o":"m 1046 201 l 132 660 l 1046 1168 l 1046 201 z "},"▷":{"ha":1389,"x_min":0,"x_max":1389,"o":"m 1250 654 l 350 194 l 350 1182 l 1250 654 m 1135 664 l 397 1089 l 397 303 q 721 454 397 300 q 1135 664 1058 617 l 1135 664 z "},"▶":{"ha":1389,"x_min":0,"x_max":1389,"o":"m 1250 656 l 353 176 l 353 1183 l 1250 656 z "},"♤":{"ha":1389,"x_min":0,"x_max":1389,"o":"m 1163 567 q 1086 328 1213 417 q 826 328 958 240 q 799 333 811 335 q 782 294 772 332 q 828 185 792 258 q 856 94 856 126 l 856 78 l 514 78 l 513 93 q 543 186 543 186 q 590 289 564 243 q 590 346 618 339 q 542 326 565 351 q 301 336 436 233 q 215 567 168 439 q 365 850 260 699 q 694 1251 471 1000 q 954 932 921 976 q 1163 567 1100 735 l 1163 567 m 1049 668 q 897 906 985 782 q 696 1154 794 1051 q 508 946 586 1047 q 322 674 433 849 q 279 457 249 563 q 449 350 313 343 q 521 376 478 354 q 607 426 557 393 q 642 421 624 436 q 657 358 664 403 q 629 261 651 319 q 589 131 603 188 l 779 131 q 744 242 774 157 q 719 353 722 306 q 728 406 717 390 q 760 419 736 417 q 832 393 783 421 q 913 354 888 360 q 1081 422 1028 324 q 1049 668 1135 526 l 1049 668 z "},"♠":{"ha":1389,"x_min":0,"x_max":1389,"o":"m 1157 565 q 1033 281 1226 349 q 763 413 840 214 q 722 443 746 454 q 704 399 699 433 q 763 182 732 254 q 836 86 793 108 l 836 75 l 513 75 l 513 89 q 593 211 558 131 q 644 399 625 289 q 626 453 654 451 q 592 425 601 453 q 326 290 513 214 q 199 565 142 365 q 333 849 249 718 q 675 1251 444 1019 q 960 932 881 1033 q 1157 565 1110 738 l 1157 565 z "},"♡":{"ha":1389,"x_min":0,"x_max":1389,"o":"m 1139 936 q 1100 1107 1139 1047 q 946 1181 1053 1181 q 835 1111 886 1178 q 776 989 790 1054 q 703 900 758 899 q 625 989 646 900 q 547 1139 603 1089 q 417 1174 492 1189 q 301 1107 336 1150 q 265 924 253 1046 q 383 585 265 806 q 693 161 511 343 q 1014 578 882 340 q 1139 936 1136 800 l 1139 936 m 701 1042 q 797 1179 728 1119 q 939 1250 865 1239 q 1122 1192 1040 1261 q 1213 1007 1207 1121 q 1118 629 1218 843 q 693 65 983 343 q 332 546 474 288 q 196 1007 176 826 q 301 1203 215 1142 q 482 1250 372 1253 q 624 1175 560 1244 q 701 1042 674 1119 l 701 1042 z "},"♥":{"ha":1389,"x_min":0,"x_max":1389,"o":"m 1239 997 q 1136 622 1261 860 q 688 56 988 342 q 313 536 461 286 q 165 997 146 819 q 274 1193 167 1129 q 476 1240 357 1243 q 636 1161 568 1229 q 701 1036 697 1100 q 788 1174 719 1117 q 936 1240 851 1229 q 1133 1183 1039 1251 q 1239 997 1233 1110 l 1239 997 z "},"♧":{"ha":1389,"x_min":0,"x_max":1389,"o":"m 1269 550 q 1204 371 1269 444 q 1010 290 1132 290 q 901 311 953 290 q 781 394 833 336 q 808 189 785 279 q 828 94 829 113 l 828 72 l 522 72 l 521 93 q 558 204 521 93 q 590 390 590 297 q 479 315 536 340 q 351 288 418 288 q 169 374 238 288 q 110 550 110 450 q 171 717 110 649 q 354 792 238 792 q 468 771 413 792 q 547 724 513 753 q 586 732 569 708 q 574 769 601 756 q 482 849 518 796 q 436 1006 436 914 q 499 1185 436 1114 q 688 1264 567 1264 q 883 1185 808 1264 q 953 1006 953 1111 q 906 856 953 917 q 810 776 876 821 q 803 726 783 760 q 856 714 822 692 q 938 771 908 756 q 1025 796 983 796 q 1206 715 1135 796 q 1269 550 1269 643 l 1269 550 m 1215 549 q 1089 728 1215 689 q 858 665 964 765 q 760 686 801 615 q 756 783 715 758 q 858 878 828 832 q 894 1006 894 931 q 832 1165 894 1104 q 688 1222 774 1222 q 544 1163 593 1219 q 497 1006 497 1107 q 553 857 496 924 q 644 779 585 818 q 644 692 676 757 q 569 660 611 626 q 493 714 524 699 q 328 742 421 749 q 219 678 268 736 q 168 550 169 619 q 217 411 171 465 q 354 346 267 354 q 485 381 431 354 q 582 458 544 408 q 622 474 599 481 q 649 429 649 467 q 625 267 653 374 q 601 126 599 161 l 760 126 q 746 251 761 161 q 732 421 731 344 q 760 467 733 458 q 792 458 783 475 q 888 369 828 399 q 999 342 938 344 q 1153 386 1099 342 q 1215 549 1215 438 l 1215 549 z "},"♣":{"ha":1389,"x_min":0,"x_max":1389,"o":"m 1264 539 q 1200 369 1264 442 q 1013 290 1128 290 q 829 368 899 290 q 765 524 771 433 q 710 372 699 524 q 831 88 722 211 l 831 72 l 525 72 l 525 90 q 640 356 611 203 q 613 531 667 506 q 543 379 603 443 q 357 303 471 303 q 174 382 242 303 q 113 551 113 453 q 174 717 113 650 q 357 792 240 792 q 468 769 415 792 q 546 718 513 750 q 589 733 568 700 q 581 779 611 765 q 488 853 522 807 q 440 1006 440 915 q 501 1175 440 1107 q 689 1251 569 1251 q 879 1175 808 1251 q 944 1006 944 1106 q 899 856 944 913 q 782 774 863 811 q 776 719 753 758 q 829 707 801 679 q 903 764 872 750 q 1013 781 940 781 q 1200 706 1129 781 q 1264 539 1264 638 l 1264 539 z "},"⊙":{"ha":1389,"x_min":0,"x_max":1389,"o":"m 1263 667 q 1122 286 1263 443 q 700 113 967 113 q 279 286 436 113 q 138 667 138 443 q 279 1047 138 892 q 700 1219 435 1219 q 1122 1047 967 1219 q 1263 667 1263 892 l 1263 667 m 1218 667 q 1093 1024 1218 885 q 700 1176 954 1176 q 310 1024 447 1176 q 186 667 186 886 q 310 311 186 450 q 700 154 447 154 q 1093 311 954 154 q 1218 667 1218 450 l 1218 667 m 857 669 q 815 558 857 606 q 693 506 768 506 q 574 558 618 506 q 533 669 533 604 q 574 781 533 736 q 693 831 617 831 q 815 781 768 831 q 857 669 857 735 l 857 669 z "},"◈":{"ha":1389,"x_min":0,"x_max":1389,"o":"m 1301 657 l 683 53 l 61 657 l 683 1275 l 1301 657 m 1244 657 l 685 1219 l 122 657 l 685 103 l 1244 657 m 1063 657 l 683 278 l 306 657 l 683 1028 l 1063 657 z "},"▣":{"ha":1389,"x_min":0,"x_max":1389,"o":"m 1222 149 l 160 149 l 160 1192 l 1222 1192 l 1222 149 m 1169 193 l 1169 1149 l 210 1149 l 210 193 l 1169 193 m 938 411 l 439 411 l 439 921 l 938 921 l 938 411 z "},"◐":{"ha":1389,"x_min":0,"x_max":1389,"o":"m 1256 663 q 1115 282 1256 439 q 693 107 958 107 q 272 282 429 107 q 131 663 131 439 q 272 1043 131 888 q 693 1215 428 1215 q 1115 1043 958 1215 q 1256 663 1256 888 l 1256 663 m 1208 663 q 1083 1019 1208 882 q 683 1174 944 1174 l 683 151 q 1083 307 943 151 q 1208 663 1208 444 l 1208 663 z "},"◑":{"ha":1389,"x_min":0,"x_max":1389,"o":"m 1244 663 q 1103 282 1244 439 q 682 107 946 107 q 260 282 417 107 q 119 663 119 439 q 260 1043 119 888 q 682 1215 417 1215 q 1103 1043 947 1215 q 1244 663 1244 888 l 1244 663 m 693 153 l 693 1172 q 293 1019 432 1172 q 169 663 169 883 q 293 308 169 444 q 693 153 432 153 l 693 153 z "},"▒":{"ha":1389,"x_min":0,"x_max":1389,"o":"m 1204 172 l 179 172 l 179 1196 l 1204 1196 l 1204 172 m 1163 210 l 1161 1160 l 218 1160 l 218 210 l 1163 210 m 1111 1088 q 1100 1067 1111 1074 q 1079 1061 1090 1060 q 1061 1068 1067 1063 q 1054 1088 1054 1075 q 1061 1110 1054 1101 q 1079 1118 1067 1117 q 1100 1111 1090 1119 q 1111 1088 1111 1103 l 1111 1088 m 911 1088 q 901 1068 911 1075 q 881 1061 893 1063 q 863 1067 869 1061 q 854 1088 854 1074 q 863 1111 854 1103 q 881 1118 869 1118 q 901 1110 893 1117 q 911 1088 911 1101 l 911 1088 m 1013 951 q 999 932 1013 938 q 974 931 988 926 q 961 936 964 933 q 957 951 957 940 q 961 971 957 964 q 974 979 964 978 q 999 975 986 983 q 1013 951 1013 967 l 1013 951 m 1111 814 q 1100 793 1111 800 q 1079 789 1092 788 q 1061 796 1067 790 q 1054 814 1054 801 q 1061 835 1054 828 q 1079 843 1067 842 q 1100 838 1090 844 q 1111 814 1111 828 l 1111 814 m 713 1088 q 701 1067 713 1074 q 679 1061 692 1060 q 664 1069 669 1064 q 658 1088 658 1075 q 664 1108 658 1100 q 679 1118 669 1115 q 701 1111 692 1119 q 713 1088 713 1103 l 713 1088 m 815 951 q 806 935 815 939 q 783 931 799 932 q 765 935 771 931 q 758 951 758 939 q 765 974 758 967 q 783 979 772 979 q 806 972 797 978 q 815 951 815 965 l 815 951 m 911 814 q 901 796 911 801 q 881 789 893 790 q 863 794 869 789 q 854 814 854 800 q 863 836 854 829 q 881 843 869 843 q 901 835 893 842 q 911 814 911 828 l 911 814 m 1013 688 q 1001 674 1013 676 q 982 669 1007 675 q 964 669 969 667 q 957 688 957 674 q 963 708 957 700 q 976 718 968 717 q 1001 711 989 721 q 1013 688 1013 703 l 1013 688 m 1111 558 q 1100 539 1111 544 q 1079 535 1090 532 q 1061 540 1067 536 q 1054 558 1054 546 q 1061 578 1054 571 q 1079 585 1067 583 q 1100 579 1090 586 q 1111 558 1111 572 l 1111 558 m 519 1088 q 508 1065 519 1074 q 488 1058 499 1058 q 471 1065 478 1058 q 463 1088 463 1074 q 471 1108 463 1101 q 488 1115 478 1115 q 508 1108 500 1115 q 519 1088 519 1101 l 519 1088 m 619 951 q 607 932 619 938 q 583 931 596 926 q 569 936 574 932 q 564 951 564 940 q 569 971 564 964 q 586 979 575 976 q 608 974 599 981 q 619 951 619 967 l 619 951 m 713 814 q 700 793 713 800 q 679 789 690 786 q 664 796 669 790 q 658 814 658 801 q 664 835 658 826 q 679 843 669 840 q 701 838 692 844 q 713 814 713 829 l 713 814 m 815 688 q 806 667 815 674 q 783 658 796 660 q 765 665 772 658 q 758 688 758 672 q 765 710 758 701 q 783 718 772 718 q 806 710 796 717 q 815 688 815 700 l 815 688 m 911 558 q 901 540 911 546 q 881 535 894 536 q 863 540 869 535 q 854 558 854 546 q 863 579 854 572 q 881 585 869 585 q 901 578 893 583 q 911 558 911 571 l 911 558 m 1013 418 q 1003 399 1013 407 q 985 389 996 393 q 965 396 974 388 q 957 418 957 404 q 965 439 957 432 q 982 443 972 446 q 1001 436 993 442 q 1013 418 1013 429 l 1013 418 m 319 1088 q 310 1067 319 1074 q 288 1061 300 1061 q 269 1068 276 1063 q 263 1088 263 1075 q 269 1110 263 1101 q 286 1118 275 1117 q 308 1111 299 1118 q 319 1088 319 1101 l 319 1088 m 1111 285 q 1104 268 1111 274 q 1088 260 1097 263 q 1065 263 1074 257 q 1054 285 1054 269 q 1061 308 1054 299 q 1079 318 1068 317 q 1100 310 1090 319 q 1111 285 1111 299 l 1111 285 m 419 951 q 410 935 419 939 q 390 931 404 932 q 372 933 379 929 q 364 951 364 939 q 372 974 364 965 q 390 979 379 979 q 410 972 403 978 q 419 951 419 965 l 419 951 m 519 814 q 508 793 519 800 q 488 786 500 786 q 471 793 478 786 q 463 814 463 800 q 467 833 463 825 q 478 843 471 842 q 506 839 492 847 q 519 814 519 831 l 519 814 m 619 688 q 610 667 619 675 q 592 658 603 660 q 572 664 579 656 q 564 688 564 672 q 569 708 564 700 q 586 718 575 715 q 608 711 599 719 q 619 688 619 703 l 619 688 m 713 558 q 700 538 713 544 q 679 535 690 531 q 664 540 669 536 q 658 558 658 547 q 664 576 658 571 q 679 585 669 582 q 701 581 692 586 q 713 558 713 572 l 713 558 m 815 418 q 806 397 815 406 q 783 389 796 390 q 765 396 772 389 q 758 418 758 404 q 765 438 758 432 q 783 443 772 443 q 806 438 797 442 q 815 418 815 431 l 815 418 m 911 285 q 901 267 911 272 q 881 260 893 261 q 863 265 869 260 q 854 285 854 271 q 863 308 854 299 q 881 318 869 318 q 901 308 892 317 q 911 285 911 297 l 911 285 m 319 814 q 310 794 319 800 q 288 789 301 789 q 269 796 276 790 q 263 814 263 801 q 269 835 263 828 q 286 843 275 842 q 308 836 299 843 q 319 814 319 828 l 319 814 m 419 688 q 410 667 419 674 q 390 658 403 660 q 372 665 379 658 q 364 688 364 672 q 369 707 364 697 q 382 718 375 715 q 407 714 394 722 q 419 688 419 704 l 419 688 m 519 558 q 508 538 519 544 q 488 531 500 531 q 471 538 478 531 q 463 558 463 544 q 471 576 463 571 q 488 582 476 582 q 508 576 500 582 q 519 558 519 571 l 519 558 m 619 418 q 608 396 619 404 q 586 389 597 388 q 569 399 575 392 q 564 418 564 406 q 569 436 564 431 q 586 443 575 442 q 607 439 597 446 q 619 418 619 432 l 619 418 m 713 285 q 700 264 713 271 q 679 260 690 257 q 664 267 669 261 q 658 285 658 272 q 664 307 658 297 q 679 318 669 317 q 701 310 692 319 q 713 285 713 300 l 713 285 m 319 558 q 310 539 319 544 q 288 535 301 535 q 269 540 275 536 q 263 558 263 546 q 269 578 263 571 q 286 585 275 583 q 308 579 300 585 q 319 558 319 572 l 319 558 m 419 418 q 410 397 419 406 q 390 389 401 390 q 372 396 379 389 q 364 418 364 404 q 372 438 364 432 q 390 443 379 443 q 410 438 403 442 q 419 418 419 431 l 419 418 m 519 285 q 508 264 519 271 q 488 257 500 257 q 471 264 478 257 q 463 285 463 271 q 469 307 463 299 q 488 315 476 315 q 508 307 499 315 q 519 285 519 297 l 519 285 m 319 285 q 310 265 319 271 q 288 260 301 260 q 269 267 276 261 q 263 285 263 272 q 269 308 263 299 q 286 318 276 317 q 310 308 299 318 q 319 285 319 299 l 319 285 z "},"▤":{"ha":1389,"x_min":0,"x_max":1389,"o":"m 1214 174 l 192 175 l 192 1188 l 1214 1188 l 1214 174 m 1175 1019 l 1174 1154 l 233 1154 l 233 1019 l 1175 1019 m 1175 858 l 1174 978 l 233 978 l 233 858 l 1175 858 m 1175 696 l 1174 819 l 233 819 l 233 696 l 1175 696 m 1175 528 l 1174 656 l 233 656 l 233 528 l 1175 528 m 1175 368 l 1174 492 l 233 492 l 233 368 l 1175 368 m 1175 207 l 1174 329 l 233 329 l 233 207 l 1175 207 z "},"▥":{"ha":1389,"x_min":0,"x_max":1389,"o":"m 1226 176 l 143 176 l 143 1188 l 1226 1188 l 1226 176 m 1186 211 l 1186 1154 l 1050 1154 l 1050 211 l 1186 211 m 1010 211 l 1010 1154 l 881 1154 l 881 211 l 1010 211 m 842 211 l 842 1154 l 706 1154 l 706 211 l 842 211 m 665 211 l 665 1154 l 529 1154 l 529 211 l 665 211 m 490 211 l 490 1154 l 363 1154 l 363 211 l 490 211 m 321 211 l 321 1154 l 186 1154 l 186 211 l 321 211 z "},"▨":{"ha":1389,"x_min":0,"x_max":1389,"o":"m 1206 172 l 171 172 l 171 1193 l 1206 1193 l 1206 172 m 1153 1158 l 942 1158 l 207 428 l 207 233 l 1153 1158 m 1172 699 l 1172 892 l 481 206 l 674 206 l 1172 699 m 1172 453 l 1172 654 l 713 204 l 914 204 l 1172 453 m 1172 206 l 1172 413 l 953 206 l 1172 206 m 411 1158 l 207 1158 l 207 961 l 411 1158 m 657 1158 l 449 1158 l 207 919 l 207 719 l 657 1158 m 894 1158 l 697 1157 l 207 679 l 207 479 l 894 1158 m 1172 939 l 1172 1136 l 226 206 l 436 206 l 1172 939 z "},"▧":{"ha":1389,"x_min":0,"x_max":1389,"o":"m 1204 167 l 168 167 l 168 1188 l 1204 1188 l 1204 167 m 1167 964 l 1167 1154 l 960 1154 l 1167 964 m 1167 724 l 1167 915 l 913 1154 l 707 1154 l 1167 724 m 1167 478 l 1167 682 l 663 1154 l 468 1154 l 1167 478 m 1167 238 l 1167 435 l 418 1154 l 214 1154 l 1167 238 m 1153 203 l 208 1115 l 208 922 l 946 204 l 1153 203 m 906 203 l 208 878 l 208 690 l 710 204 l 906 203 m 665 203 l 208 642 l 208 442 l 463 204 l 665 203 m 425 201 l 208 401 l 208 201 l 425 201 z "},"▦":{"ha":1389,"x_min":0,"x_max":1389,"o":"m 1188 174 l 181 174 l 181 1194 l 1188 1194 l 1188 174 m 1150 1019 l 1150 1153 l 1028 1153 l 1028 1019 l 1150 1019 m 1150 864 l 1150 994 l 1028 994 l 1028 864 l 1150 864 m 992 1019 l 992 1153 l 871 1153 l 871 1019 l 992 1019 m 992 864 l 992 994 l 871 994 l 871 864 l 992 864 m 1150 708 l 1150 833 l 1028 833 l 1028 708 l 1150 708 m 835 1019 l 835 1153 l 707 1153 l 707 1019 l 835 1019 m 835 864 l 835 994 l 707 994 l 707 864 l 835 864 m 992 708 l 992 833 l 871 833 l 871 708 l 992 708 m 1150 544 l 1150 676 l 1028 676 l 1028 544 l 1150 544 m 671 1019 l 671 1153 l 550 1153 l 550 1019 l 671 1019 m 671 864 l 671 994 l 550 994 l 550 864 l 671 864 m 835 708 l 835 833 l 707 833 l 707 708 l 835 708 m 992 544 l 992 676 l 871 676 l 871 544 l 992 544 m 1150 378 l 1150 513 l 1028 513 l 1028 378 l 1150 378 m 513 1019 l 513 1153 l 386 1153 l 386 1019 l 513 1019 m 513 864 l 513 994 l 386 994 l 386 864 l 513 864 m 671 708 l 671 833 l 550 833 l 550 708 l 671 708 m 835 544 l 835 676 l 707 676 l 707 544 l 835 544 m 992 378 l 992 513 l 871 513 l 871 378 l 992 378 m 350 1019 l 350 1153 l 226 1153 l 226 1019 l 350 1019 m 1150 204 l 1150 347 l 1028 347 l 1028 204 l 1150 204 m 350 864 l 350 994 l 226 994 l 226 864 l 350 864 m 513 708 l 513 833 l 386 833 l 386 708 l 513 708 m 671 544 l 671 676 l 550 676 l 550 544 l 671 544 m 835 378 l 835 513 l 707 513 l 707 378 l 835 378 m 992 204 l 992 347 l 871 347 l 871 204 l 992 204 m 350 708 l 350 833 l 226 833 l 226 708 l 350 708 m 513 544 l 513 676 l 386 676 l 386 544 l 513 544 m 671 378 l 671 513 l 550 513 l 550 378 l 671 378 m 835 204 l 835 347 l 707 347 l 707 204 l 835 204 m 350 544 l 350 676 l 226 676 l 226 544 l 350 544 m 513 378 l 513 513 l 386 513 l 386 378 l 513 378 m 671 204 l 671 347 l 550 347 l 550 204 l 671 204 m 354 378 l 354 513 l 226 513 l 226 378 l 354 378 m 513 204 l 513 347 l 386 347 l 386 204 l 513 204 m 354 204 l 354 347 l 226 347 l 226 204 l 354 204 z "},"▩":{"ha":1389,"x_min":0,"x_max":1389,"o":"m 1182 178 l 175 178 l 175 1190 l 1182 1190 l 1182 178 m 1140 968 l 1140 1118 l 1063 1040 l 1140 968 m 1125 1151 l 950 1151 l 1040 1068 l 1125 1151 m 1008 1040 l 914 1138 l 819 1050 l 915 947 l 1008 1040 m 1136 925 l 1039 1015 l 942 925 l 1040 826 l 1136 925 m 881 1151 l 708 1151 l 799 1071 l 881 1151 m 1140 729 l 1140 879 l 1063 800 l 1140 729 m 769 1047 l 675 1135 l 578 1047 l 672 953 l 769 1047 m 886 925 l 789 1017 l 696 926 l 799 831 l 886 925 m 1008 801 l 913 897 l 825 804 l 915 707 l 1008 801 m 1126 688 l 1040 774 l 942 683 l 1036 588 l 1126 688 m 640 1151 l 468 1151 l 553 1074 l 640 1151 m 1140 475 l 1140 651 l 1060 567 l 1140 475 m 528 1046 l 428 1147 l 339 1050 l 433 951 l 528 1046 m 768 803 l 672 903 l 578 803 l 676 711 l 768 803 m 886 682 l 796 781 l 701 682 l 796 588 l 886 682 m 646 926 l 558 1017 l 461 928 l 553 831 l 646 926 m 1006 564 l 913 658 l 825 565 l 917 465 l 1006 564 m 1128 442 l 1032 538 l 939 450 l 1035 350 l 1128 442 m 392 1151 l 232 1151 l 314 1075 l 392 1151 m 1140 243 l 1140 407 l 1061 322 l 1140 243 m 288 1049 l 214 1121 l 214 976 l 288 1049 m 1115 213 l 1036 299 l 949 213 l 1115 213 m 407 926 l 308 1024 l 219 928 l 313 833 l 407 926 m 528 804 l 432 896 l 339 808 l 440 710 l 528 804 m 764 564 l 672 658 l 585 564 l 672 472 l 764 564 m 886 443 l 796 539 l 700 442 l 796 354 l 886 443 m 1010 324 l 913 415 l 821 324 l 913 226 l 1010 324 m 647 682 l 551 779 l 457 689 l 563 588 l 647 682 m 286 811 l 214 882 l 214 733 l 286 811 m 875 213 l 790 297 l 703 213 l 875 213 m 410 686 l 313 783 l 224 689 l 317 597 l 410 686 m 528 567 l 432 665 l 340 574 l 433 475 l 528 567 m 765 329 l 669 417 l 581 324 l 668 226 l 765 329 m 642 444 l 550 539 l 463 443 l 554 353 l 642 444 m 288 572 l 214 649 l 214 493 l 288 572 m 629 213 l 551 299 l 464 213 l 629 213 m 410 450 l 313 542 l 219 449 l 308 353 l 410 450 m 524 329 l 432 419 l 335 329 l 428 229 l 524 329 m 285 328 l 214 397 l 214 260 l 285 328 m 394 213 l 308 297 l 222 213 l 394 213 z "},"♨":{"ha":1389,"x_min":0,"x_max":1389,"o":"m 925 500 q 885 424 922 492 q 843 319 851 365 q 836 301 839 301 q 833 310 836 301 q 826 388 824 335 q 838 471 829 429 q 861 636 864 574 q 832 750 860 693 q 797 899 803 832 q 803 976 793 947 q 850 1097 817 1018 q 883 1188 878 1163 q 901 1132 899 1171 q 890 1061 906 1092 q 872 882 858 974 q 913 744 879 839 q 940 613 940 683 q 925 500 942 556 l 925 500 m 742 519 q 700 425 735 497 q 661 319 669 363 q 654 300 657 301 q 651 310 654 300 q 643 388 640 335 q 656 471 646 431 q 676 649 679 568 q 651 772 672 715 q 606 954 606 875 q 619 1036 606 992 q 676 1157 626 1053 q 711 1249 706 1221 q 728 1194 726 1233 q 717 1122 729 1156 q 692 939 686 1024 q 738 775 696 856 q 763 636 767 713 q 742 519 760 585 l 742 519 m 551 500 q 514 424 549 483 q 471 319 479 363 q 464 300 467 301 q 460 310 463 300 q 453 388 450 335 q 463 471 454 432 q 485 636 488 569 q 458 750 482 686 q 424 899 429 832 q 429 976 421 947 q 476 1097 443 1019 q 510 1188 504 1164 q 525 1131 524 1172 q 517 1061 526 1090 q 500 882 486 974 q 539 744 507 836 q 565 614 564 686 q 551 500 565 557 l 551 500 m 1246 358 q 1085 203 1236 278 q 656 114 906 114 q 281 185 428 114 q 135 358 138 254 q 207 499 135 429 q 406 592 288 574 q 415 586 415 593 q 408 576 414 578 q 250 474 286 515 q 218 371 218 438 q 328 272 218 318 q 656 218 456 218 q 1017 282 854 218 q 1165 400 1165 342 q 1143 488 1179 442 q 1007 578 1101 539 q 1007 588 1001 581 q 1019 593 1011 596 q 1207 501 1157 553 q 1246 358 1257 450 l 1246 358 z "},"☏":{"ha":1389,"x_min":0,"x_max":1389,"o":"m 1340 696 q 1179 669 1310 643 q 1026 754 1050 694 q 1044 826 1021 776 q 1040 890 1063 869 q 1003 914 1029 907 q 936 925 1008 913 q 968 715 936 789 q 1124 511 1003 631 q 1172 444 1150 494 q 1197 303 1199 381 q 1232 214 1231 265 q 1160 150 1233 150 l 196 150 q 135 203 139 150 q 165 288 129 250 q 199 435 171 372 q 276 531 228 499 q 417 731 385 633 q 432 943 443 810 q 374 928 401 942 q 339 890 343 911 q 343 819 321 865 q 356 760 367 775 q 207 681 351 711 q 49 686 63 650 q 65 868 3 767 q 232 1004 126 967 q 414 1063 390 1057 q 700 1088 532 1092 q 999 1058 868 1088 q 1179 997 1094 1038 q 1321 851 1267 956 q 1340 696 1372 749 l 1340 696 m 1328 718 q 1290 854 1333 779 q 1117 994 1233 956 q 919 1051 1015 1035 q 700 1069 833 1067 q 468 1057 572 1075 q 235 988 365 1039 q 88 875 136 944 q 64 708 32 796 q 204 707 78 681 q 333 767 331 733 q 319 817 338 775 q 318 889 300 858 q 376 950 328 929 q 446 956 422 971 q 450 843 461 938 q 424 711 440 753 q 374 613 410 661 q 278 511 338 561 q 219 440 240 486 q 183 301 197 393 q 151 221 171 250 q 186 165 132 192 l 1147 165 q 1204 186 1190 168 q 1207 246 1222 206 q 1173 323 1172 274 q 1165 413 1174 372 q 1078 524 1160 433 q 951 692 988 625 q 931 794 939 736 q 922 911 921 861 q 938 942 919 936 q 999 935 957 949 q 1071 883 1053 913 q 1068 833 1090 856 q 1044 779 1046 789 q 1078 729 1040 749 q 1274 685 1210 682 q 1328 718 1321 688 l 1328 718 m 854 843 q 810 803 854 815 q 694 792 771 792 q 550 801 593 783 q 519 843 519 815 l 519 944 q 682 931 588 931 q 854 944 779 931 l 854 843 m 964 483 q 894 301 964 378 q 688 218 817 218 q 483 301 560 218 q 417 483 417 376 q 483 664 417 592 q 688 743 558 743 q 894 664 817 743 q 964 483 964 590 l 964 483 m 835 925 q 682 918 761 918 q 536 932 581 919 q 540 839 536 853 q 581 811 547 817 q 682 806 636 806 q 801 821 750 807 q 831 850 824 825 q 835 925 835 868 l 835 925 m 950 483 q 886 656 950 586 q 693 732 815 732 q 501 656 572 732 q 439 483 439 586 q 501 308 439 381 q 693 229 572 229 q 886 308 814 229 q 950 483 950 381 l 950 483 z "},"☎":{"ha":1389,"x_min":0,"x_max":1389,"o":"m 1340 707 q 1165 692 1313 653 q 1026 785 1019 731 q 1044 853 1022 806 q 1042 913 1063 890 q 1004 942 1029 932 q 939 957 982 950 q 969 732 939 808 q 1124 521 1006 638 q 1174 454 1151 503 q 1199 313 1200 392 q 1233 222 1232 276 q 1161 157 1233 157 l 197 157 q 135 210 140 157 q 165 294 129 260 q 200 443 172 381 q 276 542 228 508 q 418 744 385 642 q 433 961 444 825 q 372 939 400 957 q 340 899 344 921 q 344 831 322 875 q 356 771 368 786 q 207 692 353 722 q 49 694 63 660 q 67 879 3 776 q 235 1014 128 976 q 415 1067 378 1060 q 701 1086 533 1092 q 997 1063 875 1086 q 1181 1006 1101 1043 q 1322 861 1271 967 q 1340 707 1372 758 l 1340 707 m 878 874 l 878 979 q 682 963 788 963 q 499 979 574 961 l 499 874 q 532 826 499 842 q 696 814 579 804 q 822 828 775 814 q 878 874 878 843 l 878 874 m 986 492 q 911 689 986 608 q 689 776 828 776 q 469 689 550 776 q 397 492 397 610 q 469 297 397 376 q 689 207 550 207 q 911 297 826 207 q 986 492 986 378 l 986 492 z "},"☜":{"ha":1389,"x_min":0,"x_max":1389,"o":"m 1368 406 l 1226 406 l 1226 450 q 1097 414 1181 446 q 988 371 989 371 q 804 346 881 340 q 714 375 746 351 q 540 376 596 349 q 507 456 493 401 q 401 500 419 465 q 408 578 390 524 q 332 664 325 601 q 393 747 339 719 q 215 746 311 743 q 67 756 114 747 q 15 810 11 758 q 71 868 21 860 q 401 897 213 885 q 676 908 576 908 q 867 906 763 914 q 988 889 960 899 q 1108 831 997 885 q 1229 788 1181 794 l 1229 860 l 1368 860 l 1368 406 m 1350 433 l 1350 844 l 1249 844 l 1249 433 l 1350 433 m 1229 472 l 1229 771 q 1115 814 1186 781 q 976 878 986 874 q 861 892 954 886 q 694 897 779 897 q 406 882 590 897 q 86 850 233 868 q 32 808 39 842 q 85 769 25 772 q 418 761 218 763 q 526 746 503 760 q 688 831 611 811 q 919 847 757 847 q 928 839 926 847 q 922 829 929 829 q 751 825 794 831 q 578 765 657 814 q 528 725 560 753 q 468 676 489 693 q 456 632 442 654 q 510 611 469 611 q 588 628 550 611 q 701 700 628 646 q 751 703 714 711 q 846 696 804 692 q 864 693 857 699 q 867 678 871 688 q 929 588 879 629 q 1039 524 975 547 q 1040 517 1042 522 q 1035 514 1039 513 q 922 575 968 539 q 843 682 867 619 q 806 683 819 682 q 751 690 786 685 q 767 671 767 674 q 763 658 768 668 q 819 631 801 660 q 810 572 839 601 q 850 538 840 560 q 844 489 857 517 q 807 443 833 467 q 736 393 781 419 q 849 369 772 367 q 1004 401 919 374 q 1106 439 1014 404 q 1229 472 1176 465 l 1229 472 m 736 642 q 740 681 757 660 q 700 678 724 701 q 631 629 678 650 q 511 597 576 606 q 449 613 469 597 q 436 661 424 631 q 458 692 436 679 q 515 733 481 706 q 408 739 440 751 q 357 668 378 726 q 358 626 349 643 q 415 588 371 604 q 456 570 435 581 q 511 557 478 560 q 610 575 551 554 q 736 642 671 597 l 736 642 m 801 589 q 794 639 829 626 q 743 632 758 651 q 561 544 654 556 q 424 568 489 538 q 413 521 413 529 q 439 494 414 508 q 621 478 515 454 q 801 589 738 501 l 801 589 m 825 486 q 831 540 844 513 q 801 553 815 567 q 664 475 733 496 q 528 458 610 458 q 546 410 524 429 q 606 385 567 392 q 726 408 675 385 q 825 486 781 433 l 825 486 z "},"☞":{"ha":1389,"x_min":0,"x_max":1389,"o":"m 1314 883 q 1360 826 1358 878 q 1310 769 1360 775 q 1188 758 1272 761 q 982 757 1094 754 q 1056 672 1053 736 q 986 575 1057 607 q 969 500 996 526 q 879 461 944 474 q 831 375 886 396 q 679 389 775 354 q 538 369 644 364 q 342 407 429 375 q 247 435 296 424 q 153 446 197 444 l 153 406 l 14 406 l 14 857 l 153 857 l 153 792 q 289 851 211 811 q 399 907 388 901 q 554 933 440 929 q 782 929 649 938 q 1038 908 849 925 q 1314 883 1208 894 l 1314 883 m 965 588 q 1033 668 1031 621 q 958 757 1036 719 q 921 757 958 757 q 860 756 893 757 q 911 717 881 738 q 936 694 931 701 q 932 625 968 656 q 856 606 899 594 q 771 640 815 617 q 692 694 721 667 q 642 706 656 719 q 644 665 626 690 q 811 581 699 601 q 965 588 913 561 l 965 588 m 1300 865 q 1075 892 1211 876 q 853 911 915 908 q 639 924 729 921 q 460 913 508 926 q 307 846 404 894 q 153 775 190 790 l 153 474 q 263 450 214 464 q 343 424 288 443 q 504 393 415 396 q 656 407 588 389 q 588 460 617 435 q 547 494 558 486 q 535 544 528 519 q 574 583 542 569 q 547 646 539 619 q 597 682 554 669 q 572 701 585 703 q 544 679 563 700 q 460 569 508 613 q 365 514 418 533 q 339 522 338 508 q 356 538 340 535 q 461 611 415 568 q 528 706 513 658 q 533 717 533 717 q 542 722 536 719 q 573 722 563 726 q 603 713 583 717 q 650 721 651 721 q 685 718 675 724 q 786 653 739 676 q 869 619 829 629 q 925 644 910 617 q 913 690 940 671 q 824 760 883 714 q 756 811 769 800 q 628 856 710 846 q 489 857 574 861 q 469 865 472 857 q 478 874 467 874 q 689 856 617 876 q 840 768 767 835 q 1069 776 910 772 q 1279 781 1250 779 q 1340 821 1335 781 q 1300 865 1344 860 l 1300 865 m 968 574 q 765 568 879 533 q 626 657 660 600 q 582 658 610 681 q 588 593 556 638 q 692 521 618 554 q 833 481 764 488 q 942 503 903 481 q 968 574 988 528 l 968 574 m 861 460 q 722 488 785 465 q 599 558 651 513 q 557 533 565 547 q 567 500 547 519 q 676 419 621 446 q 758 396 717 400 q 843 411 819 390 q 861 460 861 426 l 861 460 m 138 426 l 138 840 l 26 840 l 26 426 l 138 426 z "},"¶":{"ha":1389,"x_min":0,"x_max":1389,"o":"m 922 239 q 913 200 922 211 q 888 190 904 190 l 824 189 l 824 1189 q 868 1188 838 1188 q 922 1188 886 1188 q 922 683 922 1188 q 922 239 922 239 l 922 239 m 715 239 q 706 206 715 218 q 675 190 696 190 l 624 190 l 624 646 q 435 706 504 646 q 353 914 353 774 q 432 1126 353 1065 q 715 1188 513 1189 q 715 693 715 1188 q 715 239 715 239 l 715 239 m 624 699 l 624 1136 q 489 1099 529 1136 q 433 914 433 1049 q 483 740 433 788 q 624 699 524 703 l 624 699 z "},"†":{"ha":1389,"x_min":0,"x_max":1389,"o":"m 1064 836 l 747 836 q 747 553 747 697 q 746 231 746 263 q 724 189 746 201 q 700 182 711 182 l 638 182 l 638 836 l 339 836 l 339 904 l 638 904 l 638 1193 l 747 1193 l 747 904 l 1064 904 l 1064 836 z "},"‡":{"ha":1389,"x_min":0,"x_max":1389,"o":"m 1036 846 l 738 846 l 738 679 l 999 679 l 999 613 l 738 613 q 738 457 738 538 q 738 263 738 263 q 724 200 738 217 q 686 188 713 188 l 636 186 l 636 613 l 356 613 l 356 679 l 636 679 l 636 846 l 325 846 l 325 913 l 636 913 l 636 1190 l 738 1190 l 738 913 l 1036 913 l 1036 846 z "},"↕":{"ha":1389,"x_min":0,"x_max":1389,"o":"m 889 454 l 686 197 l 467 453 l 656 343 l 656 1049 l 467 933 l 679 1190 l 885 942 l 717 1049 l 717 343 l 889 454 z "},"↗":{"ha":1389,"x_min":0,"x_max":1389,"o":"m 1094 1049 l 1065 731 l 993 922 l 256 192 l 217 219 l 958 961 l 767 1031 l 1094 1049 z "},"↙":{"ha":1389,"x_min":0,"x_max":1389,"o":"m 1189 1033 l 456 314 l 643 221 l 308 196 l 336 524 l 418 342 l 1153 1061 l 1189 1033 z "},"↖":{"ha":1389,"x_min":0,"x_max":1389,"o":"m 1199 211 l 1150 172 l 413 924 l 342 711 l 318 1043 l 668 1026 l 447 961 l 1199 211 z "},"↘":{"ha":1389,"x_min":0,"x_max":1389,"o":"m 1100 197 l 771 218 l 972 292 l 244 1028 l 279 1074 l 1006 342 l 1079 536 l 1100 197 z "},"♭":{"ha":1389,"x_min":0,"x_max":1389,"o":"m 875 403 q 722 272 814 326 q 496 189 621 213 l 496 1181 l 575 1181 l 575 736 q 704 831 642 806 q 831 840 764 854 q 971 682 957 825 q 875 403 986 540 l 875 403 m 799 435 q 882 649 888 544 q 775 764 876 756 q 689 749 731 769 q 575 647 635 721 l 575 286 q 707 349 647 306 q 799 435 754 382 l 799 435 z "},"♩":{"ha":1389,"x_min":0,"x_max":1389,"o":"m 790 403 q 656 215 788 286 q 474 207 526 147 q 501 319 435 257 q 621 389 554 369 q 690 411 668 401 q 718 438 718 424 l 718 1182 l 790 1182 l 790 403 z "},"♪":{"ha":1389,"x_min":0,"x_max":1389,"o":"m 1081 740 q 1039 607 1114 686 q 864 460 1001 567 q 831 454 840 444 q 839 478 821 464 q 1022 688 1010 626 q 975 763 1025 707 q 850 865 907 824 q 681 976 776 921 l 682 406 q 558 208 682 282 q 385 199 440 136 q 414 321 343 251 q 533 389 478 385 q 597 408 581 397 q 613 438 613 418 l 613 1186 q 714 1099 643 1157 q 806 1018 782 1040 q 992 850 956 886 q 1081 740 1053 790 l 1081 740 z "},"♬":{"ha":1389,"x_min":0,"x_max":1389,"o":"m 1185 1189 l 1161 519 q 1054 340 1169 436 q 875 311 935 243 q 882 428 842 365 q 1017 515 924 493 q 1085 542 1061 525 q 1106 574 1106 556 l 1115 847 l 524 726 l 506 386 q 364 199 504 271 q 174 192 228 129 q 208 319 128 257 q 350 385 268 367 q 425 406 415 403 q 449 429 449 415 l 479 1075 l 1185 1189 m 1126 1069 l 536 951 l 529 851 l 1121 972 l 1126 1069 z "},"㉿":{"ha":1389,"x_min":0,"x_max":1389,"o":"m 1236 878 l 1147 878 q 986 1076 1115 989 q 701 1167 851 1167 q 339 1029 476 1164 q 196 690 207 900 l 383 690 l 383 629 l 117 629 q 251 1043 119 878 q 701 1240 407 1239 q 1068 1115 919 1238 q 1236 878 1183 1021 l 1236 878 m 894 442 l 794 442 l 661 660 l 594 594 l 594 444 l 511 444 l 511 883 l 594 883 l 594 701 l 782 876 l 893 876 l 715 707 l 894 442 m 1271 690 q 1124 271 1268 439 q 701 86 967 86 q 343 203 506 86 q 156 451 194 310 l 243 451 q 414 246 282 332 q 701 158 549 158 q 1056 303 921 158 q 1182 629 1179 436 l 918 629 l 918 690 l 1271 690 z "},"㈜":{"ha":1389,"x_min":0,"x_max":1389,"o":"m 1292 693 q 1263 440 1293 582 q 1174 156 1231 294 q 1135 165 1164 158 q 1090 176 1108 171 q 1175 442 1143 310 q 1214 722 1214 601 q 1175 964 1214 835 q 1097 1150 1143 1072 q 1133 1168 1125 1164 q 1161 1186 1146 1175 q 1260 942 1226 1075 q 1292 693 1292 818 l 1292 693 m 1029 786 q 1031 738 1042 754 q 986 721 1019 721 l 776 721 l 776 740 q 842 761 825 747 q 851 807 857 776 l 776 904 q 735 957 751 954 q 676 914 718 958 l 522 758 q 474 726 506 738 q 414 717 446 717 l 283 717 l 283 736 q 329 750 317 742 q 363 781 335 753 l 669 1047 l 435 1047 q 379 1058 396 1047 q 357 1104 357 1071 l 357 1125 l 1019 1125 l 1019 1047 l 778 1047 l 1029 786 m 1096 522 l 724 522 l 724 222 q 714 197 724 207 q 688 188 703 188 l 613 188 l 613 522 l 322 522 q 265 533 283 522 q 244 579 244 546 l 244 600 l 1096 600 l 1096 522 m 282 1163 q 190 971 217 1061 q 158 742 164 879 q 183 468 150 631 q 278 200 219 296 q 249 176 263 186 q 207 149 232 163 q 108 431 143 257 q 78 765 78 589 q 118 1011 78 890 q 215 1199 156 1122 q 250 1181 226 1192 q 282 1163 272 1169 l 282 1163 z "},"№":{"ha":1389,"x_min":0,"x_max":1389,"o":"m 1232 560 q 1171 290 1232 400 q 988 167 1103 167 q 814 290 875 167 q 761 560 761 397 q 814 828 761 722 q 988 949 875 949 q 1171 828 1104 949 q 1232 560 1232 719 l 1232 560 m 1340 182 q 1315 143 1340 156 q 1274 144 1292 132 q 1253 186 1251 161 q 1282 222 1254 210 q 1322 217 1301 232 q 1340 182 1340 203 l 1340 182 m 697 238 q 686 194 697 208 q 653 183 675 183 l 601 183 q 346 676 533 310 q 171 1018 251 860 q 169 644 169 919 q 171 238 169 369 q 154 185 171 199 q 125 176 144 176 l 74 176 q 75 586 75 367 q 76 1174 76 1025 q 133 1176 175 1176 q 185 1174 160 1176 q 386 781 313 924 q 604 369 528 508 l 606 1185 l 696 1185 q 697 735 697 1099 q 697 238 697 238 l 697 238 m 1128 575 q 1101 760 1124 696 q 981 860 1065 860 q 872 754 906 860 q 846 564 849 682 q 868 357 842 431 q 993 258 903 256 q 1108 375 1074 260 q 1128 575 1133 460 l 1128 575 z "},"㏇":{"ha":1389,"x_min":0,"x_max":1389,"o":"m 1232 560 q 1171 290 1232 400 q 988 167 1103 167 q 814 290 875 167 q 761 560 761 397 q 814 828 761 722 q 988 949 875 949 q 1171 828 1104 949 q 1232 560 1232 719 l 1232 560 m 1319 172 q 1294 135 1319 146 q 1251 136 1269 122 q 1232 176 1231 153 q 1260 214 1233 201 q 1300 208 1279 224 q 1319 172 1319 193 l 1319 172 m 658 918 l 557 918 q 400 1076 532 1050 q 193 974 265 1103 q 147 622 133 865 q 269 300 163 358 q 422 283 346 263 q 542 410 514 308 q 600 408 546 410 q 651 410 632 408 q 476 200 615 254 q 239 204 353 153 q 97 388 138 256 q 61 751 61 507 q 101 989 61 893 q 244 1150 146 1099 q 472 1153 342 1200 q 658 918 631 1096 l 658 918 m 1128 575 q 1101 760 1124 696 q 981 860 1065 860 q 872 754 906 860 q 846 564 849 682 q 868 357 842 431 q 993 258 903 256 q 1108 375 1074 260 q 1128 575 1133 460 l 1128 575 z "},"™":{"ha":1389,"x_min":0,"x_max":1389,"o":"m 1231 211 q 1225 182 1232 192 q 1208 175 1219 175 q 1185 175 1203 175 q 1154 174 1165 175 l 1156 1003 q 1088 624 1122 818 q 1013 193 1018 236 q 957 192 992 192 q 911 192 919 190 q 825 632 897 253 q 754 999 788 822 q 754 638 754 999 q 754 235 754 235 q 743 185 754 197 q 715 175 735 175 q 697 178 708 176 q 675 176 686 178 q 675 629 675 176 q 675 1136 675 1136 q 685 1172 675 1164 q 704 1176 690 1176 q 735 1176 724 1176 q 769 1178 751 1176 q 867 739 785 1122 q 961 301 956 325 l 1121 1174 q 1156 1174 1135 1172 q 1193 1174 1190 1174 q 1217 1169 1208 1174 q 1231 1136 1231 1160 q 1231 671 1231 1136 q 1231 211 1231 211 l 1231 211 m 601 1110 l 421 1110 q 421 674 421 893 q 421 217 421 217 q 406 189 421 197 q 389 185 397 185 l 321 185 l 319 1110 l 167 1110 q 149 1111 158 1108 q 131 1144 131 1118 l 132 1181 l 601 1181 l 601 1110 z "},"㏂":{"ha":1389,"x_min":0,"x_max":1389,"o":"m 1365 197 q 1342 160 1365 171 q 1300 161 1318 149 q 1281 200 1279 178 q 1310 235 1283 224 q 1347 231 1328 244 q 1365 197 1365 217 l 1365 197 m 1226 243 q 1221 196 1228 211 q 1201 182 1214 182 l 1157 182 q 1157 369 1157 182 q 1157 625 1157 625 q 1093 721 1157 718 q 1029 643 1029 724 q 1029 436 1029 643 q 1029 215 1029 215 q 1019 186 1028 196 q 1011 182 1015 182 l 965 182 q 965 379 965 182 q 965 639 965 639 q 904 707 965 704 q 840 643 842 710 q 840 446 840 643 q 840 218 840 218 q 828 189 840 199 q 814 182 821 183 l 771 182 q 771 433 771 551 q 768 771 771 660 l 840 771 q 842 750 840 768 q 843 732 843 740 q 918 771 872 765 q 999 751 964 776 q 1150 768 1082 800 q 1226 611 1226 732 q 1225 449 1225 563 q 1226 243 1225 318 l 1226 243 m 710 197 q 686 160 710 171 q 644 161 664 149 q 626 200 624 178 q 656 235 629 224 q 692 231 674 244 q 710 197 710 217 l 710 197 m 557 222 q 542 188 551 211 q 525 154 536 174 q 472 172 492 157 q 428 231 449 189 q 329 195 363 210 q 211 167 296 181 q 81 192 132 156 q 18 294 33 226 q 39 421 3 364 q 153 507 75 479 q 318 539 226 533 q 425 547 418 546 q 285 721 411 699 q 81 656 168 742 q 63 682 74 667 q 44 708 51 696 q 229 772 113 769 q 410 721 344 775 q 481 614 458 682 q 503 438 503 546 q 495 304 503 371 q 557 222 488 238 l 557 222 m 432 303 q 432 388 432 303 q 432 481 432 481 q 282 476 372 492 q 124 418 182 458 q 86 306 67 369 q 183 233 106 239 q 324 253 269 225 q 432 303 378 282 l 432 303 z "},"㏘":{"ha":1389,"x_min":0,"x_max":1389,"o":"m 1310 192 q 1286 154 1310 165 q 1244 156 1263 143 q 1226 194 1224 172 q 1254 229 1229 218 q 1292 225 1272 239 q 1310 192 1310 211 l 1310 192 m 1139 240 q 1133 193 1140 208 q 1115 178 1128 178 l 1069 178 q 1069 367 1069 178 q 1069 622 1069 622 q 1007 718 1069 715 q 943 640 943 721 q 943 433 943 640 q 943 213 943 213 q 929 183 942 192 q 917 178 924 178 l 879 178 q 879 376 879 178 q 879 636 879 636 q 818 704 879 701 q 754 640 756 707 q 754 443 754 640 q 754 215 754 215 q 740 185 754 196 q 726 178 733 179 l 681 178 q 682 407 682 282 q 681 768 683 658 l 754 768 q 757 750 754 765 q 760 735 758 742 q 833 771 788 768 q 913 749 876 774 q 1064 765 996 797 q 1139 608 1139 729 q 1138 446 1138 560 q 1139 240 1138 315 l 1139 240 m 521 625 q 483 464 526 517 q 328 406 436 408 q 264 404 307 403 q 185 406 192 406 q 185 286 185 406 q 185 117 185 117 q 178 90 185 103 q 160 75 171 75 l 122 76 l 122 779 q 232 781 183 782 q 333 775 289 781 q 461 733 413 769 q 521 625 517 694 l 521 625 m 560 192 q 536 154 560 165 q 494 156 514 143 q 476 194 474 172 q 504 229 479 218 q 542 225 524 239 q 560 192 560 211 l 560 192 m 446 599 q 419 683 444 654 q 310 722 388 719 q 257 725 286 725 q 185 722 228 725 q 185 586 185 722 q 185 460 185 460 q 261 457 219 457 q 328 461 299 458 q 418 506 386 468 q 446 599 449 542 l 446 599 z "},"℡":{"ha":1389,"x_min":0,"x_max":1389,"o":"m 1226 253 q 1217 207 1226 219 q 1190 197 1208 197 l 1147 197 l 1144 1094 q 1132 1114 1140 1104 q 1089 1132 1114 1132 l 1054 1132 q 1054 1146 1054 1132 q 1054 1160 1054 1160 q 1135 1179 1086 1169 q 1200 1192 1153 1183 q 1225 1176 1221 1196 q 1226 1131 1226 1171 q 1226 703 1226 918 q 1226 253 1226 253 l 1226 253 m 1007 579 q 819 581 988 579 q 589 581 651 581 q 614 400 589 471 q 679 293 635 339 q 829 268 753 233 q 933 386 899 299 q 964 375 942 383 q 997 364 982 369 q 792 192 947 213 q 567 293 639 172 q 506 522 514 386 q 531 739 497 650 q 624 868 563 828 q 779 906 683 907 q 953 792 892 904 q 1007 579 1000 704 l 1007 579 m 596 1122 l 413 1122 q 413 689 413 908 q 413 235 413 235 q 401 203 413 211 q 374 194 394 197 l 336 194 l 336 1122 l 179 1122 q 161 1126 171 1122 q 143 1156 143 1135 l 142 1186 l 596 1186 l 596 1122 m 924 647 q 879 774 911 722 q 768 846 838 842 q 636 782 681 851 q 594 640 603 731 q 799 644 660 640 q 924 647 868 646 l 924 647 z "},"！":{"ha":1389,"x_min":0,"x_max":1389,"o":"m 775 1190 l 757 442 l 617 442 l 599 1190 l 775 1190 m 771 182 l 606 182 l 606 339 l 771 339 l 771 182 z "},"＂":{"ha":1389,"x_min":0,"x_max":1389,"o":"m 932 1182 l 689 896 l 744 1182 l 932 1182 m 644 1182 l 447 899 l 486 1182 l 644 1182 z "},"＃":{"ha":1389,"x_min":0,"x_max":1389,"o":"m 1161 847 l 943 847 l 890 576 q 1046 576 890 576 q 1153 576 1153 576 l 1153 485 l 861 485 l 806 192 l 679 193 l 742 489 l 522 489 l 457 189 l 338 190 l 396 485 l 286 485 q 267 492 276 486 q 246 535 246 506 l 244 576 l 422 576 l 478 847 l 290 847 q 271 851 281 846 q 250 897 250 864 l 250 936 l 504 936 l 557 1181 l 683 1181 l 626 933 l 843 933 l 896 1172 l 1019 1172 l 967 936 l 1161 936 l 1161 847 m 824 857 l 601 857 l 544 576 l 768 576 l 824 857 z "},"＄":{"ha":1389,"x_min":0,"x_max":1389,"o":"m 1039 503 q 978 361 1039 414 q 838 303 926 317 l 838 146 l 735 146 q 736 192 736 161 q 736 289 738 231 q 675 283 696 285 q 625 281 649 281 l 626 143 l 528 144 q 526 208 526 160 q 524 286 524 276 q 394 318 446 290 q 297 401 347 343 l 369 461 q 439 403 400 424 q 525 379 479 381 q 525 521 525 379 q 525 649 525 649 q 371 721 421 668 q 321 863 319 774 q 388 994 322 940 q 524 1054 443 1040 q 522 1136 522 1099 q 524 1185 522 1165 l 624 1185 q 624 1139 624 1185 q 625 1060 624 1100 q 682 1061 665 1061 q 736 1061 713 1063 q 736 1138 738 1103 q 735 1183 736 1164 l 835 1183 q 836 1139 835 1181 q 838 1053 838 1096 q 944 1011 894 1042 q 1036 942 985 988 q 1003 914 1033 939 q 968 874 990 903 q 901 924 926 908 q 838 953 869 944 q 838 819 838 953 q 838 697 838 697 q 983 632 932 679 q 1039 503 1039 582 l 1039 503 m 738 711 q 738 847 738 711 q 738 961 738 961 q 681 968 710 968 q 625 964 651 969 q 625 839 625 964 q 625 725 625 725 q 679 718 647 721 q 738 711 714 715 l 738 711 m 928 506 q 907 569 928 547 q 838 608 888 592 q 838 500 838 536 q 836 404 838 438 q 908 440 888 418 q 928 506 928 463 l 928 506 m 525 740 q 525 854 525 740 q 525 950 525 950 q 453 918 479 943 q 425 851 425 892 q 450 775 425 800 q 525 740 471 754 l 525 740 m 738 386 q 738 497 738 386 q 738 622 738 622 q 675 631 724 624 q 625 638 644 635 q 625 518 625 638 q 625 376 625 376 q 678 379 658 378 q 738 386 707 382 l 738 386 z "},"％":{"ha":1389,"x_min":0,"x_max":1389,"o":"m 694 990 q 639 857 694 914 q 489 794 579 794 q 340 857 397 794 q 289 990 289 913 q 340 1125 289 1069 q 489 1185 397 1185 q 639 1125 579 1185 q 694 990 694 1068 l 694 990 m 1086 1024 l 351 225 l 279 290 l 1011 1085 l 1086 1024 m 1153 382 q 1108 249 1153 301 q 960 188 1056 188 q 806 249 867 188 q 749 382 749 306 q 800 517 749 463 q 949 576 856 576 q 1097 517 1039 576 q 1153 382 1153 461 l 1153 382 m 568 906 q 600 985 606 939 q 551 1064 593 1025 q 481 1103 519 1099 q 408 1079 442 1107 q 379 1013 378 1054 q 407 933 379 974 q 486 882 440 892 q 568 906 535 871 l 568 906 m 1033 290 q 1061 368 1068 322 q 1015 450 1056 414 q 943 490 982 483 q 874 472 904 496 q 840 401 840 444 q 869 322 840 361 q 947 269 903 281 q 1033 290 996 257 l 1033 290 z "},"＆":{"ha":1389,"x_min":0,"x_max":1389,"o":"m 1143 264 q 1108 229 1129 244 q 1063 190 1079 207 q 989 268 1032 221 q 922 336 950 310 q 771 239 829 268 q 613 190 692 199 q 392 236 482 176 q 294 378 307 290 q 344 542 285 471 q 547 719 372 574 q 435 853 483 801 q 396 999 386 906 q 471 1139 404 1086 q 633 1192 535 1189 q 810 1142 732 1193 q 901 976 901 1082 q 832 826 901 903 q 700 710 793 781 q 826 574 769 628 q 931 468 882 519 q 981 526 946 486 q 1019 572 1010 563 l 1097 508 q 1056 464 1053 461 q 999 403 1022 428 q 1078 326 1039 363 q 1143 264 1099 306 l 1143 264 m 779 964 q 746 1058 779 1022 q 635 1097 708 1097 q 538 1067 574 1096 q 503 990 503 1038 q 538 883 503 933 q 633 782 563 846 q 729 867 694 829 q 779 964 779 921 l 779 964 m 860 400 q 726 538 801 458 q 618 653 644 626 q 480 546 553 593 q 404 425 407 499 q 446 332 404 371 q 576 289 494 288 q 717 319 649 292 q 860 400 779 344 l 860 400 z "},"＇":{"ha":1389,"x_min":0,"x_max":1389,"o":"m 817 1188 l 692 892 l 592 1188 l 817 1188 z "},"（":{"ha":1389,"x_min":0,"x_max":1389,"o":"m 826 142 q 785 100 807 122 q 739 54 746 61 q 514 347 592 175 q 442 689 442 510 q 507 1031 440 865 q 683 1300 571 1192 q 724 1261 703 1279 q 776 1221 739 1249 q 610 976 667 1118 q 560 689 554 839 q 633 390 564 533 q 826 142 704 244 l 826 142 z "},"）":{"ha":1389,"x_min":0,"x_max":1389,"o":"m 847 668 q 792 354 844 506 q 646 61 744 219 q 595 94 617 81 q 540 128 574 108 q 676 367 626 221 q 728 664 725 508 q 681 988 733 838 q 531 1218 628 1140 q 568 1256 556 1242 q 606 1300 585 1274 q 788 1031 724 1197 q 847 668 849 868 l 847 668 z "},"＊":{"ha":1389,"x_min":0,"x_max":1389,"o":"m 935 1026 q 843 979 896 1004 q 747 935 800 958 q 851 872 783 911 q 926 824 901 843 q 935 754 969 797 q 861 740 900 711 q 801 797 840 758 q 717 879 735 861 q 729 796 739 721 q 739 707 735 756 q 685 661 743 661 q 631 711 625 661 q 642 782 635 742 q 658 874 644 804 q 570 789 607 825 q 517 740 533 753 q 439 750 475 708 q 439 818 401 790 q 528 867 458 832 q 635 928 600 904 q 521 976 574 953 q 444 1013 465 1000 q 428 1082 403 1035 q 499 1097 453 1129 q 576 1044 579 1042 q 661 989 621 1014 q 640 1090 654 1033 q 628 1156 629 1139 q 686 1196 625 1194 q 747 1163 749 1197 q 735 1081 747 1138 q 711 976 713 986 q 808 1061 756 1014 q 871 1117 863 1110 q 936 1094 903 1143 q 935 1026 971 1046 l 935 1026 z "},"＋":{"ha":1389,"x_min":0,"x_max":1389,"o":"m 1168 690 l 765 690 q 767 485 765 590 q 767 244 767 274 q 743 193 767 208 q 700 183 728 183 l 626 183 l 626 690 l 289 690 q 251 699 269 690 q 213 754 213 714 l 213 774 l 626 774 q 626 915 626 842 q 626 1089 626 1089 q 614 1126 626 1124 q 564 1124 625 1124 l 542 1124 l 542 1149 q 624 1172 578 1160 q 732 1203 690 1192 q 765 1165 760 1208 q 765 1122 768 1144 l 765 774 l 1168 774 l 1168 690 z "},"，":{"ha":1389,"x_min":0,"x_max":1389,"o":"m 258 256 q 194 131 257 176 q 51 88 136 88 q 54 129 54 104 q 57 168 56 156 q 129 193 103 172 q 163 250 154 213 l 53 250 l 53 424 l 258 424 l 258 256 z "},"－":{"ha":1389,"x_min":0,"x_max":1389,"o":"m 1136 550 l 369 551 q 325 554 347 549 q 281 613 281 565 q 281 639 281 613 q 281 674 281 674 l 1136 674 l 1136 550 z "},"．":{"ha":1389,"x_min":0,"x_max":1389,"o":"m 228 208 l 40 208 l 40 396 l 228 396 l 228 208 z "},"／":{"ha":1389,"x_min":0,"x_max":1389,"o":"m 990 1133 l 465 213 l 372 268 l 886 1178 l 990 1133 z "},"０":{"ha":1389,"x_min":0,"x_max":1389,"o":"m 1029 674 q 947 288 1029 414 q 696 160 865 163 q 454 288 538 160 q 371 674 371 417 q 450 1064 371 940 q 696 1186 528 1186 q 940 1085 864 1186 q 1029 674 1029 967 l 1029 674 m 893 674 q 838 996 893 900 q 696 1075 792 1075 q 551 985 599 1075 q 501 674 501 888 q 556 354 501 450 q 696 272 601 274 q 836 353 790 272 q 893 674 892 449 l 893 674 z "},"１":{"ha":1389,"x_min":0,"x_max":1389,"o":"m 801 151 l 669 151 l 669 926 q 550 842 615 881 q 424 782 489 807 l 424 907 q 601 1024 525 957 q 711 1157 676 1089 l 801 1157 l 801 151 z "},"２":{"ha":1389,"x_min":0,"x_max":1389,"o":"m 1007 158 l 339 158 q 540 475 344 282 q 814 743 817 747 q 854 957 896 858 q 686 1056 811 1054 q 551 1006 601 1056 q 497 857 500 954 l 363 871 q 461 1090 378 1017 q 688 1164 542 1164 q 989 1006 913 1164 q 897 646 1068 840 q 707 465 853 594 q 518 285 561 335 l 1007 285 l 1007 158 z "},"３":{"ha":1389,"x_min":0,"x_max":1389,"o":"m 1033 443 q 1033 401 1033 406 q 1028 361 1032 378 q 908 194 1000 260 q 690 128 815 129 q 476 206 563 128 q 371 418 389 283 l 501 435 q 574 283 524 331 q 693 238 619 239 q 835 294 778 238 q 896 440 893 351 q 833 596 896 547 q 614 614 761 651 l 614 724 q 790 767 732 726 q 850 894 850 808 q 807 1000 850 960 q 689 1043 761 1043 q 576 1000 619 1043 q 514 864 529 956 l 382 886 q 489 1083 408 1015 q 688 1153 567 1150 q 897 1075 810 1153 q 983 892 983 997 q 954 783 983 832 q 858 692 924 733 q 972 618 929 665 q 1028 507 1014 572 q 1032 475 1031 492 q 1033 443 1033 461 l 1033 443 z "},"４":{"ha":1389,"x_min":0,"x_max":1389,"o":"m 1025 385 l 892 385 l 892 147 l 760 147 l 760 385 l 329 385 l 329 507 l 782 1151 l 892 1151 l 892 507 l 1025 507 l 1025 385 m 760 507 l 760 938 l 460 507 l 760 507 z "},"５":{"ha":1389,"x_min":0,"x_max":1389,"o":"m 1046 489 q 950 235 1046 338 q 700 131 853 132 q 478 207 564 131 q 375 418 392 283 l 514 429 q 578 286 528 336 q 700 239 626 239 q 847 304 789 239 q 907 481 907 372 q 753 685 907 639 q 519 614 601 732 l 396 621 l 496 1138 l 999 1138 l 999 1013 l 600 1013 l 549 761 q 885 771 724 861 q 1046 489 1046 681 l 1046 489 z "},"６":{"ha":1389,"x_min":0,"x_max":1389,"o":"m 1021 475 q 933 232 1021 331 q 701 129 842 129 q 451 242 540 129 q 354 617 354 367 q 449 1021 354 885 q 714 1153 540 1153 q 907 1089 832 1153 q 1006 899 983 1022 l 874 890 q 807 1014 853 978 q 706 1044 768 1044 q 553 965 607 1044 q 486 685 494 878 q 600 774 540 746 q 719 800 656 800 q 933 710 847 800 q 1021 475 1019 618 l 1021 475 m 888 468 q 833 625 888 565 q 696 685 782 682 q 561 628 615 685 q 501 475 503 568 q 561 311 501 383 q 700 239 621 240 q 832 300 781 239 q 888 468 886 363 l 888 468 z "},"７":{"ha":1389,"x_min":0,"x_max":1389,"o":"m 1060 1126 l 1060 1019 q 818 660 918 869 q 679 136 700 407 l 544 136 q 647 571 551 322 q 890 1000 749 829 l 407 1000 l 407 1126 l 1060 1126 z "},"８":{"ha":1389,"x_min":0,"x_max":1389,"o":"m 1018 433 q 926 217 1018 303 q 683 128 833 129 q 444 215 539 128 q 350 435 353 301 q 394 589 350 525 q 532 693 439 653 q 425 776 458 725 q 394 893 394 822 q 471 1075 394 1004 q 682 1150 550 1150 q 894 1075 811 1150 q 976 889 976 1001 q 946 778 976 824 q 839 692 913 725 q 975 585 931 650 q 1018 433 1018 521 l 1018 433 m 842 889 q 796 997 842 953 q 683 1042 750 1042 q 572 1000 617 1042 q 526 896 528 957 q 569 783 526 828 q 685 738 614 738 q 796 782 750 738 q 842 889 842 825 l 842 889 m 885 431 q 828 574 885 517 q 682 632 769 632 q 543 576 599 632 q 488 435 488 519 q 543 297 488 358 q 685 235 601 235 q 829 290 772 235 q 885 431 885 344 l 885 431 z "},"９":{"ha":1389,"x_min":0,"x_max":1389,"o":"m 1043 685 q 1001 379 1043 496 q 878 206 963 268 q 786 160 836 175 q 681 144 735 144 q 492 208 564 144 q 397 401 417 275 l 525 414 q 581 293 539 331 q 685 254 618 257 q 779 279 738 254 q 849 346 821 303 q 896 428 892 417 q 913 621 917 489 q 803 529 861 560 q 679 499 746 500 q 468 589 551 499 q 381 829 381 683 q 469 1074 381 979 q 694 1167 557 1167 q 878 1115 797 1167 q 1000 967 960 1063 q 1032 849 1022 919 q 1043 685 1043 778 l 1043 685 m 900 835 q 833 996 900 933 q 688 1054 772 1053 q 557 993 607 1054 q 504 826 504 931 q 564 674 504 735 q 707 614 622 614 q 846 672 793 614 q 900 835 900 733 l 900 835 z "},"：":{"ha":1389,"x_min":0,"x_max":1389,"o":"m 782 679 l 603 679 l 603 886 l 782 886 l 782 679 m 782 236 l 603 236 l 603 444 l 782 444 l 782 236 z "},"；":{"ha":1389,"x_min":0,"x_max":1389,"o":"m 774 679 l 594 679 l 594 886 l 774 886 l 774 679 m 783 433 l 782 278 q 742 181 776 211 q 629 138 710 153 q 628 179 629 157 q 626 211 626 201 q 676 233 660 219 q 704 274 693 247 q 642 271 678 272 q 604 269 611 269 l 604 433 l 783 433 z "},"＜":{"ha":1389,"x_min":0,"x_max":1389,"o":"m 1018 201 q 979 154 997 175 q 936 107 935 106 q 564 369 797 196 q 194 653 360 519 q 596 928 281 713 q 908 1144 853 1103 q 951 1103 935 1122 q 985 1063 967 1083 q 707 868 951 1040 q 381 644 492 717 q 697 415 511 544 q 1018 201 889 282 l 1018 201 z "},"＝":{"ha":1389,"x_min":0,"x_max":1389,"o":"m 1222 796 l 363 796 q 329 806 346 796 q 294 864 294 822 q 293 894 294 876 q 292 924 293 911 l 1222 924 l 1222 796 m 1222 313 l 379 315 q 338 328 358 318 q 294 379 294 347 q 293 414 294 394 q 292 442 293 431 l 1222 442 l 1222 313 z "},"＞":{"ha":1389,"x_min":0,"x_max":1389,"o":"m 1197 618 q 747 324 1001 481 q 404 104 493 167 q 375 163 351 210 q 349 219 363 186 q 661 407 528 325 q 985 618 844 521 q 632 869 807 744 q 358 1057 457 994 q 397 1103 386 1090 q 426 1143 408 1117 q 797 893 519 1086 q 1197 618 1117 671 l 1197 618 z "},"？":{"ha":1389,"x_min":0,"x_max":1389,"o":"m 1056 876 q 985 715 1042 778 q 838 592 969 697 q 738 494 768 538 q 696 371 699 439 q 639 371 681 371 q 588 372 608 369 q 624 528 588 460 q 725 646 657 592 q 882 775 847 738 q 940 892 929 825 q 882 1039 953 975 q 711 1094 811 1101 q 579 1044 622 1089 q 519 911 540 1004 q 467 913 494 914 q 407 913 435 911 q 486 1106 415 1028 q 699 1197 567 1192 q 969 1113 864 1204 q 1056 876 1076 1019 l 1056 876 m 728 108 l 547 111 l 547 294 l 728 294 l 728 108 z "},"＠":{"ha":1389,"x_min":0,"x_max":1389,"o":"m 1233 878 q 1219 669 1240 761 q 1104 469 1189 540 q 951 400 1024 407 q 844 439 886 394 q 732 367 782 382 q 618 361 685 351 q 449 476 504 381 q 411 696 396 568 q 561 933 432 874 q 851 943 671 985 q 860 974 854 951 q 864 994 863 989 l 981 994 q 943 746 954 824 q 908 535 921 606 q 926 514 908 515 q 964 517 935 513 q 1083 617 1039 531 q 1124 819 1126 700 q 1008 1071 1118 981 q 749 1157 907 1154 q 435 1025 579 1164 q 269 661 282 876 q 390 339 260 474 q 706 203 518 206 q 983 274 869 200 q 1114 411 1061 324 q 1163 379 1125 404 q 1215 349 1188 361 q 975 133 1136 201 q 625 101 815 68 q 288 268 400 147 q 161 646 161 403 q 360 1099 172 928 q 743 1250 525 1250 q 1086 1138 944 1250 q 1233 878 1222 1029 l 1233 878 m 826 646 q 821 797 842 743 q 700 875 793 869 q 572 825 617 878 q 525 697 538 782 q 540 531 510 594 q 643 457 571 467 q 772 507 725 449 q 826 646 813 556 l 826 646 z "},"Ａ":{"ha":1389,"x_min":0,"x_max":1389,"o":"m 1192 246 q 1178 189 1215 207 q 1135 178 1158 179 q 1039 178 1115 178 q 943 176 961 176 l 943 224 q 1015 238 999 225 q 1019 260 1024 246 q 974 369 1007 288 q 924 490 942 450 q 708 490 924 490 q 551 490 551 490 q 481 347 522 429 q 425 242 426 244 q 394 196 393 194 q 343 176 376 176 q 276 176 326 176 q 196 175 225 175 l 196 225 q 261 257 240 233 q 281 289 265 261 q 531 797 428 578 q 658 1099 633 1018 q 657 1124 664 1115 q 631 1133 650 1132 q 600 1132 618 1132 q 572 1132 572 1132 l 572 1189 q 706 1189 596 1190 q 836 1189 815 1189 q 878 1175 865 1189 q 876 1131 892 1158 l 831 1044 q 975 725 847 1004 q 1192 246 1133 376 l 1192 246 m 892 579 q 821 775 863 669 q 758 949 781 879 q 668 756 701 826 q 590 582 636 685 l 892 579 z "},"Ｂ":{"ha":1389,"x_min":0,"x_max":1389,"o":"m 1153 447 q 1153 429 1153 435 q 1150 411 1151 418 q 1056 243 1136 313 q 917 182 985 182 q 729 183 896 182 q 488 183 564 183 q 424 204 454 183 q 388 274 388 231 q 388 665 388 274 q 388 1099 388 1099 q 389 1129 388 1133 q 358 1146 385 1147 q 339 1146 358 1146 q 317 1146 317 1146 l 317 1192 q 397 1189 367 1189 q 469 1192 456 1188 q 513 1179 499 1192 q 526 1133 526 1165 l 526 749 q 690 749 632 749 q 800 750 797 749 q 892 814 856 751 q 919 947 925 874 q 879 1053 915 1011 q 781 1099 840 1099 l 578 1099 q 594 1151 581 1129 q 651 1192 614 1186 q 753 1192 700 1192 q 872 1190 857 1192 q 1019 1119 964 1182 q 1079 979 1068 1064 q 1065 833 1088 906 q 997 715 1043 761 q 1132 576 1097 665 q 1153 447 1151 529 l 1153 447 m 990 447 q 951 590 994 528 q 833 657 904 657 l 528 657 q 528 465 528 657 q 528 322 528 322 q 547 282 528 292 q 590 274 561 274 l 861 274 q 949 328 910 276 q 990 447 989 381 l 990 447 z "},"Ｃ":{"ha":1389,"x_min":0,"x_max":1389,"o":"m 1086 518 q 972 268 1067 353 q 746 178 889 192 q 456 281 588 165 q 294 646 304 414 q 403 1069 286 933 q 726 1194 508 1194 q 988 1081 886 1194 q 1079 871 1071 988 q 997 870 1015 871 q 940 872 978 869 q 854 1026 918 975 q 715 1075 797 1072 q 506 985 583 1079 q 431 739 431 892 q 533 393 431 504 q 751 311 618 300 q 886 365 836 322 q 953 515 946 418 q 1015 517 976 515 q 1086 518 1056 518 l 1086 518 z "},"Ｄ":{"ha":1389,"x_min":0,"x_max":1389,"o":"m 1175 682 q 1172 639 1175 663 q 1165 599 1176 676 q 1017 289 1140 410 q 801 183 910 183 l 499 183 q 425 190 438 183 q 400 260 400 203 q 400 631 400 435 q 400 1122 400 1122 q 394 1146 400 1138 q 363 1156 385 1158 q 344 1156 357 1154 q 325 1156 324 1156 l 325 1204 q 400 1203 349 1203 q 476 1204 451 1203 q 521 1189 507 1204 q 535 1142 535 1174 l 535 344 q 550 300 535 314 q 596 289 564 289 q 682 288 639 286 q 763 289 753 289 q 954 408 882 296 q 1025 711 1025 524 q 963 951 1019 840 q 790 1085 894 1083 q 690 1088 726 1088 q 597 1085 640 1088 q 628 1157 599 1125 q 683 1186 656 1186 q 768 1188 742 1186 q 828 1192 781 1188 q 1056 1069 958 1185 q 1175 682 1175 929 l 1175 682 z "},"Ｅ":{"ha":1389,"x_min":0,"x_max":1389,"o":"m 1117 1094 l 551 1094 q 575 1175 553 1158 q 629 1188 583 1182 l 1117 1188 l 1117 1094 m 1189 371 q 1122 256 1153 303 q 1050 183 1075 185 q 760 183 907 183 q 442 182 464 182 q 379 204 403 182 q 357 265 357 226 q 357 753 357 265 q 357 1110 357 1110 q 350 1132 357 1128 q 325 1135 346 1135 l 278 1135 l 278 1186 q 361 1188 293 1186 q 453 1188 428 1188 q 510 1178 500 1188 q 513 1149 513 1174 q 515 935 514 1090 q 515 732 515 853 l 1054 732 l 1054 632 l 517 632 q 518 464 517 594 q 518 328 518 335 q 533 294 518 304 q 568 285 546 285 q 768 286 664 286 q 1019 286 976 288 q 1099 318 1042 288 q 1189 371 1129 335 l 1189 371 z "},"Ｆ":{"ha":1389,"x_min":0,"x_max":1389,"o":"m 1108 1088 l 557 1088 q 582 1168 558 1150 q 636 1181 589 1174 l 1108 1179 l 1108 1088 m 1046 653 l 522 653 q 524 438 522 608 q 524 254 524 267 q 510 189 524 208 q 456 167 494 167 l 365 167 q 365 718 365 167 q 365 1115 365 1115 q 357 1139 365 1135 q 331 1140 353 1140 l 279 1140 l 279 1183 q 363 1181 329 1181 q 454 1183 426 1179 q 513 1172 500 1188 q 518 1138 518 1164 q 521 940 519 1079 q 521 754 521 864 l 1046 754 l 1046 653 z "},"Ｇ":{"ha":1389,"x_min":0,"x_max":1389,"o":"m 1139 535 l 1071 535 q 1072 383 1071 500 q 1072 249 1072 268 q 1051 194 1072 210 q 1008 182 1036 182 l 946 182 l 944 258 q 836 199 882 217 q 736 179 792 182 q 453 269 572 174 q 300 615 307 386 q 407 1051 290 906 q 731 1190 517 1190 q 990 1078 890 1190 q 1083 868 1074 985 q 1001 868 1019 868 q 944 872 982 869 q 858 1024 922 974 q 719 1071 801 1068 q 510 967 589 1076 q 435 708 435 865 q 526 374 435 474 q 736 301 601 290 q 872 361 819 310 q 939 544 939 425 q 903 533 917 531 q 879 536 890 536 q 853 543 865 536 q 829 582 831 554 l 828 613 l 1139 613 l 1139 535 z "},"Ｈ":{"ha":1389,"x_min":0,"x_max":1389,"o":"m 1129 268 q 1115 200 1129 219 q 1067 182 1100 182 l 972 182 l 972 682 l 453 682 q 453 457 453 682 q 453 264 453 264 q 435 203 453 222 q 379 182 417 182 l 294 182 q 294 653 294 238 q 293 1082 293 1069 q 286 1097 292 1090 q 261 1111 276 1113 l 214 1111 l 214 1144 q 292 1165 228 1149 q 388 1192 361 1185 q 438 1182 422 1197 q 450 1131 450 1167 l 450 783 l 969 783 l 968 1076 q 965 1096 968 1086 q 947 1114 960 1114 l 886 1114 l 885 1150 q 961 1167 908 1154 q 1053 1188 1018 1179 q 1108 1189 1089 1201 q 1129 1133 1129 1176 q 1129 725 1129 933 q 1129 268 1129 268 l 1129 268 z "},"Ｉ":{"ha":1389,"x_min":0,"x_max":1389,"o":"m 782 1133 q 782 699 782 918 q 781 244 782 261 q 764 200 781 215 q 714 183 747 185 l 640 183 q 640 593 640 781 q 638 1050 640 956 q 635 1079 636 1075 q 606 1094 628 1094 l 554 1094 l 554 1128 q 639 1158 572 1133 q 714 1186 717 1188 q 763 1186 744 1197 q 782 1133 782 1174 l 782 1133 z "},"Ｊ":{"ha":1389,"x_min":0,"x_max":1389,"o":"m 994 511 q 894 258 994 351 q 668 168 806 178 q 468 219 558 164 q 315 486 335 300 l 432 486 q 524 317 447 375 q 674 274 592 265 q 789 340 740 281 q 844 513 844 408 q 849 792 849 635 q 849 1033 847 981 q 844 1063 849 1054 q 814 1076 838 1076 l 763 1078 l 763 1111 q 847 1140 786 1118 q 922 1168 908 1163 q 971 1171 951 1182 q 993 1117 992 1157 q 994 829 993 975 q 994 511 994 536 l 994 511 z "},"Ｋ":{"ha":1389,"x_min":0,"x_max":1389,"o":"m 1183 188 l 1003 188 q 857 403 988 210 q 681 672 768 532 q 588 594 631 632 q 543 554 574 582 q 544 386 543 511 q 543 244 546 261 q 525 200 543 215 q 472 185 507 185 l 399 185 q 399 588 399 404 q 396 1036 397 942 q 393 1071 393 1069 q 367 1092 388 1090 l 328 1092 l 328 1128 q 403 1158 339 1132 q 471 1186 461 1182 q 518 1186 500 1197 q 538 1132 538 1174 l 538 721 q 766 940 679 840 q 946 1139 853 1040 l 1125 1139 q 933 933 1022 1028 q 772 756 844 838 q 1000 439 860 626 q 1183 188 1146 242 l 1183 188 z "},"Ｌ":{"ha":1389,"x_min":0,"x_max":1389,"o":"m 1231 361 q 1193 258 1211 292 q 1132 206 1167 210 q 793 204 965 204 q 419 201 449 201 q 363 222 383 201 q 338 297 338 247 q 338 753 338 297 q 338 1051 338 1051 q 325 1081 338 1072 q 294 1088 314 1088 l 244 1088 l 244 1125 q 336 1154 268 1132 q 417 1182 403 1176 q 465 1183 447 1196 q 485 1129 485 1169 q 485 749 485 940 q 485 349 485 349 q 499 306 485 318 q 536 294 511 294 q 867 294 536 294 q 1101 294 1101 294 q 1163 319 1118 294 q 1231 361 1190 335 l 1231 361 z "},"Ｍ":{"ha":1389,"x_min":0,"x_max":1389,"o":"m 1221 271 q 1203 207 1221 229 q 1147 185 1183 185 l 1083 185 l 1083 942 q 969 631 1031 796 q 810 193 847 297 q 736 193 810 193 q 631 193 631 193 q 482 617 593 289 q 379 926 426 782 q 378 520 379 765 q 378 260 378 275 q 360 201 378 224 q 317 179 343 179 l 243 179 l 243 1189 q 304 1189 243 1189 q 364 1190 349 1189 q 417 1181 399 1193 q 460 1114 439 1165 q 583 760 503 1003 q 724 339 693 428 q 885 797 788 508 q 1013 1185 947 983 l 1157 1185 q 1207 1165 1192 1185 q 1221 1107 1221 1146 q 1221 638 1221 1107 q 1221 271 1221 271 l 1221 271 z "},"Ｎ":{"ha":1389,"x_min":0,"x_max":1389,"o":"m 1121 244 q 1093 188 1119 204 q 1044 176 1075 176 q 990 176 1044 176 q 947 176 947 176 q 688 601 838 329 q 479 972 511 922 q 481 606 479 879 q 481 261 481 332 q 468 207 481 228 q 428 183 454 183 l 346 183 l 346 1183 q 401 1185 367 1185 q 431 1186 418 1186 q 485 1175 461 1186 q 535 1126 515 1161 q 715 803 563 1083 q 985 372 847 563 q 985 764 985 878 q 982 1054 985 951 q 979 1083 981 1079 q 950 1099 972 1099 l 897 1100 l 897 1132 q 982 1163 915 1138 q 1057 1190 1060 1192 q 1103 1192 1086 1203 q 1121 1138 1121 1178 q 1124 814 1122 997 q 1121 244 1125 450 l 1121 244 z "},"Ｏ":{"ha":1389,"x_min":0,"x_max":1389,"o":"m 1188 704 q 1068 321 1194 460 q 686 175 938 178 q 332 329 456 172 q 221 692 221 469 q 371 1051 222 903 q 686 1190 511 1190 q 1051 1039 908 1190 q 1188 704 1182 899 l 1188 704 m 1029 688 q 933 974 1025 857 q 696 1094 839 1094 q 461 974 553 1094 q 372 688 372 857 q 456 390 372 504 q 696 271 542 271 q 942 390 847 271 q 1029 688 1035 508 l 1029 688 z "},"Ｐ":{"ha":1389,"x_min":0,"x_max":1389,"o":"m 1150 883 q 1072 672 1151 743 q 886 606 1006 613 q 750 604 829 604 q 490 601 593 601 q 490 424 490 601 q 490 231 490 231 q 471 175 490 192 q 428 163 456 163 q 389 163 431 163 q 346 163 364 161 q 350 693 349 288 q 350 1110 350 899 q 346 1147 350 1135 q 324 1167 340 1167 l 271 1165 l 271 1201 q 343 1203 294 1201 q 428 1204 394 1203 q 471 1194 458 1204 q 490 1132 490 1179 l 490 692 q 692 690 571 689 q 853 689 808 690 q 971 754 929 690 q 1006 926 1014 818 q 951 1046 999 999 q 750 1111 885 1114 q 640 1111 694 1110 q 560 1113 575 1113 q 578 1176 564 1158 q 642 1200 596 1200 q 717 1197 693 1197 q 742 1199 733 1197 q 1067 1111 967 1203 q 1149 922 1136 1046 q 1150 903 1150 915 q 1150 883 1150 890 l 1150 883 z "},"Ｑ":{"ha":1389,"x_min":0,"x_max":1389,"o":"m 1242 253 q 1207 185 1225 217 q 1182 150 1183 140 q 1113 189 1153 167 q 983 263 1033 233 q 849 196 926 222 q 718 169 774 169 q 376 333 503 169 q 264 692 264 481 q 371 1039 264 903 q 707 1190 490 1190 q 1056 1047 928 1190 q 1178 704 1175 915 q 1140 503 1178 608 q 1061 342 1110 415 q 1168 288 1107 315 q 1242 253 1200 272 l 1242 253 m 1039 704 q 954 964 1035 861 q 711 1079 864 1079 q 472 958 558 1079 q 396 692 396 850 q 478 424 396 536 q 722 297 571 297 q 778 304 753 297 q 850 331 807 311 q 788 361 833 339 q 740 385 751 379 l 796 483 q 871 444 896 431 q 953 407 928 415 q 1014 517 993 453 q 1039 704 1042 597 l 1039 704 z "},"Ｒ":{"ha":1389,"x_min":0,"x_max":1389,"o":"m 1135 932 q 1065 736 1135 813 q 896 653 1001 665 q 1019 393 950 543 q 1129 179 1088 243 q 1019 179 1082 179 q 953 178 956 178 q 868 373 931 215 q 756 653 806 531 q 592 654 710 653 q 482 656 532 656 q 481 461 479 581 q 482 260 482 342 q 471 199 482 217 q 419 176 457 176 q 376 176 419 176 q 340 176 340 176 q 340 644 340 176 q 340 1074 340 1074 q 336 1117 340 1106 q 299 1143 328 1143 l 257 1143 l 257 1181 q 333 1182 282 1181 q 422 1183 388 1182 q 463 1168 449 1183 q 482 1106 481 1150 q 482 921 482 1106 q 482 747 482 747 q 642 746 557 746 q 860 744 813 743 q 956 810 917 747 q 990 924 990 865 q 939 1054 986 1007 q 839 1097 897 1096 q 708 1096 778 1097 q 535 1096 571 1094 q 550 1158 533 1138 q 617 1183 569 1183 q 786 1181 665 1181 q 897 1182 847 1182 q 1058 1126 993 1182 q 1135 932 1135 1058 l 1135 932 z "},"Ｓ":{"ha":1389,"x_min":0,"x_max":1389,"o":"m 1053 1007 l 946 928 q 835 1035 894 997 q 718 1075 782 1067 q 581 1057 632 1088 q 513 960 533 1028 q 542 811 483 864 q 768 750 604 756 q 1024 603 951 740 q 1038 374 1083 486 q 886 207 990 257 q 667 175 793 163 q 464 244 553 183 q 339 357 421 274 l 442 451 q 599 321 522 349 q 783 318 667 296 q 918 490 932 347 q 728 633 903 635 q 399 777 443 632 q 372 978 354 922 q 524 1167 418 1113 q 729 1201 607 1210 q 907 1138 817 1194 q 1053 1007 986 1086 l 1053 1007 z "},"Ｔ":{"ha":1389,"x_min":0,"x_max":1389,"o":"m 1160 1088 q 1006 1089 1125 1088 q 776 1088 888 1090 q 779 581 779 936 q 778 256 779 403 q 768 199 779 217 q 736 179 758 179 q 700 178 721 178 q 632 175 658 175 q 635 781 636 424 q 633 1086 635 958 q 458 1088 589 1086 q 329 1088 328 1088 q 282 1099 297 1088 q 261 1156 261 1115 q 261 1171 261 1168 q 263 1190 261 1163 l 1160 1190 l 1160 1088 z "},"Ｕ":{"ha":1389,"x_min":0,"x_max":1389,"o":"m 1061 1129 l 1060 494 q 946 251 1060 347 q 690 158 839 161 q 422 240 535 156 q 288 531 288 340 q 286 799 288 664 q 285 1078 285 1068 q 279 1093 283 1086 q 253 1106 269 1107 l 204 1106 q 204 1122 204 1106 q 204 1140 204 1140 q 282 1163 228 1146 q 364 1186 339 1181 q 413 1178 397 1194 q 425 1125 425 1164 l 425 489 q 511 313 425 379 q 675 258 583 256 q 835 324 758 261 q 913 467 914 390 l 914 1072 q 913 1090 915 1081 q 893 1107 908 1107 l 832 1107 l 832 1144 q 900 1161 840 1147 q 986 1183 958 1175 q 1044 1183 1026 1196 q 1061 1129 1063 1171 l 1061 1129 z "},"Ｖ":{"ha":1389,"x_min":0,"x_max":1389,"o":"m 1071 1111 l 771 186 l 617 186 l 311 1118 q 304 1131 310 1125 q 272 1142 294 1143 l 242 1140 l 242 1174 q 321 1175 261 1174 q 383 1175 381 1175 q 424 1154 406 1175 q 439 1132 433 1143 l 694 364 l 919 1125 q 919 1138 921 1132 q 901 1150 917 1150 l 850 1150 l 850 1175 q 943 1175 850 1175 q 1028 1175 1028 1175 q 1064 1158 1051 1175 q 1071 1111 1076 1140 l 1071 1111 z "},"Ｗ":{"ha":1389,"x_min":0,"x_max":1389,"o":"m 1283 1121 l 1176 265 q 1160 221 1172 243 q 1099 182 1135 178 l 968 182 q 860 557 947 249 q 725 1018 772 865 q 608 597 665 806 q 497 244 550 389 q 475 203 486 217 q 425 179 454 178 l 299 178 l 193 1129 q 190 1140 193 1135 q 161 1150 182 1151 l 124 1150 l 124 1189 q 208 1190 144 1189 q 274 1190 271 1190 q 314 1168 296 1190 q 328 1146 324 1157 l 408 393 q 504 728 454 550 q 633 1182 606 1082 q 738 1181 686 1181 q 808 1182 789 1181 q 957 704 846 1069 q 1060 360 1013 521 l 1143 1125 q 1144 1139 1146 1132 q 1125 1151 1142 1151 l 1078 1151 l 1078 1185 q 1161 1185 1078 1185 q 1240 1185 1240 1185 q 1276 1168 1265 1185 q 1283 1121 1289 1150 l 1283 1121 z "},"Ｘ":{"ha":1389,"x_min":0,"x_max":1389,"o":"m 1149 183 l 960 183 q 844 354 919 240 q 686 589 743 506 q 513 360 622 504 q 375 182 396 207 q 281 181 336 181 q 193 182 225 182 q 389 413 265 264 q 604 688 544 601 q 428 935 532 785 q 271 1165 346 1053 q 350 1168 317 1167 q 431 1165 406 1168 q 538 1006 457 1122 q 689 783 640 857 q 811 993 754 886 q 904 1167 868 1100 l 1076 1167 q 942 947 1049 1125 q 774 682 843 781 q 968 419 881 540 q 1149 183 1056 299 l 1149 183 z "},"Ｙ":{"ha":1389,"x_min":0,"x_max":1389,"o":"m 1113 1188 q 933 918 1046 1090 q 765 661 794 706 q 767 463 765 564 q 767 240 767 260 q 738 188 767 204 q 708 179 724 181 l 633 178 q 631 426 632 233 q 631 650 629 626 q 457 899 585 707 q 256 1189 318 1106 l 414 1189 q 531 1015 439 1156 q 693 779 628 869 q 858 1028 764 875 q 953 1185 896 1088 q 1035 1186 978 1188 q 1113 1188 1092 1186 l 1113 1188 z "},"Ｚ":{"ha":1389,"x_min":0,"x_max":1389,"o":"m 1136 358 q 1103 253 1121 296 q 1049 183 1076 185 l 382 183 q 346 194 364 186 q 310 246 310 213 q 311 294 310 261 q 311 343 311 326 q 591 693 431 471 q 876 1081 751 915 q 638 1081 781 1082 q 410 1081 494 1081 q 360 1088 372 1081 q 338 1142 338 1099 q 339 1161 338 1146 q 340 1181 339 1174 q 668 1179 414 1178 q 1021 1178 944 1179 q 1076 1140 1072 1175 q 1035 1040 1079 1106 q 765 679 953 932 q 475 290 583 432 q 846 289 682 289 q 994 289 932 289 q 1060 315 1010 289 q 1136 358 1075 324 l 1136 358 z "},"［":{"ha":1389,"x_min":0,"x_max":1389,"o":"m 1343 1189 q 1181 1190 1293 1190 q 1035 1189 1068 1189 q 1044 1269 1026 1243 q 1094 1294 1060 1294 l 1340 1294 q 1343 1236 1343 1261 q 1343 1189 1343 1199 l 1343 1189 m 1324 39 q 1103 39 1324 39 q 906 39 906 39 q 853 60 869 39 q 836 122 836 79 l 836 1214 q 838 1249 836 1253 q 813 1261 833 1265 l 783 1261 l 783 1304 q 846 1306 796 1304 q 919 1306 897 1306 q 972 1290 963 1304 q 978 1253 978 1283 q 978 713 978 1253 q 978 188 978 188 q 989 150 978 158 q 1018 143 997 143 l 1324 143 l 1324 39 z "},"￦":{"ha":1389,"x_min":0,"x_max":1389,"o":"m 1296 778 q 1224 778 1296 778 q 1125 778 1125 778 q 1119 747 1124 765 q 1114 711 1115 725 l 1289 711 q 1290 656 1290 688 q 1289 611 1290 629 l 1099 611 q 1068 402 1086 532 q 1029 178 1050 272 q 950 179 986 178 q 896 182 911 181 q 843 388 879 239 q 789 611 801 564 q 724 611 789 611 q 650 611 650 611 q 603 383 626 497 q 563 178 581 269 q 508 178 563 178 q 444 179 479 178 q 393 408 433 228 q 349 611 360 554 l 196 611 q 164 617 179 611 q 131 663 131 629 l 131 706 l 329 706 q 319 744 324 726 q 314 783 318 758 q 250 785 292 783 q 193 785 210 785 q 163 785 178 781 q 131 839 131 794 l 131 883 q 207 883 131 883 q 293 885 265 883 q 268 1042 289 908 q 242 1192 250 1153 q 300 1190 264 1190 q 361 1193 340 1192 q 388 1036 365 1167 q 414 882 407 924 l 588 882 q 624 1035 603 935 q 653 1188 638 1104 q 704 1189 672 1189 q 771 1188 743 1189 q 801 1031 788 1099 q 838 876 822 933 q 947 876 838 876 q 1028 876 1028 876 q 1053 1039 1038 929 q 1074 1188 1071 1172 q 1136 1186 1099 1186 q 1189 1188 1165 1186 q 1167 1035 1183 1150 q 1143 876 1150 924 q 1231 878 1179 876 q 1296 881 1269 879 q 1296 831 1296 881 q 1296 778 1296 778 l 1296 778 m 1014 782 q 940 782 1014 782 q 860 782 860 782 q 869 742 865 764 q 878 706 875 715 q 943 706 921 706 q 1001 708 978 707 q 1008 746 1006 725 q 1014 782 1004 724 l 1014 782 m 739 876 q 726 958 740 883 q 713 1032 719 996 q 699 947 699 950 q 692 881 690 892 q 722 879 708 881 q 739 876 738 876 l 739 876 m 981 611 q 942 611 981 611 q 900 611 900 611 q 928 463 908 572 q 946 358 938 407 q 964 485 947 371 q 981 611 978 581 l 981 611 m 765 708 q 756 746 760 728 q 750 782 754 757 q 711 782 750 782 q 675 782 675 782 q 668 743 671 757 q 657 704 664 722 q 713 706 685 704 q 765 708 742 707 l 765 708 m 571 782 q 494 782 571 782 q 435 782 435 782 q 439 743 438 764 q 443 708 443 714 q 504 706 469 707 q 554 706 524 706 q 563 744 556 715 q 571 782 567 765 l 571 782 m 536 611 q 501 611 536 611 q 465 611 465 611 q 486 481 471 579 q 500 389 493 432 q 519 503 511 451 q 536 611 532 583 l 536 611 z "},"］":{"ha":1389,"x_min":0,"x_max":1389,"o":"m 383 1214 q 288 1213 354 1213 q 161 1213 213 1211 q 101 1224 115 1213 q 89 1268 88 1235 q 90 1289 90 1275 q 90 1310 90 1303 l 382 1310 q 384 1273 383 1278 q 383 1214 385 1268 l 383 1214 m 597 135 q 578 72 597 93 q 525 51 560 51 q 331 51 525 51 q 110 51 110 51 l 110 154 l 413 154 q 443 161 433 154 q 456 199 456 171 q 456 735 456 199 q 456 1307 456 1307 q 490 1308 464 1308 q 544 1310 533 1310 q 593 1289 585 1310 q 597 1218 597 1278 l 597 135 z "},"＾":{"ha":1389,"x_min":0,"x_max":1389,"o":"m 951 933 l 868 890 l 694 1090 l 517 889 l 453 926 q 519 1035 463 943 q 622 1200 586 1140 q 694 1201 628 1200 q 761 1200 733 1203 l 951 933 z "},"＿":{"ha":1389,"x_min":0,"x_max":1389,"o":"m 1143 64 l 339 64 q 283 69 301 64 q 240 128 240 83 l 240 200 l 1143 200 l 1143 64 z "},"｀":{"ha":1389,"x_min":0,"x_max":1389,"o":"m 722 957 l 457 1250 l 675 1250 l 722 957 z "},"ａ":{"ha":1389,"x_min":0,"x_max":1389,"o":"m 1022 185 q 910 190 949 181 q 838 243 861 203 q 542 160 636 156 q 383 317 413 164 q 508 617 342 539 q 833 669 589 653 q 785 801 836 760 q 690 836 750 831 q 601 813 639 839 q 543 736 561 786 l 411 735 q 583 925 471 886 q 786 921 667 953 q 928 731 901 890 q 939 374 932 699 q 961 329 940 339 q 1022 324 976 322 q 1024 242 1024 285 q 1022 185 1024 206 l 1022 185 m 833 586 q 560 535 653 583 q 478 364 453 478 q 565 264 500 278 q 829 338 650 244 q 833 465 832 383 q 833 586 833 510 l 833 586 z "},"ｂ":{"ha":1389,"x_min":0,"x_max":1389,"o":"m 1022 549 q 1021 531 1022 542 q 1018 511 1018 511 q 913 278 1008 358 q 743 213 839 215 q 650 219 683 213 q 556 256 604 228 q 557 221 556 240 q 557 201 557 201 q 542 176 557 185 q 501 168 526 168 l 415 168 l 415 992 q 415 1011 418 1001 q 383 1031 410 1031 l 365 1031 l 365 1068 q 444 1085 393 1072 q 519 1101 444 1085 q 549 1100 542 1106 q 560 1061 560 1093 q 560 929 560 1061 q 560 796 560 796 q 640 836 618 829 q 746 849 671 846 q 938 767 856 853 q 1022 549 1021 679 l 1022 549 m 907 538 q 865 708 910 651 q 742 763 825 760 q 624 742 676 765 q 560 669 565 715 l 560 357 q 642 310 604 321 q 719 301 664 304 q 849 350 797 297 q 907 538 910 413 l 907 538 z "},"ｃ":{"ha":1389,"x_min":0,"x_max":1389,"o":"m 1008 674 q 926 672 981 674 q 869 674 899 671 q 799 818 861 774 q 661 857 750 853 q 499 793 563 863 q 431 590 431 719 q 503 343 431 421 q 672 283 564 279 q 804 328 750 286 q 881 450 860 372 q 936 450 881 450 q 1000 450 1000 450 q 904 257 978 328 q 696 178 824 179 q 419 271 528 178 q 304 544 303 371 q 392 868 306 765 q 671 975 481 972 q 925 874 831 976 q 1008 674 1001 789 l 1008 674 z "},"ｄ":{"ha":1389,"x_min":0,"x_max":1389,"o":"m 976 217 q 954 172 976 186 q 915 163 939 163 l 833 163 l 833 243 q 740 214 778 222 q 646 206 694 204 q 464 274 533 208 q 372 542 372 360 q 454 758 372 671 q 644 842 535 843 q 746 829 706 840 q 835 792 779 819 l 835 1025 q 828 1040 835 1032 q 771 1060 811 1057 q 771 1076 769 1063 q 772 1096 772 1092 q 867 1107 833 1103 q 939 1117 925 1114 q 972 1100 964 1122 q 976 1078 978 1090 l 976 217 m 835 347 l 835 676 q 754 725 803 708 q 669 739 710 742 q 535 671 581 735 q 494 532 496 617 q 542 351 492 408 q 672 299 585 303 q 751 303 721 294 q 835 347 792 313 l 835 347 z "},"ｅ":{"ha":1389,"x_min":0,"x_max":1389,"o":"m 1040 513 q 783 515 982 515 q 476 514 596 517 q 543 368 485 432 q 714 292 611 292 q 839 335 790 292 q 893 431 881 372 l 1038 431 q 910 238 985 296 q 719 174 839 183 q 438 296 543 175 q 343 561 343 406 q 432 829 343 718 q 690 950 529 950 q 978 786 890 950 q 1040 513 1036 678 l 1040 513 m 897 604 q 843 761 892 693 q 697 843 786 843 q 554 783 610 843 q 486 608 496 721 q 654 606 533 607 q 897 604 764 604 l 897 604 z "},"ｆ":{"ha":1389,"x_min":0,"x_max":1389,"o":"m 1014 728 l 774 728 q 774 456 774 728 q 774 244 774 244 q 753 193 774 208 q 715 183 738 183 l 638 183 l 638 728 q 563 728 638 728 q 511 728 518 729 q 474 736 482 728 q 464 774 464 744 l 464 833 q 545 834 488 833 q 638 833 603 835 q 636 904 638 847 q 638 960 636 938 q 754 1117 644 1081 q 971 1133 817 1136 q 971 1100 971 1121 q 971 1018 972 1058 q 842 1013 903 1031 q 774 953 778 993 q 774 899 774 917 q 772 832 774 871 q 913 833 822 832 q 1014 833 1003 833 l 1014 728 z "},"ｇ":{"ha":1389,"x_min":0,"x_max":1389,"o":"m 1071 885 q 1068 593 1071 693 q 1047 346 1063 415 q 972 149 1028 224 q 804 58 907 64 q 582 93 657 49 q 439 272 508 136 q 500 271 467 271 q 568 272 540 271 q 646 181 603 204 q 758 163 685 160 q 878 236 831 165 q 935 413 921 301 q 857 360 897 376 q 758 343 815 343 q 514 425 590 343 q 444 642 444 499 q 535 847 444 774 q 758 917 619 917 q 857 903 804 917 q 957 868 889 893 q 956 903 957 893 q 953 919 956 906 q 983 919 953 919 q 1013 919 1013 919 q 1053 921 1061 919 q 1071 885 1071 918 l 1071 885 m 926 629 q 874 758 926 713 q 757 799 826 797 q 633 756 682 799 q 579 629 579 708 q 635 503 579 549 q 758 463 685 463 q 888 507 846 463 q 926 629 926 549 l 926 629 z "},"ｈ":{"ha":1389,"x_min":0,"x_max":1389,"o":"m 988 593 q 988 439 988 519 q 986 254 986 281 q 961 188 988 201 q 936 183 949 181 l 863 183 q 865 289 864 204 q 865 514 865 343 q 822 639 865 590 q 719 690 782 685 q 599 656 654 697 q 543 569 544 615 q 543 417 543 569 q 543 246 543 246 q 515 192 543 208 q 486 183 500 185 l 419 183 l 418 996 q 421 1019 422 1007 q 399 1042 419 1042 l 381 1042 l 381 1072 q 447 1089 425 1083 q 501 1106 488 1100 q 535 1101 525 1111 q 543 1063 543 1092 l 543 740 q 647 793 603 778 q 742 806 692 807 q 914 736 842 797 q 988 593 988 674 l 988 593 z "},"ｉ":{"ha":1389,"x_min":0,"x_max":1389,"o":"m 768 936 l 618 936 l 618 1094 l 768 1094 l 768 936 m 768 247 q 751 192 768 211 q 713 176 736 176 l 618 176 l 618 729 q 618 754 619 742 q 601 779 617 779 l 574 779 l 574 811 q 653 829 594 817 q 725 842 708 839 q 761 832 750 847 q 768 814 767 824 q 768 500 768 814 q 768 247 768 247 l 768 247 z "},"ｊ":{"ha":1389,"x_min":0,"x_max":1389,"o":"m 758 946 l 606 946 l 606 1106 l 758 1106 l 758 946 m 767 836 q 765 529 767 761 q 764 313 765 414 q 644 88 764 154 q 396 85 529 24 l 396 204 q 550 194 486 169 q 618 303 618 219 q 618 507 618 401 q 617 761 618 721 q 611 794 619 788 q 586 799 607 799 l 558 799 l 558 835 q 647 856 565 836 q 724 875 707 869 q 758 871 749 882 q 767 836 767 861 l 767 836 z "},"ｋ":{"ha":1389,"x_min":0,"x_max":1389,"o":"m 1031 183 l 842 183 q 688 390 740 322 q 581 526 642 451 q 581 365 581 526 q 581 229 581 229 q 563 196 581 210 q 518 182 544 182 l 435 182 l 433 993 q 435 1018 436 1006 q 411 1042 432 1042 l 386 1042 l 386 1074 q 465 1090 408 1079 q 535 1104 521 1101 q 571 1093 560 1110 q 576 1075 576 1085 q 575 883 575 997 q 576 667 576 690 q 738 825 688 764 q 838 938 789 886 l 1011 938 q 844 767 953 881 q 682 597 689 604 q 902 326 826 408 q 1031 183 978 244 l 1031 183 z "},"ｌ":{"ha":1389,"x_min":0,"x_max":1389,"o":"m 778 256 q 761 200 778 217 q 724 185 749 185 l 628 185 l 628 1000 q 632 1028 633 1015 q 608 1049 629 1047 l 578 1050 l 578 1076 q 661 1093 603 1082 q 736 1107 722 1106 q 772 1096 761 1113 q 778 1078 778 1088 q 778 635 778 1078 q 778 256 778 256 l 778 256 z "},"ｍ":{"ha":1389,"x_min":0,"x_max":1389,"o":"m 1185 664 q 1185 488 1185 635 q 1183 272 1183 340 q 1171 200 1183 222 q 1124 178 1157 178 l 1047 179 l 1046 676 q 910 803 1035 799 q 774 706 785 806 q 774 436 774 706 q 774 182 774 182 l 636 182 l 635 694 q 496 789 615 779 q 360 706 375 797 q 358 504 358 629 q 360 267 358 354 q 342 207 360 229 q 289 185 322 185 l 219 185 q 220 435 219 231 q 219 807 221 639 q 219 828 219 826 q 200 843 215 843 l 153 843 q 151 854 151 847 q 149 871 150 861 q 225 896 175 882 q 292 914 290 914 q 328 914 315 919 q 353 864 349 904 q 521 897 433 906 q 696 818 621 889 q 979 894 794 926 q 1185 664 1178 860 l 1185 664 z "},"ｎ":{"ha":1389,"x_min":0,"x_max":1389,"o":"m 1022 292 q 1014 210 1022 231 q 972 182 1004 182 l 885 182 q 885 469 885 347 q 882 718 883 704 q 706 818 863 821 q 519 713 547 815 q 519 496 519 713 q 519 261 519 261 q 501 193 519 208 q 454 183 489 183 l 383 183 l 382 801 q 386 822 386 811 q 374 842 388 842 l 324 842 q 324 857 324 844 q 322 875 324 869 q 397 894 367 886 q 476 917 456 910 q 503 910 490 921 q 513 872 517 896 q 832 922 661 968 q 1019 714 1010 875 q 1021 522 1021 621 q 1022 292 1022 324 l 1022 292 z "},"ｏ":{"ha":1389,"x_min":0,"x_max":1389,"o":"m 1054 564 q 961 290 1058 404 q 688 169 856 169 q 413 294 518 169 q 313 564 315 407 q 404 835 310 719 q 676 960 508 964 q 968 833 871 953 q 1054 564 1050 732 l 1054 564 m 940 567 q 871 782 940 692 q 686 875 797 875 q 499 790 568 875 q 429 567 429 707 q 493 344 429 429 q 686 253 561 253 q 878 346 811 253 q 940 567 940 429 l 940 567 z "},"ｐ":{"ha":1389,"x_min":0,"x_max":1389,"o":"m 1017 632 q 1015 610 1017 622 q 1014 586 1015 601 q 911 376 1000 454 q 728 300 835 313 q 638 303 682 297 q 546 328 588 310 q 546 233 546 328 q 546 125 546 125 q 538 63 546 83 q 486 33 524 33 q 446 31 468 31 q 414 33 426 31 l 414 919 q 414 943 417 932 q 390 967 410 967 l 349 967 q 349 981 349 969 q 347 999 347 992 q 418 1017 365 1003 q 493 1038 460 1028 q 528 1028 511 1043 q 549 967 547 1008 q 639 1001 611 993 q 708 1011 674 1011 q 942 910 863 1013 q 1017 632 1017 811 l 1017 632 m 888 661 q 846 835 886 767 q 704 915 797 915 q 610 893 650 915 q 549 838 578 875 q 549 682 549 838 q 549 492 549 492 q 601 428 553 450 q 719 413 649 406 q 842 476 800 421 q 888 661 889 538 l 888 661 z "},"ｑ":{"ha":1389,"x_min":0,"x_max":1389,"o":"m 1006 103 q 989 49 1006 64 q 957 38 978 38 q 922 38 949 38 q 876 36 897 38 q 876 197 876 36 q 876 332 876 332 q 790 313 835 318 q 708 307 756 308 q 507 385 589 306 q 404 638 413 475 q 474 921 397 818 q 710 1019 556 1028 q 782 1007 749 1017 q 872 975 814 999 q 870 1029 869 1019 q 871 1049 871 1039 q 907 1050 879 1049 q 947 1050 936 1050 q 992 1038 978 1050 q 1004 1001 1004 1025 q 1006 553 1004 914 q 1006 103 1006 192 l 1006 103 m 872 842 q 792 903 842 883 q 710 918 754 917 q 572 847 624 922 q 525 672 525 778 q 572 475 525 547 q 700 401 618 404 q 813 419 767 399 q 871 469 851 438 q 872 672 871 558 q 872 842 872 788 l 872 842 z "},"ｒ":{"ha":1389,"x_min":0,"x_max":1389,"o":"m 943 756 q 768 794 832 800 q 657 699 685 788 q 656 483 656 593 q 657 246 654 265 q 638 194 657 214 q 597 176 619 178 l 529 176 q 529 504 529 363 q 526 810 528 779 q 528 832 529 824 q 500 849 524 849 l 476 849 l 476 882 q 554 883 492 882 q 619 885 611 883 q 644 878 635 889 q 660 844 653 868 q 785 897 724 892 q 943 868 849 904 l 943 756 z "},"ｓ":{"ha":1389,"x_min":0,"x_max":1389,"o":"m 967 393 q 894 232 967 294 q 697 167 819 167 q 524 215 599 167 q 400 331 472 247 l 500 401 q 649 281 578 303 q 775 296 707 263 q 832 424 858 344 q 682 526 806 504 q 458 614 526 554 q 406 776 388 675 q 515 947 429 896 q 692 983 585 988 q 826 947 758 982 q 951 858 885 917 l 854 763 q 763 831 813 803 q 647 865 700 865 q 526 772 542 865 q 640 653 511 678 q 889 546 801 622 q 967 393 967 478 l 967 393 z "},"ｔ":{"ha":1389,"x_min":0,"x_max":1389,"o":"m 1049 257 q 935 188 983 208 q 822 168 879 165 q 674 228 726 175 q 625 351 625 276 q 622 628 624 471 q 624 829 622 771 q 546 828 626 829 q 467 829 497 826 q 417 844 431 832 q 401 893 401 857 q 401 906 401 901 q 400 919 401 911 q 518 919 400 919 q 624 919 624 919 q 624 974 622 943 q 624 1028 624 1024 q 617 1046 624 1039 q 588 1054 607 1056 l 553 1056 q 550 1075 551 1065 q 550 1103 549 1089 q 633 1121 583 1108 q 708 1139 685 1135 q 753 1125 736 1146 q 768 1069 768 1104 q 767 996 767 1039 q 769 924 767 957 q 885 922 808 921 q 979 925 935 924 q 982 867 981 903 q 983 824 983 831 q 892 826 935 825 q 769 825 818 828 q 769 639 769 825 q 769 419 769 419 q 785 324 772 347 q 824 300 794 300 q 908 315 872 299 q 975 364 928 326 l 1049 257 z "},"ｕ":{"ha":1389,"x_min":0,"x_max":1389,"o":"m 1040 233 q 1031 196 1039 215 q 972 158 1013 158 q 938 158 964 158 q 894 157 911 157 l 893 242 q 797 186 851 204 q 672 168 742 168 q 486 239 558 168 q 414 421 414 310 q 413 619 413 519 q 410 829 410 819 q 406 842 410 836 q 381 853 397 854 l 332 853 q 332 868 332 856 q 331 885 331 881 q 407 907 354 892 q 501 933 467 924 q 549 924 533 939 q 561 872 561 910 l 561 400 q 601 317 561 353 q 717 276 646 276 q 838 314 782 276 q 892 393 892 351 l 892 828 q 892 846 893 838 q 871 864 888 864 l 808 864 l 808 899 q 876 915 828 904 q 964 936 926 928 q 1021 938 1001 950 q 1040 883 1040 924 l 1040 233 z "},"ｖ":{"ha":1389,"x_min":0,"x_max":1389,"o":"m 1040 903 l 775 183 l 622 183 l 347 907 q 340 918 346 913 q 310 932 329 929 l 278 932 l 278 965 q 361 967 299 965 q 426 967 424 967 q 468 944 449 967 q 482 922 478 933 l 700 335 q 790 626 746 483 q 874 893 879 914 q 885 918 882 906 q 864 942 890 943 l 824 942 l 824 967 q 914 967 824 967 q 996 967 996 967 q 1033 950 1021 967 q 1040 903 1044 932 l 1040 903 z "},"ｗ":{"ha":1389,"x_min":0,"x_max":1389,"o":"m 1147 882 l 1049 267 q 1033 222 1044 244 q 972 182 1010 179 l 846 182 q 778 443 822 256 q 692 779 729 650 q 621 489 654 639 q 563 243 582 321 q 539 199 551 214 q 489 176 517 174 l 360 176 l 254 879 q 246 893 253 886 q 215 907 235 907 l 185 907 l 185 950 q 264 951 204 950 q 326 951 324 951 q 367 943 354 951 q 382 908 382 932 l 457 356 q 517 592 485 464 q 600 939 581 846 q 703 939 600 939 q 771 939 771 939 q 856 636 808 814 q 933 343 903 458 q 983 646 949 419 q 1014 857 1000 760 q 1018 883 1019 869 q 978 908 1015 908 l 951 908 l 951 944 q 1029 944 951 944 q 1101 944 1101 944 q 1139 928 1126 944 q 1147 882 1153 911 l 1147 882 z "},"ｘ":{"ha":1389,"x_min":0,"x_max":1389,"o":"m 1071 183 l 896 183 q 806 310 858 238 q 694 465 754 379 q 568 297 643 400 q 482 179 499 204 q 393 178 442 178 q 314 176 342 176 q 450 339 475 369 q 615 550 560 472 q 468 746 568 614 q 336 922 379 863 q 414 922 351 922 q 492 924 469 922 q 571 813 511 892 q 692 647 650 706 q 790 785 738 711 q 883 922 851 872 l 1042 922 q 926 761 1004 868 q 776 550 836 636 q 928 357 889 406 q 1071 183 989 281 l 1071 183 z "},"ｙ":{"ha":1389,"x_min":0,"x_max":1389,"o":"m 1018 951 q 863 585 931 750 q 719 222 789 406 q 618 104 692 146 q 464 61 556 69 q 440 104 458 69 q 406 169 436 113 q 524 171 482 156 q 586 226 561 183 q 642 360 631 329 q 679 472 640 358 q 542 703 625 565 q 388 956 542 703 l 536 956 q 618 803 563 896 q 740 603 667 719 q 825 832 785 717 q 864 951 813 799 l 1018 951 z "},"ｚ":{"ha":1389,"x_min":0,"x_max":1389,"o":"m 1078 346 q 1039 247 1060 286 q 979 190 1010 190 l 338 189 q 338 225 336 197 q 338 290 338 275 q 592 514 424 358 q 857 756 786 696 q 641 756 761 757 q 440 756 521 756 q 388 763 400 756 q 365 815 365 774 q 367 836 365 819 q 368 856 367 849 q 663 853 443 851 q 981 853 907 854 q 1056 803 1044 853 q 1029 725 1065 757 q 825 548 931 633 q 510 290 719 463 q 849 288 701 288 q 960 288 950 289 q 1021 311 983 292 q 1078 346 1047 325 l 1078 346 z "},"｛":{"ha":1389,"x_min":0,"x_max":1389,"o":"m 1188 1279 q 1094 1196 1117 1243 q 1081 1061 1074 1151 q 1060 808 1081 901 q 988 672 1038 710 q 1051 551 1035 636 q 1063 338 1065 479 q 1086 174 1063 219 q 1171 113 1107 131 l 1154 36 q 1021 97 1075 51 q 965 200 965 144 q 957 431 960 403 q 899 621 943 594 q 870 628 888 629 q 829 629 853 628 q 829 653 829 639 q 831 706 829 681 q 868 707 854 704 q 897 713 892 713 q 956 883 935 717 q 969 1117 969 1000 q 1017 1247 969 1194 q 1140 1336 1051 1288 l 1188 1279 z "},"｜":{"ha":1389,"x_min":0,"x_max":1389,"o":"m 769 249 q 754 199 769 214 q 718 185 742 185 l 631 185 l 631 1051 q 633 1078 635 1064 q 599 1110 629 1106 l 564 1111 l 564 1149 q 653 1164 582 1151 q 729 1176 721 1175 q 763 1167 751 1182 q 769 1150 768 1158 q 769 672 769 1150 q 769 249 769 249 l 769 249 z "},"｝":{"ha":1389,"x_min":0,"x_max":1389,"o":"m 425 624 q 383 624 392 624 q 353 614 364 621 q 294 424 308 588 q 286 192 292 394 q 231 89 286 136 q 100 28 178 44 l 81 104 q 167 165 144 122 q 189 329 189 210 q 201 543 186 471 q 265 664 218 628 q 193 800 215 703 q 172 1053 172 892 q 157 1188 178 1144 q 65 1271 135 1235 l 113 1328 q 236 1239 200 1279 q 285 1108 285 1185 q 297 875 285 986 q 353 704 315 708 q 385 699 357 704 q 425 697 401 696 l 425 624 z "},"￣":{"ha":1389,"x_min":0,"x_max":1389,"o":"m 1143 942 l 339 942 q 283 947 301 942 q 240 1006 240 961 l 240 1078 l 1143 1078 l 1143 942 z "},"ㄱ":{"ha":1389,"x_min":0,"x_max":1389,"o":"m 1158 217 q 1149 192 1158 201 q 1125 182 1139 182 l 985 182 q 1006 207 999 192 q 1013 253 1013 224 l 1013 1039 q 994 1081 1013 1064 q 951 1096 976 1096 l 331 1096 q 276 1118 297 1096 q 257 1174 257 1139 l 257 1188 l 1125 1188 q 1149 1179 1139 1188 q 1158 1157 1158 1171 l 1158 217 z "},"ㄲ":{"ha":1389,"x_min":0,"x_max":1389,"o":"m 1229 217 q 1221 192 1229 201 q 1197 182 1213 182 l 1063 182 q 1082 207 1076 192 q 1088 253 1088 222 l 1088 1040 q 1071 1082 1088 1067 q 1028 1096 1056 1096 l 793 1096 q 739 1118 758 1096 q 718 1174 718 1139 l 718 1190 l 1197 1190 q 1219 1183 1211 1190 q 1229 1161 1229 1175 l 1229 217 m 610 221 q 600 197 610 207 q 575 183 592 188 l 465 183 l 465 1040 q 450 1082 465 1067 q 406 1096 433 1096 l 206 1096 q 153 1118 172 1096 q 132 1174 132 1139 l 132 1190 l 578 1190 q 601 1183 593 1190 q 610 1161 610 1175 l 610 221 z "},"ㄳ":{"ha":1389,"x_min":0,"x_max":1389,"o":"m 1324 253 q 1326 206 1335 222 q 1286 189 1317 189 l 1064 189 l 1064 218 q 1144 231 1126 224 q 1161 264 1167 240 l 1046 782 q 1007 826 1039 818 q 961 790 974 836 l 807 218 q 786 197 803 206 q 754 189 771 189 l 599 189 l 599 221 q 627 225 613 224 q 664 251 642 226 l 868 1044 q 879 1118 883 1106 q 831 1132 874 1132 l 803 1132 l 803 1168 l 1067 1168 q 1086 1160 1076 1168 q 1092 1139 1096 1151 l 1056 1006 l 1324 253 m 535 222 q 525 199 535 208 q 499 185 515 189 l 390 185 l 390 1038 q 372 1079 390 1064 q 331 1093 356 1093 l 131 1093 q 78 1115 97 1093 q 57 1169 57 1136 l 57 1188 l 501 1188 q 525 1181 517 1188 q 535 1158 535 1172 l 535 222 z "},"ㄴ":{"ha":1389,"x_min":0,"x_max":1389,"o":"m 1224 315 l 1185 224 q 1160 200 1174 208 q 1126 189 1143 189 l 304 189 q 250 210 269 189 q 231 265 231 231 l 231 1079 q 207 1139 231 1125 q 149 1150 197 1144 l 149 1183 l 368 1183 q 390 1176 382 1183 q 399 1154 399 1168 l 399 340 q 415 297 399 314 q 457 279 431 279 l 1092 279 q 1158 290 1124 279 q 1224 315 1182 297 l 1224 315 z "},"ㄵ":{"ha":1389,"x_min":0,"x_max":1389,"o":"m 1306 243 q 1308 199 1317 214 q 1268 182 1297 182 l 1071 182 l 1071 210 q 1142 221 1126 214 q 1157 253 1164 229 l 1007 783 q 968 849 986 856 q 940 781 953 843 l 824 208 q 803 188 821 194 q 768 182 788 182 l 629 182 l 629 210 q 672 214 681 217 q 704 244 699 221 l 853 985 q 861 1051 867 1039 q 800 1069 853 1069 l 718 1069 q 665 1092 685 1069 q 644 1146 644 1113 l 644 1160 l 1271 1160 l 1271 1069 l 1085 1069 q 1035 1056 1043 1069 q 1046 974 1024 1036 l 1306 243 m 588 307 l 549 217 q 524 193 538 201 q 490 182 507 182 l 206 182 q 153 203 172 182 q 132 258 132 224 l 132 1075 q 110 1136 132 1121 q 51 1150 99 1143 l 51 1179 l 246 1179 q 268 1171 260 1179 q 276 1149 276 1163 l 276 331 q 292 289 276 306 q 335 272 308 272 l 456 274 q 522 283 488 274 q 588 307 546 290 l 588 307 z "},"ㄶ":{"ha":1389,"x_min":0,"x_max":1389,"o":"m 1308 954 l 642 954 q 621 964 629 954 q 614 986 614 972 l 614 1049 l 896 1049 q 886 1126 896 1111 q 847 1140 879 1138 l 847 1176 l 1036 1176 q 1058 1168 1050 1176 q 1068 1146 1068 1160 l 1068 1051 l 1308 1051 l 1308 954 m 1283 521 q 1204 289 1283 386 q 972 182 1117 182 q 743 289 829 182 q 665 521 665 386 q 743 754 665 658 q 972 860 829 860 q 1204 754 1117 860 q 1283 521 1283 657 l 1283 521 m 571 322 l 535 228 q 508 204 524 213 q 476 193 492 193 l 192 193 q 138 214 157 193 q 118 269 118 235 l 118 1072 q 96 1133 118 1117 q 38 1150 83 1142 l 38 1176 l 215 1176 q 239 1168 229 1176 q 247 1146 247 1160 l 247 344 q 264 301 247 318 q 306 283 279 283 l 442 283 q 510 294 475 283 q 571 322 535 303 l 571 322 m 1144 585 q 1033 721 1108 682 q 879 724 961 757 q 781 625 804 694 q 781 485 760 565 q 861 339 806 390 q 1019 300 926 279 q 1151 403 1118 324 q 1144 585 1183 481 l 1144 585 z "},"ㄷ":{"ha":1389,"x_min":0,"x_max":1389,"o":"m 1081 1069 l 457 1069 q 492 1140 460 1117 q 564 1163 518 1160 l 1081 1163 l 1081 1069 m 1157 314 l 1119 236 q 1094 213 1108 221 q 1063 201 1078 201 l 313 201 q 258 222 278 201 q 239 278 239 243 l 239 1057 q 217 1117 239 1103 q 160 1131 204 1125 l 160 1160 l 358 1160 q 382 1153 374 1160 q 390 1132 390 1146 l 390 351 q 406 310 390 325 q 449 292 421 292 l 1058 292 q 1108 297 1086 292 q 1157 314 1133 301 l 1157 314 z "},"ㄸ":{"ha":1389,"x_min":0,"x_max":1389,"o":"m 1203 1081 l 911 1081 q 943 1151 914 1126 q 1013 1175 969 1172 l 1203 1174 l 1203 1081 m 1261 324 l 1228 239 q 1203 217 1217 225 q 1174 207 1188 207 l 817 207 q 765 226 785 207 q 747 279 747 247 l 747 1074 q 725 1128 747 1117 q 671 1139 719 1131 l 671 1172 l 858 1172 q 881 1165 872 1172 q 889 1144 889 1157 l 889 356 q 904 314 889 331 q 944 297 919 297 l 1171 297 q 1217 304 1192 297 q 1261 324 1236 311 l 1261 324 m 581 1081 l 344 1081 q 376 1151 347 1126 q 446 1175 403 1172 l 581 1174 l 581 1081 m 638 329 l 604 239 q 581 217 594 225 q 550 207 565 207 l 250 207 q 199 226 218 207 q 181 279 181 247 l 181 1074 q 158 1128 181 1117 q 104 1139 153 1131 l 104 1172 l 292 1172 q 314 1165 306 1172 q 322 1144 322 1157 l 322 356 q 338 314 322 331 q 378 297 353 297 l 547 297 q 593 307 567 297 q 638 329 601 311 l 638 329 z "},"ㄹ":{"ha":1389,"x_min":0,"x_max":1389,"o":"m 1154 286 l 1115 225 q 1089 203 1104 211 q 1056 196 1074 196 l 376 196 q 322 217 342 196 q 303 272 303 238 l 303 656 q 282 693 303 681 q 222 713 268 701 l 222 744 l 853 744 l 853 1010 q 836 1053 853 1038 q 793 1067 821 1067 l 376 1067 q 322 1088 342 1067 q 303 1143 303 1108 l 303 1161 l 994 1161 q 1018 1153 1010 1161 q 1028 1132 1028 1146 l 1028 674 q 1019 650 1028 658 q 994 642 1010 642 l 476 640 l 474 347 q 490 303 474 319 q 531 286 506 286 l 1154 286 z "},"ㄺ":{"ha":1389,"x_min":0,"x_max":1389,"o":"m 1260 231 q 1250 206 1260 215 q 1228 196 1242 196 l 1071 196 q 1093 221 1086 206 q 1100 267 1100 238 l 1100 1015 q 1085 1058 1100 1043 q 1040 1074 1068 1074 l 840 1074 q 788 1096 807 1074 q 767 1150 767 1117 l 767 1167 l 1228 1167 q 1250 1158 1242 1167 q 1260 1138 1260 1151 l 1260 231 m 796 329 l 757 242 q 738 221 751 229 q 707 211 722 211 l 238 211 q 183 232 203 211 q 164 288 164 253 l 164 650 q 143 685 164 674 q 82 704 128 693 l 82 735 l 499 735 l 499 1015 q 482 1058 499 1043 q 440 1074 465 1074 l 238 1074 q 183 1096 204 1074 q 164 1150 164 1117 l 164 1167 l 626 1167 q 649 1158 640 1167 q 658 1138 658 1151 l 658 671 q 649 649 658 657 q 626 639 640 639 l 324 639 l 324 361 q 339 318 324 333 q 382 301 354 301 l 710 301 q 760 311 736 301 q 796 329 761 311 l 796 329 z "},"ㄻ":{"ha":1389,"x_min":0,"x_max":1389,"o":"m 1264 236 q 1254 214 1264 222 q 1232 206 1246 206 l 1106 206 l 1106 1006 q 1088 1047 1106 1032 q 1044 1064 1071 1064 l 925 1064 l 924 356 q 942 313 924 328 q 986 299 958 299 l 1099 299 l 1053 226 q 1015 208 1049 214 q 968 206 996 206 l 844 206 q 792 226 811 206 q 771 282 771 247 l 771 1053 q 754 1114 771 1100 q 703 1129 742 1124 l 703 1158 l 1232 1158 q 1254 1150 1246 1158 q 1264 1129 1264 1143 l 1264 236 m 647 304 l 610 228 q 590 207 603 215 q 560 197 575 197 l 222 197 q 169 218 189 197 q 149 274 149 239 l 149 633 q 129 667 149 656 q 69 686 114 675 l 69 718 l 486 718 l 486 999 q 469 1042 486 1026 q 425 1056 454 1056 l 222 1056 q 169 1076 189 1056 q 149 1132 149 1097 l 149 1149 l 613 1149 q 635 1142 626 1149 q 644 1121 644 1133 l 644 660 q 636 636 644 646 q 613 628 628 628 l 311 626 l 311 347 q 325 303 311 319 q 368 288 340 288 l 563 288 q 613 292 592 288 q 647 304 631 296 l 647 304 z "},"ㄼ":{"ha":1389,"x_min":0,"x_max":1389,"o":"m 1301 278 q 1279 222 1301 244 q 1224 201 1257 201 l 1142 201 l 1140 654 l 929 654 l 929 672 q 949 728 929 707 q 1003 749 968 749 l 1143 749 l 1143 1093 q 1128 1124 1143 1117 q 1064 1131 1114 1129 l 1064 1157 l 1268 1157 q 1292 1150 1282 1157 q 1301 1129 1301 1142 l 1301 278 m 1132 292 l 1113 239 q 1094 213 1107 224 q 1065 201 1081 201 l 819 201 q 765 222 785 201 q 746 278 746 243 l 746 1086 q 736 1121 746 1113 q 701 1131 726 1131 l 681 1131 l 681 1157 l 854 1157 q 878 1150 869 1157 q 888 1129 888 1143 l 888 353 q 901 308 888 324 q 944 292 917 292 l 1132 292 m 626 301 l 589 226 q 568 204 582 214 q 538 194 553 194 l 201 194 q 149 215 168 194 q 128 271 128 236 l 128 646 q 108 681 128 669 q 47 699 94 688 l 47 731 l 472 731 l 472 993 q 454 1035 472 1018 q 411 1051 438 1051 l 201 1051 q 149 1072 168 1051 q 128 1128 128 1093 l 128 1144 l 592 1144 q 614 1136 606 1144 q 624 1115 624 1129 l 624 667 q 614 644 624 653 q 592 636 606 636 l 278 635 l 278 344 q 293 303 278 319 q 336 285 310 285 l 542 285 q 592 289 571 285 q 626 301 610 293 l 626 301 z "},"ㄽ":{"ha":1389,"x_min":0,"x_max":1389,"o":"m 1333 267 q 1335 221 1344 238 q 1296 204 1325 204 l 1072 204 l 1072 232 q 1153 244 1135 236 q 1169 278 1175 253 l 1038 831 q 1001 893 1022 893 q 969 842 982 894 l 813 233 q 792 213 808 221 q 760 204 776 204 l 607 204 l 607 233 q 636 239 658 246 q 674 265 656 244 l 876 1053 q 886 1115 890 1110 q 839 1119 883 1119 l 811 1119 l 811 1150 l 1071 1150 q 1093 1139 1088 1150 q 1093 1121 1099 1129 l 1068 1049 l 1333 267 m 585 311 l 546 233 q 526 213 540 221 q 496 203 513 203 l 186 203 q 132 224 151 203 q 113 279 113 244 l 113 661 q 93 701 113 688 q 32 715 71 717 l 32 749 l 411 749 l 411 1010 q 394 1053 411 1038 q 350 1067 379 1067 l 186 1067 q 132 1088 151 1067 q 113 1143 113 1108 l 113 1161 l 531 1161 q 553 1153 544 1161 q 563 1132 563 1146 l 563 683 q 553 660 563 669 q 531 651 544 651 l 264 651 l 264 354 q 278 310 264 326 q 321 294 293 294 l 499 294 q 549 299 528 294 q 585 311 568 303 l 585 311 z "},"ㄾ":{"ha":1389,"x_min":0,"x_max":1389,"o":"m 1274 1056 l 915 1056 l 915 1075 q 936 1129 915 1110 q 989 1149 956 1149 l 1274 1149 l 1274 1056 m 1236 653 l 989 653 q 936 675 956 653 q 915 729 915 696 l 915 747 l 1236 747 l 1236 653 m 1350 275 l 1313 214 q 1285 192 1301 200 q 1253 185 1269 185 l 778 185 q 725 206 744 185 q 704 261 704 226 l 704 1078 q 689 1114 704 1104 q 644 1122 675 1122 l 622 1122 l 622 1154 l 817 1188 q 838 1179 829 1188 q 846 1158 846 1172 l 846 335 q 861 290 846 307 q 904 275 876 275 l 1350 275 m 594 296 l 556 219 q 536 199 550 207 q 506 189 522 189 l 181 189 q 126 210 146 189 q 107 265 107 231 l 107 654 q 90 693 107 681 q 28 707 71 708 l 28 739 l 406 739 l 406 1033 q 390 1074 406 1058 q 346 1089 374 1089 l 181 1089 q 126 1111 147 1089 q 107 1165 107 1132 l 107 1183 l 526 1183 q 549 1176 540 1183 q 557 1154 557 1168 l 557 681 q 549 657 557 665 q 526 647 540 647 l 258 647 l 257 339 q 272 294 257 311 q 315 279 288 279 l 510 279 q 558 283 538 279 q 594 296 578 288 l 594 296 z "},"ㄿ":{"ha":1389,"x_min":0,"x_max":1389,"o":"m 1290 1053 l 753 1053 q 699 1074 718 1053 q 679 1129 679 1094 l 679 1146 l 1290 1146 l 1290 1053 m 1361 313 l 1340 238 q 1325 211 1336 221 q 1300 201 1314 201 l 713 201 q 660 219 679 201 q 639 272 639 239 l 639 286 l 779 286 l 779 986 l 878 986 q 900 979 892 986 q 908 957 908 971 l 908 292 l 1047 292 l 1047 986 l 1142 986 q 1165 979 1157 986 q 1174 957 1174 971 l 1174 294 l 1281 293 q 1325 297 1307 293 q 1361 313 1343 301 l 1361 313 m 569 292 l 532 217 q 511 194 525 204 q 482 185 496 185 l 157 185 q 103 206 122 185 q 82 261 82 226 l 82 651 q 63 686 82 675 q 1 704 49 693 l 1 736 l 382 736 l 382 1035 q 364 1076 382 1060 q 321 1092 346 1092 l 157 1092 q 103 1111 124 1092 q 82 1163 82 1131 l 82 1181 l 500 1181 q 524 1172 515 1181 q 533 1150 533 1164 l 533 671 q 525 647 533 656 q 500 639 515 639 l 233 639 l 233 336 q 247 292 233 307 q 289 275 263 275 l 485 275 q 533 279 513 275 q 569 292 553 283 l 569 292 z "},"ㅀ":{"ha":1389,"x_min":0,"x_max":1389,"o":"m 1342 939 l 676 939 q 654 949 663 939 q 646 972 646 957 l 646 1033 l 929 1033 q 924 1115 929 1103 q 882 1135 917 1133 l 882 1161 l 1068 1161 q 1092 1153 1083 1161 q 1100 1132 1100 1146 l 1100 1033 l 1342 1033 l 1342 939 m 1318 508 q 1238 276 1318 374 q 1007 168 1150 168 q 775 279 865 168 q 696 508 693 379 q 778 740 700 644 q 1007 847 865 847 q 1238 742 1150 847 q 1318 508 1318 644 l 1318 508 m 593 300 l 554 224 q 535 203 549 211 q 504 193 521 193 l 179 193 q 125 214 144 193 q 106 269 106 235 l 106 654 q 85 692 106 678 q 25 714 68 704 l 25 744 l 404 744 l 404 1032 q 388 1074 404 1058 q 344 1088 371 1088 l 179 1088 q 125 1110 146 1088 q 106 1164 106 1131 l 106 1182 l 525 1182 q 547 1175 539 1182 q 556 1153 556 1167 l 556 681 q 547 657 556 665 q 525 647 539 647 l 257 647 l 257 343 q 274 301 257 318 q 314 283 289 283 l 507 283 q 557 288 536 283 q 593 300 576 292 l 593 300 m 1179 571 q 1082 711 1147 674 q 911 718 1014 753 q 818 624 844 699 q 813 474 793 554 q 889 321 829 378 q 1047 275 957 256 q 1185 382 1150 296 q 1179 571 1217 463 l 1179 571 z "},"ㅁ":{"ha":1389,"x_min":0,"x_max":1389,"o":"m 1182 226 q 1174 204 1182 213 q 1151 196 1165 196 l 1018 196 l 1018 992 q 1000 1033 1018 1017 q 957 1050 982 1050 l 493 1050 l 493 1069 q 514 1124 493 1104 q 567 1143 533 1143 l 1151 1143 q 1174 1136 1165 1143 q 1182 1115 1182 1129 l 1182 226 m 982 286 l 960 226 q 942 206 954 214 q 913 196 929 196 l 333 196 q 279 217 299 196 q 260 272 260 238 l 260 1038 q 244 1100 260 1085 q 194 1115 232 1111 l 194 1143 l 394 1143 q 417 1136 408 1143 q 426 1115 426 1128 l 426 346 q 442 301 426 318 q 483 286 457 286 l 982 286 z "},"ㅂ":{"ha":1389,"x_min":0,"x_max":1389,"o":"m 1169 278 q 1149 222 1169 243 q 1093 201 1126 201 l 1011 201 l 1011 703 l 514 703 l 514 721 q 533 775 514 756 q 588 794 553 794 l 1014 794 l 1014 1060 q 1004 1101 1014 1092 q 949 1117 992 1115 l 949 1144 l 1138 1144 q 1161 1136 1153 1144 q 1169 1115 1169 1129 l 1169 278 m 978 292 l 958 239 q 936 213 953 225 q 903 201 918 201 l 346 201 q 293 222 313 201 q 272 278 272 243 l 272 1060 q 257 1101 272 1088 q 213 1114 242 1114 l 193 1114 l 193 1144 l 394 1144 q 417 1136 408 1144 q 425 1115 425 1129 l 425 353 q 442 310 425 326 q 483 292 458 292 l 978 292 z "},"ㅃ":{"ha":1389,"x_min":0,"x_max":1389,"o":"m 1304 269 q 1283 214 1304 235 q 1228 193 1261 193 l 1167 193 l 1165 694 l 961 694 l 961 713 q 981 767 961 747 q 1035 786 1000 786 l 1168 786 l 1168 1058 q 1158 1100 1168 1090 q 1103 1115 1146 1114 l 1103 1143 l 1272 1143 q 1296 1135 1288 1143 q 1304 1114 1304 1128 l 1304 269 m 1128 283 l 1100 232 q 1078 204 1090 215 q 1049 193 1064 193 l 853 193 q 800 214 819 193 q 779 269 779 235 l 779 1058 q 763 1101 779 1086 q 718 1115 747 1115 l 704 1115 l 704 1143 l 871 1143 q 893 1135 885 1143 q 903 1114 903 1128 l 903 344 q 917 300 903 315 q 960 283 932 283 l 1128 283 m 649 269 q 628 214 649 235 q 572 193 607 193 l 511 193 l 511 694 l 307 694 l 307 713 q 326 767 307 747 q 381 786 346 786 l 514 786 l 514 1058 q 510 1101 514 1094 q 460 1115 501 1114 l 460 1143 l 618 1143 q 640 1135 632 1143 q 649 1114 649 1128 l 649 269 m 475 283 l 450 232 q 429 204 443 215 q 399 193 414 193 l 199 193 q 144 214 164 193 q 125 269 125 235 l 125 1058 q 108 1101 125 1086 q 64 1115 93 1115 l 44 1115 l 44 1143 l 215 1143 q 239 1135 231 1143 q 249 1114 249 1128 l 249 344 q 263 300 249 315 q 306 283 278 283 l 475 283 z "},"ㅄ":{"ha":1389,"x_min":0,"x_max":1389,"o":"m 1354 264 q 1357 218 1367 235 q 1318 200 1347 200 l 1096 200 l 1096 228 q 1175 240 1158 233 q 1192 274 1197 250 l 1078 810 q 1033 867 1067 869 q 992 821 1001 865 l 835 229 q 814 208 831 217 q 782 200 799 200 l 638 200 l 638 231 q 668 236 683 240 q 704 263 686 242 l 907 1032 q 917 1082 921 1074 q 871 1090 911 1090 l 842 1090 l 842 1129 l 1082 1129 q 1111 1115 1104 1129 q 1110 1096 1115 1104 l 1090 1025 l 1354 264 m 585 268 q 563 213 585 233 q 507 192 542 192 l 446 192 l 446 693 l 275 693 l 275 711 q 296 765 275 746 q 349 785 315 785 l 449 785 l 449 1057 q 439 1099 449 1089 q 383 1115 426 1114 l 383 1142 l 553 1142 q 575 1135 567 1142 q 585 1114 585 1126 l 585 268 m 426 282 l 407 228 q 378 197 399 206 q 343 192 365 192 l 174 192 q 119 213 139 192 q 100 268 100 233 l 100 1057 q 82 1100 100 1083 q 40 1115 65 1115 l 19 1115 l 19 1142 l 192 1142 q 214 1135 206 1142 q 222 1114 222 1128 l 222 342 q 238 297 222 314 q 281 282 253 282 l 426 282 z "},"ㅅ":{"ha":1389,"x_min":0,"x_max":1389,"o":"m 1167 257 q 1172 210 1182 228 q 1128 190 1161 190 l 894 190 l 894 221 q 965 235 950 225 q 979 279 985 247 l 742 832 q 703 878 725 874 q 658 836 676 883 l 421 249 q 386 204 406 218 q 328 190 364 190 l 189 190 l 189 221 q 243 235 231 228 q 264 257 256 240 l 599 1054 q 610 1124 621 1106 q 561 1139 601 1139 l 526 1139 l 526 1174 l 767 1174 q 799 1164 788 1174 q 803 1139 811 1154 l 756 1050 l 1167 257 z "},"ㅆ":{"ha":1389,"x_min":0,"x_max":1389,"o":"m 1243 258 q 1246 213 1254 229 q 1206 194 1236 194 l 997 194 l 997 224 q 1064 235 1050 228 q 1076 269 1082 244 l 965 783 q 928 846 953 842 q 890 797 904 851 l 747 251 q 724 211 740 226 q 679 194 704 194 l 522 194 l 522 224 q 561 224 588 228 q 606 257 585 228 l 688 588 l 547 800 q 511 833 526 833 q 474 783 490 835 l 318 249 q 290 211 308 225 q 244 194 269 194 l 92 194 l 92 224 q 147 231 119 229 q 181 258 174 233 l 418 1039 q 425 1106 436 1096 q 356 1111 418 1111 l 332 1111 l 332 1150 l 565 1150 q 589 1140 583 1150 q 583 1113 594 1129 l 556 1007 l 726 757 l 796 1040 q 799 1097 806 1082 q 765 1111 792 1111 l 725 1111 l 725 1150 l 982 1150 q 1010 1140 1003 1150 q 1008 1113 1015 1131 l 985 1011 l 1243 258 z "},"ㅇ":{"ha":1389,"x_min":0,"x_max":1389,"o":"m 1158 674 q 1042 326 1158 453 q 701 196 921 196 q 383 347 515 196 q 257 674 257 492 q 369 1001 257 867 q 701 1150 493 1150 q 1032 1001 897 1150 q 1158 674 1158 861 l 1158 674 m 997 767 q 804 1003 938 938 q 574 1015 686 1061 q 400 858 446 965 q 406 603 350 746 q 564 372 469 440 q 794 333 663 303 q 994 476 935 365 q 997 767 1058 597 l 997 767 z "},"ㅈ":{"ha":1389,"x_min":0,"x_max":1389,"o":"m 1156 256 q 1160 211 1168 226 q 1119 194 1150 194 l 897 194 l 897 222 q 960 236 947 226 q 965 278 972 246 l 763 857 q 726 915 743 913 q 685 857 707 918 l 464 247 q 435 210 456 224 q 388 194 414 194 l 193 194 l 193 222 q 243 227 228 229 q 288 254 258 225 l 604 1065 l 308 1065 q 256 1085 275 1065 q 235 1138 235 1104 l 235 1158 l 1118 1158 l 1118 1065 l 794 1065 l 1156 256 z "},"ㅉ":{"ha":1389,"x_min":0,"x_max":1389,"o":"m 1249 269 q 1253 224 1263 242 q 1213 206 1243 206 l 1000 206 l 1000 236 q 1075 247 1058 239 q 1088 283 1093 256 l 982 782 q 935 836 967 840 q 892 783 903 833 l 767 267 q 740 222 761 240 q 696 206 721 206 l 525 206 l 525 238 q 568 239 585 240 q 615 268 596 243 l 699 593 l 571 767 q 526 814 538 807 q 490 789 504 825 l 307 261 q 281 222 300 238 q 233 206 260 206 l 63 206 l 63 236 q 104 236 136 240 q 150 268 129 239 l 406 978 q 413 1044 424 1024 q 356 1058 400 1067 l 269 1058 q 221 1078 240 1058 q 201 1131 201 1099 l 201 1153 l 675 1153 l 675 1089 q 722 1139 714 1131 q 750 1153 738 1153 l 1215 1153 l 1215 1058 l 1071 1058 q 1026 1040 1033 1058 q 1032 986 1021 1026 l 1249 269 m 813 979 q 818 1038 826 1019 q 764 1058 807 1058 l 651 1058 q 586 1021 608 1058 q 603 924 561 976 l 749 738 l 813 979 z "},"ㅊ":{"ha":1389,"x_min":0,"x_max":1389,"o":"m 1164 256 q 1168 210 1178 226 q 1128 193 1158 193 l 889 193 l 889 219 q 956 235 940 224 q 965 278 972 246 l 769 715 q 726 771 747 764 q 678 726 701 779 l 467 247 q 438 210 457 225 q 390 193 415 193 l 197 193 l 197 217 q 243 224 236 221 q 279 254 254 229 l 606 933 l 308 933 q 254 956 275 933 q 235 1011 235 976 l 235 1028 l 611 1028 l 611 1101 q 596 1136 611 1126 q 551 1143 583 1143 l 532 1143 l 532 1176 l 753 1210 q 774 1201 765 1210 q 782 1181 782 1193 l 783 1032 l 1118 1032 l 1118 933 l 790 933 l 1164 256 z "},"ㅋ":{"ha":1389,"x_min":0,"x_max":1389,"o":"m 1115 214 q 1107 192 1115 200 q 1085 183 1099 183 l 908 183 q 943 217 931 199 q 956 254 956 236 l 954 724 l 426 724 q 374 746 393 724 q 353 801 353 768 l 353 819 l 957 819 l 957 1004 q 939 1047 957 1031 q 897 1061 922 1061 l 385 1061 q 331 1082 350 1061 q 311 1138 311 1103 l 311 1157 l 929 1157 l 1086 1188 q 1107 1183 1099 1190 q 1115 1164 1115 1176 l 1115 214 z "},"ㅌ":{"ha":1389,"x_min":0,"x_max":1389,"o":"m 1050 1061 l 497 1061 l 497 1082 q 518 1136 497 1117 q 571 1156 538 1156 l 1050 1156 l 1050 1061 m 1011 642 l 571 642 q 518 663 538 642 q 497 718 497 683 l 497 736 l 1011 736 l 1011 642 m 1207 278 l 1171 218 q 1143 196 1160 204 q 1110 188 1126 188 l 331 188 q 276 208 296 188 q 257 264 257 229 l 257 1071 q 240 1114 257 1099 q 196 1128 225 1128 l 135 1128 l 135 1160 l 397 1194 q 419 1186 411 1194 q 428 1164 428 1178 l 428 339 q 443 294 428 311 q 485 278 458 278 l 1207 278 z "},"ㅍ":{"ha":1389,"x_min":0,"x_max":1389,"o":"m 1128 1063 l 288 1063 q 235 1083 254 1063 q 214 1139 214 1104 l 214 1156 l 1128 1156 l 1128 1063 m 1199 307 l 1179 228 q 1164 201 1175 211 q 1138 192 1153 192 l 249 192 q 194 213 214 192 q 175 268 175 233 l 175 282 l 365 282 l 365 944 l 504 944 q 528 936 519 944 q 538 915 538 929 l 538 283 l 807 283 l 807 944 l 951 944 q 974 936 965 944 q 982 915 982 929 l 982 286 l 1121 285 q 1164 290 1144 285 q 1199 307 1179 296 l 1199 307 z "},"ㅎ":{"ha":1389,"x_min":0,"x_max":1389,"o":"m 1189 956 l 289 956 q 236 978 256 956 q 215 1033 215 999 l 215 1051 l 617 1051 l 617 1111 q 601 1146 617 1136 q 557 1154 588 1154 l 536 1154 l 536 1186 l 757 1221 q 779 1213 771 1221 q 788 1192 788 1204 l 788 1054 l 1189 1054 l 1189 956 m 1068 528 q 982 260 1068 365 q 699 139 882 139 q 421 260 524 139 q 329 525 328 368 q 425 779 332 678 q 699 890 526 890 q 968 781 864 890 q 1068 528 1064 678 l 1068 528 m 925 547 q 833 733 907 669 q 649 779 757 797 q 489 678 533 760 q 469 486 450 604 q 547 303 489 367 q 724 239 614 232 q 897 335 846 251 q 925 547 946 415 l 925 547 z "},"ㅏ":{"ha":1389,"x_min":0,"x_max":1389,"o":"m 988 729 l 758 729 l 758 208 q 749 186 758 194 q 726 176 740 176 l 614 176 l 614 1040 q 599 1083 614 1068 q 554 1099 582 1099 l 514 1099 l 514 1131 l 728 1197 q 750 1193 742 1199 q 758 1175 758 1188 l 758 826 l 988 826 l 988 729 z "},"ㅐ":{"ha":1389,"x_min":0,"x_max":1389,"o":"m 986 213 q 978 190 986 199 q 956 182 969 182 l 835 182 l 835 686 l 576 686 l 576 213 q 568 190 576 199 q 546 182 560 182 l 426 182 l 426 1044 q 411 1079 426 1069 q 368 1088 397 1088 l 306 1088 l 306 1119 l 550 1186 q 569 1182 561 1189 q 576 1163 576 1175 l 576 790 l 838 790 l 838 1063 q 822 1097 838 1088 q 778 1106 808 1106 l 758 1106 l 758 1140 l 958 1208 q 978 1201 971 1207 q 986 1186 986 1196 l 986 213 z "},"ㅑ":{"ha":1389,"x_min":0,"x_max":1389,"o":"m 951 574 l 750 575 l 749 213 q 740 189 749 197 q 715 179 731 179 l 599 179 l 599 1058 q 581 1093 599 1082 q 538 1103 565 1103 l 490 1103 l 490 1136 l 718 1203 q 740 1197 732 1203 q 749 1181 749 1192 l 750 911 l 951 910 l 951 814 l 749 814 l 749 668 l 951 668 l 951 574 z "},"ㅒ":{"ha":1389,"x_min":0,"x_max":1389,"o":"m 986 214 q 978 192 986 200 q 956 183 969 183 l 833 183 l 833 550 l 563 550 l 563 214 q 553 192 563 200 q 531 183 544 183 l 418 183 l 418 1036 q 401 1071 418 1061 q 358 1078 388 1078 l 311 1078 l 311 1111 l 533 1179 q 554 1175 546 1182 q 563 1154 563 1168 l 564 890 l 838 890 l 838 1047 q 828 1082 838 1074 q 789 1089 818 1089 l 758 1089 l 758 1125 l 958 1192 q 978 1186 971 1192 q 986 1168 986 1181 l 986 214 m 835 647 l 835 790 l 563 790 l 563 647 l 835 647 z "},"ㅓ":{"ha":1389,"x_min":0,"x_max":1389,"o":"m 796 213 q 786 190 796 199 q 763 182 776 182 l 639 182 l 639 689 l 426 689 q 406 701 414 689 q 399 728 399 713 l 399 786 l 642 786 l 642 1050 q 625 1085 642 1074 q 582 1094 610 1094 l 521 1094 l 521 1128 l 765 1196 q 788 1190 778 1196 q 796 1174 796 1183 l 796 213 z "},"ㅔ":{"ha":1389,"x_min":0,"x_max":1389,"o":"m 949 214 q 940 192 949 200 q 917 182 931 182 l 800 182 l 800 1053 q 783 1088 800 1078 q 740 1096 771 1096 l 719 1096 l 719 1129 l 918 1196 q 940 1192 932 1197 q 949 1174 949 1186 l 949 214 m 615 214 q 607 192 615 200 q 585 182 599 182 l 471 182 l 471 671 l 314 671 q 292 681 300 671 q 283 704 283 690 l 283 764 l 474 764 l 474 1042 q 458 1076 474 1067 q 414 1083 446 1083 l 351 1083 l 351 1117 l 586 1185 q 607 1181 599 1186 q 615 1161 615 1174 l 615 214 z "},"ㅕ":{"ha":1389,"x_min":0,"x_max":1389,"o":"m 793 213 q 783 190 793 199 q 761 182 775 182 l 636 182 l 636 544 l 410 544 q 389 553 396 544 q 381 575 381 561 l 381 639 l 638 639 l 638 785 l 410 786 q 389 796 396 786 q 381 819 381 804 l 381 879 l 642 879 l 642 1056 q 625 1090 642 1081 q 583 1099 611 1099 l 519 1099 l 519 1133 l 764 1200 q 785 1194 776 1200 q 793 1178 793 1189 l 793 213 z "}}}
